<?xml version="1.0" standalone="no"?>
<!DOCTYPE svg PUBLIC "-//W3C//DTD SVG 20010904//EN"
 "http://www.w3.org/TR/2001/REC-SVG-20010904/DTD/svg10.dtd">
<svg version="1.0" xmlns="http://www.w3.org/2000/svg"
 width="664.000000pt" height="488.000000pt" viewBox="0 0 664.000000 488.000000"
 preserveAspectRatio="xMidYMid meet">

<g transform="translate(0.000000,488.000000) scale(0.100000,-0.100000)"
fill="#000000" stroke="none">
<path d="M3190 4846 c0 -47 11 -96 21 -96 10 0 12 54 3 99 -9 41 -24 40 -24
-3z"/>
<path d="M3260 4815 c0 -37 4 -65 10 -65 6 0 10 28 10 65 0 37 -4 65 -10 65
-6 0 -10 -28 -10 -65z"/>
<path d="M3330 4815 c0 -37 4 -65 10 -65 6 0 10 28 10 65 0 37 -4 65 -10 65
-6 0 -10 -28 -10 -65z"/>
<path d="M3396 4858 c-9 -35 -7 -108 3 -108 9 0 21 57 21 103 0 33 -15 36 -24
5z"/>
<path d="M3126 4813 c6 -53 17 -83 28 -72 9 10 -10 123 -22 127 -9 3 -11 -10
-6 -55z"/>
<path d="M3466 4858 c-3 -7 -7 -37 -10 -65 -4 -42 -2 -53 9 -53 10 0 15 11 15
34 0 18 3 48 6 65 4 20 3 31 -5 31 -6 0 -13 -6 -15 -12z"/>
<path d="M3053 4838 c4 -13 9 -42 13 -65 4 -24 12 -43 18 -43 9 0 10 16 2 65
-6 45 -14 65 -24 65 -10 0 -12 -7 -9 -22z"/>
<path d="M3526 4814 c-8 -63 -8 -84 3 -84 5 0 12 21 15 48 4 26 9 55 12 65 3
10 0 17 -9 17 -9 0 -16 -16 -21 -46z"/>
<path d="M2990 4828 c1 -29 16 -98 24 -105 15 -15 16 10 5 66 -11 60 -29 83
-29 39z"/>
<path d="M3591 4789 c-11 -56 -10 -81 5 -66 8 7 23 76 24 105 0 44 -18 21 -29
-39z"/>
<path d="M3656 4779 c-16 -59 -15 -83 3 -63 4 5 14 31 20 58 18 73 -2 78 -23
5z"/>
<path d="M2920 4819 c0 -27 32 -119 42 -119 10 0 9 10 -13 93 -9 34 -29 52
-29 26z"/>
<path d="M3737 4813 c-3 -5 -10 -27 -17 -51 -6 -24 -14 -50 -17 -58 -3 -8 1
-14 9 -14 16 0 51 117 38 125 -5 3 -11 2 -13 -2z"/>
<path d="M2852 4799 c3 -8 13 -38 23 -67 10 -32 21 -50 26 -45 12 12 -23 115
-41 121 -8 3 -11 -1 -8 -9z"/>
<path d="M2790 4778 c0 -23 36 -109 46 -109 12 1 11 8 -9 69 -17 48 -37 69
-37 40z"/>
<path d="M3781 4734 c-25 -66 -25 -64 -8 -64 7 0 21 24 30 53 19 62 20 67 8
67 -4 0 -18 -25 -30 -56z"/>
<path d="M3845 4714 c-29 -66 -29 -64 -12 -64 7 0 22 23 33 52 10 29 21 56 22
60 2 4 -1 8 -7 8 -6 0 -22 -25 -36 -56z"/>
<path d="M2720 4756 c0 -16 52 -116 61 -116 6 0 8 7 5 18 -26 70 -43 102 -53
102 -7 0 -13 -2 -13 -4z"/>
<path d="M2666 4732 c-4 -6 6 -37 22 -68 17 -33 32 -52 36 -46 4 6 -6 37 -22
68 -17 33 -32 52 -36 46z"/>
<path d="M3904 4685 c-27 -63 -28 -65 -14 -65 10 0 42 57 54 98 15 46 -16 21
-40 -33z"/>
<path d="M3965 4660 c-26 -51 -31 -70 -17 -70 8 0 62 95 62 110 0 25 -22 6
-45 -40z"/>
<path d="M2600 4695 c0 -8 40 -87 52 -102 6 -7 14 -10 19 -7 10 6 -45 107 -61
112 -5 2 -10 1 -10 -3z"/>
<path d="M4044 4663 c-5 -10 -20 -35 -32 -55 -14 -22 -19 -39 -13 -43 11 -6
70 80 71 103 0 18 -13 15 -26 -5z"/>
<path d="M2540 4665 c0 -19 63 -115 71 -109 11 6 -43 106 -60 112 -6 2 -11 0
-11 -3z"/>
<path d="M4081 4592 c-33 -52 -37 -62 -22 -62 9 0 71 91 71 103 0 20 -21 1
-49 -41z"/>
<path d="M2480 4625 c0 -15 67 -105 78 -105 15 0 13 4 -30 68 -25 36 -48 54
-48 37z"/>
<path d="M4133 4552 c-35 -51 -39 -62 -24 -62 9 0 81 94 81 105 0 3 -6 5 -12
5 -7 0 -28 -22 -45 -48z"/>
<path d="M2427 4577 c22 -37 69 -97 76 -97 15 0 6 23 -25 66 -17 24 -38 44
-45 44 -9 0 -11 -5 -6 -13z"/>
<path d="M4194 4523 c-41 -51 -46 -61 -35 -67 9 -6 81 80 81 96 0 18 -18 6
-46 -29z"/>
<path d="M2372 4540 c5 -16 72 -99 81 -100 16 0 5 24 -29 66 -33 40 -60 58
-52 34z"/>
<path d="M4254 4487 c-47 -50 -56 -65 -45 -71 5 -3 28 16 50 43 46 55 41 79
-5 28z"/>
<path d="M2324 4499 c-6 -10 64 -94 78 -94 17 0 8 18 -31 60 -22 24 -43 40
-47 34z"/>
<path d="M4286 4424 c-21 -25 -35 -48 -32 -52 9 -8 96 79 90 90 -9 15 -19 8
-58 -38z"/>
<path d="M2270 4447 c0 -16 72 -87 88 -87 20 0 14 12 -30 57 -44 45 -58 52
-58 30z"/>
<path d="M3535 4448 c-16 -6 -37 -17 -45 -24 -9 -7 -25 -11 -35 -8 -28 7 -134
-22 -158 -43 -26 -24 -47 -67 -47 -97 0 -15 -8 -30 -20 -36 -11 -6 -20 -21
-20 -33 0 -18 -9 -26 -42 -37 -51 -18 -57 -43 -13 -48 16 -2 42 -15 58 -28 37
-31 50 -30 127 11 35 19 68 31 73 26 16 -16 13 -115 -7 -158 l-18 -42 -47 51
-47 51 -64 -11 c-82 -14 -113 -45 -131 -129 -13 -57 -57 -153 -84 -183 -28
-31 -54 -107 -57 -163 -3 -65 0 -65 -105 -15 -52 24 -63 35 -77 69 -9 22 -19
68 -22 102 -3 34 -15 88 -26 121 -16 48 -18 60 -7 67 20 13 29 11 29 -6 0 -8
13 -29 28 -46 22 -25 37 -32 77 -35 28 -3 66 -10 86 -16 43 -12 79 2 79 32 0
10 5 22 11 25 6 4 8 14 5 22 -4 9 1 17 14 20 38 10 21 30 -32 36 -31 4 -60 14
-73 27 -20 19 -21 26 -13 73 6 29 11 53 13 55 1 2 19 -5 39 -14 33 -16 37 -17
49 -1 6 9 24 21 38 26 20 7 31 23 44 60 12 37 22 51 35 51 21 0 40 28 40 57 0
24 -54 74 -104 97 -22 9 -66 20 -99 23 -51 5 -67 2 -116 -23 -31 -15 -66 -38
-77 -50 -21 -21 -28 -22 -112 -17 -129 8 -222 -15 -278 -71 -23 -23 -53 -52
-68 -65 -14 -13 -26 -29 -26 -35 0 -7 -11 -19 -25 -26 -29 -15 -135 -150 -135
-171 0 -8 6 -23 14 -34 7 -11 16 -41 19 -67 5 -38 2 -55 -14 -83 -15 -25 -26
-72 -36 -153 -14 -116 -15 -118 -64 -185 -27 -37 -49 -74 -49 -81 0 -24 74
-75 126 -87 27 -6 64 -19 81 -28 l32 -15 -20 -22 c-27 -29 -29 -112 -3 -131
21 -15 50 -17 59 -3 3 6 10 10 15 10 12 0 30 -57 30 -94 0 -17 7 -44 15 -59
16 -31 9 -93 -19 -159 -21 -49 -20 -76 4 -115 15 -25 27 -33 49 -33 35 0 54
37 27 52 -9 5 -16 14 -16 21 0 14 63 57 84 57 7 0 40 -21 72 -46 87 -68 160
-101 272 -124 130 -26 135 -26 177 11 32 28 35 36 35 83 0 34 -7 61 -20 81
-11 17 -20 38 -20 48 0 10 -10 47 -22 82 -22 63 -22 64 -3 85 l19 21 50 -49
c96 -93 117 -98 221 -57 64 26 91 25 99 -3 2 -10 8 -53 11 -98 5 -65 4 -84 -8
-96 -8 -8 -63 -25 -121 -38 -114 -25 -110 -21 -91 -85 1 -6 50 -26 108 -44
l106 -35 200 59 201 58 0 33 c0 38 11 33 -142 64 -54 11 -104 17 -112 14 -19
-7 -41 141 -26 181 6 16 8 52 4 85 l-6 58 63 92 64 92 3 -68 c2 -50 -3 -83
-18 -123 -11 -31 -21 -85 -23 -121 l-2 -65 52 -3 c87 -5 114 23 73 76 -28 35
-18 100 27 168 20 30 40 79 50 122 16 69 19 72 46 72 15 0 26 -3 24 -7 -53
-96 -91 -196 -95 -248 -5 -78 30 -199 68 -235 25 -24 26 -27 13 -58 -7 -18
-11 -43 -7 -56 5 -20 14 -24 60 -30 90 -10 144 29 112 84 l-15 27 228 -1 c125
-1 231 2 235 6 4 5 0 16 -8 25 -41 48 -48 135 -19 258 36 154 46 231 45 375 0
145 -20 299 -49 381 -12 33 -12 44 2 77 14 36 14 43 -2 76 -23 47 -60 66 -127
64 -29 0 -102 7 -163 16 -60 9 -124 15 -141 12 -38 -5 -63 17 -88 78 -24 59
-61 102 -119 141 -49 33 -51 37 -48 75 4 66 -15 108 -61 130 -54 26 -96 32
-133 18z m123 -27 c51 -26 65 -60 56 -130 -5 -31 -7 -62 -5 -70 1 -7 -5 -31
-13 -52 -9 -22 -16 -49 -16 -61 0 -11 -11 -31 -25 -44 l-26 -24 6 53 c4 28 19
77 35 108 l28 55 -25 52 -25 52 -29 -21 c-18 -12 -37 -18 -48 -14 -13 4 -27
-1 -39 -13 -24 -24 -52 -115 -52 -166 0 -20 -4 -36 -8 -36 -9 0 -31 81 -34
125 -4 70 43 178 85 195 37 15 96 11 135 -9z m-204 -17 c13 -5 14 -10 2 -32
-29 -60 -38 -116 -26 -173 6 -30 14 -66 17 -80 4 -20 10 -25 24 -22 23 6 32
32 23 70 l-6 28 21 -32 c22 -35 54 -43 93 -22 28 15 33 5 21 -48 -8 -33 -8
-52 -1 -60 15 -18 28 -16 29 5 0 9 7 2 16 -18 8 -19 25 -46 39 -60 l23 -25
-32 -26 c-18 -14 -50 -32 -71 -39 -39 -13 -108 -71 -118 -100 -8 -24 -88 16
-88 45 0 12 -7 37 -16 55 -16 31 -16 35 5 77 33 68 36 119 13 202 -24 83 -37
106 -27 46 l7 -40 -18 25 c-22 31 -40 45 -80 65 -37 18 -47 37 -35 68 14 35
52 64 106 80 62 19 60 18 79 11z m-368 -65 c57 -26 83 -54 84 -91 0 -39 -15
-43 -65 -14 -29 16 -45 20 -45 12 0 -25 -83 -68 -136 -72 -50 -3 -53 -2 -80
34 -15 20 -34 41 -41 45 -7 4 -13 13 -13 20 0 16 50 57 70 57 10 0 23 7 30 15
20 24 136 20 196 -6z m578 -38 c24 -52 15 -85 -24 -79 -20 3 -27 1 -23 -9 3
-7 12 -13 19 -13 31 0 -7 -39 -48 -51 -39 -10 -44 -9 -60 11 -22 27 -23 81 -3
120 13 24 22 30 49 30 18 0 39 7 46 15 18 22 23 19 44 -24z m-1088 -40 c-52
-18 -98 -58 -123 -105 -12 -23 -12 -33 -3 -57 16 -37 75 -89 102 -89 20 0 21
-4 15 -66 -4 -37 -8 -68 -10 -70 -2 -2 -48 12 -102 30 -140 48 -157 72 -135
186 5 30 16 50 32 60 12 8 39 33 59 54 29 31 50 43 105 57 87 23 124 23 60 0z
m204 -6 c35 -18 60 -62 60 -106 0 -41 -34 -95 -71 -114 -16 -9 -29 -21 -29
-28 0 -7 -11 -36 -25 -64 l-25 -50 20 -47 c11 -26 24 -86 30 -133 9 -86 41
-173 63 -173 7 0 26 -10 42 -21 l30 -21 -31 6 c-39 6 -74 -17 -74 -49 0 -34
-26 -58 -51 -45 -22 12 -22 13 -23 95 -1 54 -6 68 -45 128 -65 100 -74 133
-72 271 1 133 10 177 52 255 16 30 27 56 25 59 -9 8 -65 -103 -76 -150 -7 -29
-18 -48 -26 -48 -26 0 -94 71 -94 97 0 32 33 86 65 107 62 41 203 58 255 31z
m340 -53 c0 -4 -7 -26 -16 -49 -15 -40 -25 -47 -61 -46 -7 1 -13 -6 -13 -13 0
-24 -29 -28 -64 -9 -28 15 -40 16 -77 7 -24 -6 -44 -10 -45 -9 -2 1 1 18 5 37
7 34 8 35 66 40 61 6 142 41 152 66 4 11 10 10 29 -3 13 -8 24 -18 24 -21z
m205 17 c40 -24 58 -50 49 -73 -10 -26 -34 -27 -44 -1 -10 26 -46 50 -54 36
-3 -4 -17 -6 -31 -3 -46 8 -23 61 27 62 9 0 33 -10 53 -21z m458 -15 c42 -31
107 -113 107 -136 0 -5 -13 -2 -30 7 -16 9 -30 11 -30 6 0 -5 13 -14 29 -21
16 -6 39 -22 51 -34 l21 -23 -48 -12 c-26 -7 -68 -21 -93 -32 l-45 -20 -34 36
c-32 35 -33 39 -26 92 4 30 13 70 21 88 8 19 14 46 14 60 0 32 5 32 63 -11z
m-508 -56 l27 -21 -7 24 c-7 21 -6 22 9 10 22 -18 20 -48 -3 -61 -32 -17 -66
-11 -91 15 -17 18 -30 23 -47 19 -32 -9 -29 12 5 24 44 17 77 13 107 -10z
m-345 -79 c0 -11 -15 -33 -32 -50 -18 -16 -27 -29 -21 -29 7 0 15 5 18 10 3 6
11 10 18 10 25 0 -22 -29 -102 -63 -47 -20 -86 -35 -88 -34 -1 2 5 24 15 50
20 51 68 90 137 112 55 18 55 18 55 -6z m-602 -117 c18 -19 55 -38 115 -57 48
-16 87 -32 87 -36 0 -14 -58 -49 -80 -49 -13 0 -38 9 -56 21 -29 18 -43 20
-100 14 -62 -7 -67 -6 -95 21 -16 15 -29 38 -29 52 0 23 37 76 95 136 l30 31
3 -52 c2 -40 9 -59 30 -81z m987 41 c39 -39 56 -68 77 -127 21 -61 22 -88 6
-104 -18 -18 -36 -15 -48 9 -9 16 -8 24 4 38 33 37 15 112 -40 168 -24 24 -40
43 -35 43 5 0 21 -12 36 -27z m-131 -10 c-11 -25 -9 -62 4 -98 29 -80 35 -116
26 -153 -9 -36 -10 -37 -55 -36 -35 0 -52 6 -75 27 l-29 27 22 42 c12 24 27
67 34 96 6 29 22 66 36 83 27 32 50 39 37 12z m105 4 c6 -8 8 -16 5 -20 -3 -3
6 -13 21 -23 14 -9 24 -23 21 -30 -3 -7 0 -15 7 -17 7 -3 1 -9 -13 -15 l-25
-11 28 0 c20 -1 27 -6 27 -21 0 -28 -34 -43 -83 -35 -51 9 -67 21 -67 49 0 12
-7 32 -16 44 -27 39 5 92 55 92 16 0 34 -6 40 -13z m708 -33 c-19 -20 -45 -58
-57 -85 -19 -40 -26 -47 -37 -37 -8 6 -38 15 -67 19 -29 4 -73 16 -97 26 l-44
20 63 32 c78 39 151 59 221 60 l53 1 -35 -36z m103 30 c0 -3 -14 -24 -31 -46
-91 -114 -74 -203 49 -265 59 -30 62 -33 37 -39 -41 -10 -113 23 -173 82 -51
50 -54 55 -50 91 7 50 60 136 101 162 31 20 67 28 67 15z m122 -18 c21 -11 36
-12 64 -5 65 19 124 -23 124 -86 0 -35 -29 -79 -80 -121 -19 -16 -39 -34 -45
-40 -23 -25 -75 -54 -97 -54 -33 1 -118 50 -142 83 -38 52 -21 126 45 202 25
28 38 35 68 35 20 0 48 -7 63 -14z m-1304 -8 c9 -9 5 -17 -13 -34 -20 -18 -25
-33 -25 -69 l0 -47 -32 7 c-38 7 -91 59 -86 83 2 9 31 28 68 44 76 32 73 31
88 16z m57 -48 c3 -6 -4 -10 -16 -10 -16 0 -20 -3 -13 -10 12 -12 44 -3 44 11
0 5 15 9 33 8 24 0 27 -2 13 -8 -12 -5 -20 -19 -22 -46 -4 -45 -14 -57 -47
-57 -59 0 -94 52 -67 103 11 20 64 27 75 9z m847 -84 c3 -6 7 -15 8 -21 1 -5
6 -18 12 -28 11 -20 -5 -79 -26 -96 -7 -6 -29 -17 -49 -26 l-36 -15 3 43 c2
23 12 60 23 82 11 22 18 46 16 53 -7 19 -58 42 -95 43 l-33 1 30 7 c31 7 134
-24 147 -43z m-197 22 c-11 -6 -28 -18 -37 -26 -11 -9 -18 -11 -18 -4 0 12 47
41 65 41 6 0 1 -5 -10 -11z m-1061 -20 c3 -13 6 -35 6 -50 l0 -28 -77 -2
c-200 -3 -281 12 -296 55 -11 35 -4 43 26 30 16 -8 40 -8 73 -2 44 9 54 7 100
-18 l52 -27 48 31 c60 38 60 38 68 11z m1185 -3 c13 -13 12 -19 -4 -52 -20
-41 -31 -143 -15 -143 28 0 93 36 111 62 17 24 20 37 14 75 -4 25 -9 52 -12
59 -9 23 26 16 52 -11 15 -14 25 -36 25 -52 0 -42 -35 -93 -69 -99 -24 -5 -31
-14 -41 -50 -14 -48 -50 -94 -75 -94 -8 0 -15 4 -15 9 0 6 -12 6 -31 1 -35
-10 -49 -6 -49 15 0 8 -15 21 -34 29 -44 19 -69 57 -70 109 -1 62 20 103 73
138 39 26 52 30 86 24 22 -3 47 -12 54 -20z m-449 -25 c19 0 28 -8 37 -30 10
-27 9 -32 -14 -50 -33 -25 -108 -29 -99 -4 3 9 6 34 6 56 0 37 2 40 23 34 12
-3 33 -6 47 -6z m242 -30 c-10 -22 -18 -33 -20 -24 -3 13 23 64 32 64 3 0 -3
-18 -12 -40z m878 -87 c29 -132 40 -290 30 -411 -10 -108 -26 -208 -39 -245
-13 -34 -24 233 -17 396 5 89 3 148 -3 157 -7 10 -9 -9 -8 -65 1 -44 0 -109
-2 -145 -7 -123 11 -553 25 -594 8 -21 14 -40 14 -42 0 -2 -29 -4 -65 -4 -57
0 -68 3 -99 30 -33 29 -57 78 -71 145 l-6 30 40 -40 c69 -66 46 -27 -38 64
l-78 86 13 38 c8 21 16 61 20 88 7 54 12 60 64 70 l35 7 -33 1 c-44 1 -65 -11
-142 -85 -71 -69 -202 -175 -208 -169 -7 7 31 171 58 250 55 163 174 367 217
373 l21 3 -24 -97 c-14 -53 -23 -101 -21 -107 2 -7 14 31 27 83 25 104 35 130
51 130 16 0 88 52 149 108 30 28 58 47 63 43 4 -4 16 -48 27 -98z m-947 71
c30 -14 35 -23 50 -85 l16 -70 -25 -36 c-28 -42 -30 -66 -9 -127 15 -43 15
-46 -10 -82 -14 -20 -25 -41 -25 -45 0 -5 -10 -9 -22 -9 -12 0 -29 -7 -39 -16
-22 -20 -39 -10 -39 23 0 16 14 40 40 65 46 46 51 57 16 34 -31 -20 -40 -7
-31 42 5 30 25 77 73 176 13 27 -21 -11 -38 -42 l-20 -37 5 50 4 50 -15 -55
c-14 -54 -33 -197 -38 -295 -4 -66 -17 -134 -27 -141 -4 -2 -18 1 -29 8 -17
11 -22 11 -30 -2 -8 -11 -2 -22 20 -42 17 -16 39 -28 49 -28 15 0 18 -5 14
-21 -4 -14 0 -27 11 -35 17 -12 16 -15 -3 -59 -12 -26 -21 -58 -21 -71 0 -18
-6 -24 -20 -24 -12 0 -34 -7 -49 -15 -44 -22 -111 -35 -111 -21 0 6 9 40 21
76 11 36 22 101 24 145 l4 80 -14 -95 c-15 -102 -45 -202 -62 -207 -6 -2 -24
8 -40 21 -28 24 -31 31 -35 108 -4 65 0 104 18 181 13 54 21 109 18 123 -7 27
2 30 30 9 29 -22 63 -18 113 10 34 20 43 32 43 53 1 35 22 62 48 62 28 0 41
44 19 68 -8 9 -18 27 -21 39 -4 11 -13 27 -21 33 -10 9 -15 32 -15 74 0 59 2
64 33 86 33 25 86 57 99 59 4 0 22 -6 41 -15z m-1283 -41 c-15 -30 -23 -73
-31 -179 -9 -118 -15 -148 -40 -202 l-29 -63 -30 17 c-16 10 -30 23 -30 28 0
5 18 32 40 61 52 67 66 105 75 195 8 92 19 138 41 168 25 35 28 19 4 -25z m45
-7 c-24 -41 -25 -52 -28 -202 -2 -147 -4 -163 -27 -209 -21 -42 -29 -50 -49
-47 -14 1 -26 4 -28 6 -2 2 10 32 26 67 26 55 32 84 42 204 12 153 35 225 71
225 17 0 17 -4 -7 -44z m108 28 c3 -4 -2 -18 -11 -32 -14 -21 -16 -44 -13
-117 5 -102 4 -194 -1 -307 l-3 -78 -36 0 c-20 0 -42 7 -49 15 -7 8 -23 15
-36 15 -30 0 -30 9 -2 57 21 34 23 55 28 208 5 156 7 173 28 208 20 30 29 37
56 37 18 0 35 -3 39 -6z m245 -19 c7 -14 12 -44 12 -66 0 -22 10 -83 22 -135
12 -52 19 -97 15 -100 -3 -3 -36 -13 -74 -20 -95 -21 -113 -34 -113 -89 0 -24
5 -47 10 -50 15 -9 12 -17 -19 -53 -27 -32 -29 -32 -57 -17 -16 8 -34 15 -40
15 -18 0 -24 70 -11 145 7 39 9 94 6 125 -12 96 -10 189 5 225 15 34 15 34 88
38 40 1 89 4 109 5 30 2 38 -2 47 -23z m1457 -64 c22 -14 42 -26 44 -28 2 -1
-14 -29 -36 -60 -22 -32 -54 -84 -72 -117 -31 -58 -37 -59 -44 -1 -2 17 -5 0
-6 -36 0 -41 -10 -93 -26 -138 -29 -83 -60 -211 -70 -288 -6 -49 -5 -52 22
-69 15 -10 30 -19 32 -21 9 -6 -43 -143 -55 -143 -13 0 -45 76 -65 155 -17 68
-7 122 46 231 54 113 79 219 64 280 -12 52 -11 101 2 147 9 35 12 37 52 37 23
1 56 7 72 15 l30 14 -35 -5 c-19 -3 -64 -9 -100 -13 -36 -5 -57 -9 -46 -10 16
-1 18 -6 11 -43 -9 -48 -9 -75 0 -163 4 -33 3 -78 -2 -100 l-9 -40 -74 -6
c-41 -4 -90 -10 -108 -14 -30 -6 -33 -5 -28 11 3 11 10 41 16 68 14 62 34 101
81 155 21 24 52 71 69 104 16 33 48 75 69 94 22 18 43 43 46 54 6 19 9 18 43
-13 20 -18 55 -44 77 -57z m-952 47 c3 -9 29 -13 95 -11 l90 2 4 -57 c2 -31 2
-59 1 -62 -2 -2 -18 4 -36 13 -18 9 -57 20 -88 23 -54 6 -56 6 -110 -38 -30
-24 -55 -54 -57 -66 -6 -42 -22 -21 -22 29 0 69 17 120 52 163 24 29 33 34 48
26 10 -5 20 -15 23 -22z m-422 -126 c18 -37 20 -49 11 -79 -6 -19 -8 -41 -5
-49 3 -8 -1 -14 -9 -14 -14 0 -40 91 -53 190 l-6 45 20 -25 c12 -14 31 -45 42
-68z m594 -12 c28 -15 52 -35 54 -46 2 -10 12 -27 22 -37 21 -20 23 -26 10
-45 -6 -9 -19 -11 -44 -7 -30 6 -44 2 -82 -24 -48 -32 -133 -58 -145 -44 -39
47 -81 119 -78 136 2 11 27 40 55 64 51 41 54 42 105 36 29 -3 76 -18 103 -33z
m373 -35 c12 -26 27 -32 37 -15 3 5 15 6 28 1 12 -4 28 -6 35 -4 16 6 15 -3
-4 -32 -19 -28 -55 -41 -145 -50 l-66 -6 -12 46 c-12 47 -7 69 26 107 14 16
17 15 52 -3 21 -11 43 -31 49 -44z m-633 -90 c17 -18 39 -48 49 -67 19 -33 19
-33 0 -17 -25 22 -80 49 -96 49 -7 -1 5 -11 28 -23 84 -46 104 -71 104 -132 0
-39 -25 -91 -48 -100 -11 -4 -13 2 -8 28 6 35 -7 85 -32 125 -24 36 -26 17 -3
-21 28 -46 28 -115 0 -151 -39 -49 -105 -69 -150 -46 -18 10 -18 13 -4 40 8
16 24 31 35 35 27 9 36 49 17 79 -9 13 -37 33 -63 46 -43 19 -46 23 -29 32 10
6 44 14 74 18 l56 7 -48 2 c-26 0 -62 -5 -80 -12 -42 -18 -101 -85 -117 -131
-6 -20 -15 -36 -19 -36 -3 0 -36 29 -71 65 -35 36 -69 65 -74 65 -5 0 -6 -3
-3 -7 4 -3 -2 -13 -13 -20 -28 -20 -50 -1 -50 43 0 42 23 58 105 74 33 7 73
19 88 27 25 13 31 12 54 -2 36 -24 73 -7 73 34 0 37 15 49 70 53 60 4 119 -17
155 -57z m295 -22 c0 -5 -7 -17 -15 -27 -8 -11 -15 -31 -15 -44 0 -19 -4 -22
-20 -17 -15 5 -18 3 -14 -9 5 -12 2 -15 -12 -9 -11 4 -15 3 -10 -5 4 -7 -3
-14 -19 -18 -27 -7 -75 17 -75 37 0 6 -7 9 -15 5 -8 -3 -15 -1 -15 3 0 5 17
12 38 16 21 3 63 21 93 40 53 33 79 42 79 28z m375 -10 c-5 -10 -16 -47 -25
-83 -21 -81 -47 -132 -121 -240 l-59 -86 10 -53 c5 -30 10 -55 10 -57 0 -2
-15 -10 -34 -18 -26 -11 -37 -23 -46 -53 -21 -68 -24 -69 -31 -13 -5 30 -11
71 -14 90 -5 26 0 48 18 85 22 46 38 97 82 273 8 34 30 85 48 111 33 51 41 55
136 59 28 2 32 -1 26 -15z m-827 -145 c55 -34 65 -82 18 -94 -15 -4 -32 -30
-59 -91 -52 -116 -56 -139 -26 -148 25 -8 119 -85 119 -98 0 -4 -13 -1 -30 8
-36 18 -36 16 -10 -35 11 -22 16 -40 11 -40 -5 0 -12 8 -16 18 -7 22 -44 66
-50 60 -3 -3 2 -22 10 -42 9 -21 14 -43 12 -49 -2 -7 -10 5 -17 26 -16 41 -25
47 -33 17 -3 -11 -10 -20 -16 -20 -6 0 -8 7 -4 16 3 10 -7 29 -29 52 -43 45
-48 64 -49 189 -1 111 20 185 68 235 29 31 44 30 101 -4z m604 27 c3 -3 -3
-43 -13 -90 -18 -86 -42 -145 -59 -145 -10 0 4 51 26 92 18 34 18 61 -1 28
-11 -19 -14 -21 -15 -7 0 9 -5 17 -11 17 -7 0 -9 -10 -5 -26 6 -24 -7 -54 -24
-54 -15 0 -60 42 -54 51 4 6 11 6 20 -2 22 -18 41 -4 47 37 4 23 19 50 39 71
32 33 40 38 50 28z m-844 -87 l59 -56 -3 -97 c-2 -54 -6 -100 -9 -104 -4 -3
-46 -8 -94 -9 -73 -3 -96 0 -139 18 -60 26 -79 45 -84 84 -2 24 3 33 29 48 48
29 97 16 120 -30 10 -19 29 -42 43 -51 l25 -15 -26 30 c-15 16 -30 39 -34 52
-3 12 -20 29 -36 37 -34 18 -38 47 -10 89 21 32 70 67 88 64 6 -2 38 -29 71
-60z m1162 8 c0 -46 -23 -107 -61 -163 -44 -63 -51 -132 -19 -175 22 -30 22
-31 4 -45 -11 -8 -37 -13 -64 -11 -43 3 -45 4 -43 33 2 54 16 120 29 147 9 17
14 62 14 127 l0 99 63 10 c34 5 65 10 70 11 4 0 7 -14 7 -33z m355 -38 c-11
-68 -61 -189 -115 -277 -58 -95 -64 -141 -28 -199 l21 -35 -28 -24 c-21 -19
-35 -23 -58 -19 -16 3 -40 6 -53 6 -29 0 -31 26 -9 103 9 29 25 81 35 117 11
36 23 91 26 124 6 51 12 62 43 90 20 17 65 59 101 93 36 35 67 63 68 63 2 0 1
-19 -3 -42z m-1735 0 c10 -7 23 -22 29 -35 9 -20 8 -23 -13 -23 -12 0 -48 -18
-79 -40 -47 -34 -60 -39 -77 -30 -15 8 -20 21 -20 53 0 45 11 67 45 86 23 13
86 7 115 -11z m678 -40 c-3 -7 -13 -37 -24 -67 -10 -30 -35 -72 -55 -94 l-35
-40 -22 63 c-12 35 -20 64 -19 65 22 8 80 41 106 60 37 27 56 32 49 13z m-122
-225 c42 -131 45 -149 35 -183 -26 -86 -102 -118 -202 -86 -130 43 -255 107
-323 166 -81 70 -92 84 -101 133 l-7 37 57 -26 c52 -24 65 -26 160 -22 l104 3
5 -30 c4 -17 22 -46 41 -65 27 -26 32 -36 23 -47 -18 -22 5 -38 33 -22 14 7
24 8 26 2 15 -45 61 -54 47 -10 -5 18 -4 20 7 10 7 -7 19 -13 27 -13 14 0 13
13 -3 54 -7 16 -6 17 15 6 14 -7 26 -8 32 -2 11 11 -73 97 -117 119 -16 9 -31
17 -33 18 -2 1 9 32 23 68 l26 65 39 -15 c39 -16 39 -16 86 -160z m109 62 l7
-60 -29 28 c-24 23 -26 30 -15 45 7 9 15 25 19 35 8 25 10 20 18 -48z m1119
-58 c9 -67 30 -115 69 -156 l32 -34 -75 8 c-41 4 -91 7 -110 6 -19 -1 -54 1
-77 4 -39 6 -43 9 -43 34 0 16 26 73 60 132 33 57 60 110 60 118 0 9 15 0 39
-23 31 -31 40 -47 45 -89z m-270 50 c-7 -51 -21 -58 -49 -27 -17 19 -16 20 14
51 18 17 34 29 36 27 3 -3 2 -26 -1 -51z m-429 -188 c7 -46 12 -85 10 -87 -2
-2 -9 16 -17 39 -8 24 -19 44 -24 46 -5 2 -19 -23 -29 -54 -25 -73 -31 -46
-10 38 16 63 42 116 51 106 3 -3 11 -43 19 -88z m-1027 20 c60 -53 145 -98
297 -156 50 -20 102 -42 118 -49 15 -8 27 -10 27 -5 0 5 -10 13 -22 17 -20 7
-18 9 17 16 45 10 78 37 95 79 15 36 23 36 38 4 29 -63 -1 -148 -57 -160 -39
-8 -239 39 -296 71 -27 15 -74 47 -103 71 -30 24 -63 43 -73 43 -27 0 -69 -23
-94 -50 -20 -22 -20 -22 2 -40 16 -13 19 -20 10 -29 -21 -21 -44 -11 -62 29
-17 39 -17 41 4 98 11 33 21 68 21 79 0 18 8 33 18 33 2 0 29 -23 60 -51z
m1022 -116 c0 -7 -3 -13 -7 -13 -5 0 -18 -3 -30 -6 -27 -7 -28 1 -7 52 l17 39
13 -30 c7 -16 13 -36 14 -42z m179 -30 c100 -19 105 -16 -118 -79 l-165 -47
-88 29 c-48 15 -88 30 -88 33 0 6 144 41 167 41 9 0 11 -10 6 -32 -8 -41 13
-30 22 12 5 23 14 32 43 40 51 14 50 14 66 -22 l14 -33 1 38 c1 34 4 37 29 37
15 0 65 -8 111 -17z m111 -51 c0 -16 -31 -28 -182 -72 -101 -29 -188 -55 -195
-57 -16 -6 -18 33 -3 42 16 10 342 103 363 104 10 1 17 -6 17 -17z m-487 -58
c66 -21 87 -32 87 -46 0 -24 -11 -23 -110 10 -71 24 -86 33 -88 52 -3 16 0 21
10 18 7 -3 52 -18 101 -34z"/>
<path d="M3535 4250 c3 -5 16 -10 28 -9 21 0 21 1 2 9 -28 12 -37 12 -30 0z"/>
<path d="M3558 4183 c7 -3 16 -2 19 1 4 3 -2 6 -13 5 -11 0 -14 -3 -6 -6z"/>
<path d="M3540 4166 c0 -2 7 -6 15 -10 8 -3 15 -1 15 4 0 6 -7 10 -15 10 -8 0
-15 -2 -15 -4z"/>
<path d="M3050 4180 c0 -12 28 -25 36 -17 3 3 -4 10 -15 17 -15 7 -21 7 -21 0z"/>
<path d="M3237 3953 c-11 -11 -8 -20 8 -20 8 0 16 6 19 14 5 13 -15 18 -27 6z"/>
<path d="M4195 3880 c-16 -16 -26 -32 -24 -35 3 -2 21 11 39 30 19 19 29 35
24 35 -6 0 -23 -13 -39 -30z"/>
<path d="M3678 3592 c-30 -4 -39 -22 -10 -22 18 0 50 17 42 22 -3 2 -17 2 -32
0z"/>
<path d="M3230 3365 c0 -9 6 -12 15 -9 8 4 15 7 15 9 0 2 -7 5 -15 9 -9 3 -15
0 -15 -9z"/>
<path d="M4054 2771 c17 -17 34 -31 39 -31 14 0 -23 39 -48 52 -14 8 -12 2 9
-21z"/>
<path d="M4332 4377 c-23 -24 -39 -46 -35 -50 7 -8 93 71 93 85 0 17 -17 6
-58 -35z"/>
<path d="M2220 4402 c0 -10 83 -92 93 -92 18 0 3 26 -35 61 -43 38 -58 46 -58
31z"/>
<path d="M4381 4332 c-24 -21 -42 -43 -40 -50 4 -13 99 63 99 79 0 16 -14 9
-59 -29z"/>
<path d="M2176 4351 c-3 -4 17 -27 44 -50 57 -48 79 -37 24 11 -47 42 -61 50
-68 39z"/>
<path d="M4426 4285 c-43 -33 -58 -55 -38 -55 16 0 102 72 96 81 -7 12 -6 13
-58 -26z"/>
<path d="M2135 4299 c-4 -5 -5 -11 -4 -13 2 -1 25 -19 51 -40 30 -24 49 -33
53 -26 4 6 5 12 4 14 -2 1 -25 18 -51 39 -29 23 -49 33 -53 26z"/>
<path d="M4457 4224 c-26 -19 -45 -39 -42 -44 6 -10 114 59 115 73 0 16 -27 5
-73 -29z"/>
<path d="M2090 4241 c0 -9 94 -81 105 -81 3 0 5 6 5 13 0 6 -22 27 -48 45 -51
34 -62 38 -62 23z"/>
<path d="M4501 4174 c-66 -44 -57 -63 10 -22 54 34 64 44 51 52 -5 3 -32 -11
-61 -30z"/>
<path d="M2050 4181 c0 -14 102 -73 112 -63 5 5 -13 22 -42 40 -52 33 -70 39
-70 23z"/>
<path d="M4533 4117 c-30 -18 -49 -35 -44 -40 11 -11 111 43 111 61 0 17 -8
15 -67 -21z"/>
<path d="M2022 4119 c2 -5 27 -24 56 -40 37 -22 52 -27 52 -16 0 7 -22 26 -49
40 -53 29 -65 33 -59 16z"/>
<path d="M4567 4059 c-32 -16 -55 -34 -52 -39 3 -6 32 3 66 20 33 17 57 35 54
40 -3 6 -7 10 -8 10 -1 -1 -28 -14 -60 -31z"/>
<path d="M1986 4062 c-7 -12 103 -64 116 -56 6 4 -13 19 -43 35 -60 31 -66 33
-73 21z"/>
<path d="M4605 4004 c-27 -13 -54 -25 -59 -27 -5 -2 -6 -8 -2 -15 9 -15 116
36 116 55 0 7 -1 13 -2 12 -2 0 -25 -11 -53 -25z"/>
<path d="M1956 4002 c-8 -13 105 -65 116 -54 6 6 -11 19 -47 36 -65 30 -62 29
-69 18z"/>
<path d="M4618 3938 c-49 -21 -66 -45 -25 -34 43 10 97 36 97 46 0 14 -18 11
-72 -12z"/>
<path d="M1930 3937 c0 -12 110 -61 119 -52 8 9 -13 23 -66 44 -38 15 -53 17
-53 8z"/>
<path d="M4648 3878 c-53 -18 -77 -38 -45 -38 20 0 104 34 106 43 4 15 -3 15
-61 -5z"/>
<path d="M1906 3872 c-3 -6 17 -18 46 -28 29 -9 59 -19 66 -22 6 -2 12 1 12 7
0 20 -114 60 -124 43z"/>
<path d="M4658 3812 c-44 -14 -64 -32 -37 -32 25 0 119 32 119 41 0 13 -27 10
-82 -9z"/>
<path d="M1884 3808 c-8 -12 -8 -12 60 -31 58 -16 79 -15 60 2 -17 16 -114 39
-120 29z"/>
<path d="M4688 3752 c-33 -8 -58 -20 -58 -27 0 -10 13 -10 63 3 70 17 74 19
61 31 -5 4 -35 1 -66 -7z"/>
<path d="M1865 3740 c-5 -8 15 -16 99 -36 36 -9 32 17 -5 26 -57 15 -89 19
-94 10z"/>
<path d="M4705 3689 c-57 -13 -67 -18 -61 -28 8 -12 119 12 124 27 4 14 -6 14
-63 1z"/>
<path d="M1850 3671 c0 -9 83 -31 115 -31 35 0 11 19 -35 29 -62 13 -80 14
-80 2z"/>
<path d="M4720 3623 c-55 -8 -71 -14 -65 -24 6 -9 37 -7 103 7 12 2 22 9 22
14 0 10 -13 11 -60 3z"/>
<path d="M1840 3602 c0 -12 123 -31 129 -19 5 13 0 15 -67 23 -41 4 -62 3 -62
-4z"/>
<path d="M4688 3553 c-39 -6 -35 -23 6 -23 47 0 96 11 96 21 0 9 -50 10 -102
2z"/>
<path d="M1830 3531 c0 -8 121 -23 128 -16 2 2 1 8 -3 14 -7 13 -125 15 -125
2z"/>
<path d="M4670 3474 c0 -12 6 -15 23 -10 12 3 41 6 65 6 23 0 42 5 42 10 0 6
-28 10 -65 10 -53 0 -65 -3 -65 -16z"/>
<path d="M1830 3466 c0 -13 12 -16 65 -16 37 0 65 4 65 10 0 6 -15 10 -34 10
-18 0 -48 3 -65 6 -24 5 -31 3 -31 -10z"/>
<path d="M4733 3423 c-83 -5 -81 -23 2 -23 51 0 65 3 65 15 0 8 -1 14 -2 13
-2 -1 -31 -3 -65 -5z"/>
<path d="M1825 3400 c-3 -5 0 -13 8 -16 23 -9 122 0 122 11 0 14 -122 19 -130
5z"/>
<path d="M4670 3351 c0 -9 57 -21 103 -21 17 0 27 5 27 15 0 12 -14 15 -65 15
-36 0 -65 -4 -65 -9z"/>
<path d="M1830 3330 c0 -6 28 -10 65 -10 37 0 65 4 65 10 0 6 -28 10 -65 10
-37 0 -65 -4 -65 -10z"/>
<path d="M4670 3301 c0 -14 27 -21 81 -21 62 0 64 15 3 24 -63 8 -84 8 -84 -3z"/>
<path d="M1863 3273 c-48 -6 -40 -23 10 -23 50 0 87 9 87 21 0 9 -35 10 -97 2z"/>
<path d="M4664 3238 c-9 -14 -5 -15 64 -23 41 -5 62 -3 62 4 0 9 -20 14 -98
25 -12 2 -25 -1 -28 -6z"/>
<path d="M1897 3210 c-88 -15 -78 -35 12 -24 42 4 61 11 61 20 0 15 -3 15 -73
4z"/>
<path d="M4650 3172 c0 -10 120 -35 129 -27 11 12 -17 24 -71 30 -37 5 -58 4
-58 -3z"/>
<path d="M1892 3140 c-36 -8 -49 -17 -40 -26 9 -8 128 17 128 27 0 11 -42 10
-88 -1z"/>
<path d="M4640 3111 c0 -9 23 -17 103 -35 19 -5 27 -2 27 8 0 8 -16 16 -42 20
-24 4 -53 9 -65 13 -13 3 -23 1 -23 -6z"/>
<path d="M1912 3077 c-44 -12 -59 -35 -19 -29 48 7 97 23 97 32 0 12 -23 11
-78 -3z"/>
<path d="M4630 3047 c0 -11 76 -37 111 -37 25 0 4 18 -33 29 -24 7 -51 15 -60
17 -11 3 -18 0 -18 -9z"/>
<path d="M1933 3013 c-48 -14 -72 -33 -40 -33 30 1 111 27 115 38 5 15 -10 14
-75 -5z"/>
<path d="M4610 2987 c0 -9 21 -20 57 -30 74 -22 93 -5 21 18 -29 10 -59 20
-65 23 -7 2 -13 -2 -13 -11z"/>
<path d="M1956 2951 c-46 -16 -75 -42 -44 -40 26 1 108 34 109 44 1 15 -13 15
-65 -4z"/>
<path d="M4590 2926 c0 -6 27 -22 60 -34 47 -16 60 -18 60 -8 0 8 -26 23 -60
34 -43 15 -60 17 -60 8z"/>
<path d="M1980 2888 c-65 -24 -64 -24 -56 -37 7 -11 118 31 124 48 5 15 -4 13
-68 -11z"/>
<path d="M4570 2867 c0 -11 90 -57 113 -57 16 0 5 21 -15 29 -13 5 -40 16 -60
25 -30 13 -38 14 -38 3z"/>
<path d="M2003 2825 c-29 -13 -53 -29 -53 -34 0 -15 2 -14 65 13 30 14 55 30
55 35 0 15 -7 13 -67 -14z"/>
<path d="M4540 2810 c0 -10 91 -60 110 -60 25 0 6 18 -45 43 -62 30 -65 31
-65 17z"/>
<path d="M2028 2764 c-42 -21 -63 -44 -41 -44 14 0 113 55 113 63 0 13 -24 7
-72 -19z"/>
<path d="M4510 2750 c0 -10 91 -60 110 -60 23 0 7 17 -43 43 -57 29 -67 32
-67 17z"/>
<path d="M2075 2713 c-22 -13 -47 -28 -55 -33 -8 -4 -11 -12 -7 -16 8 -8 117
46 117 58 0 16 -18 13 -55 -9z"/>
<path d="M4480 2693 c1 -14 109 -72 116 -62 7 12 10 10 -47 43 -46 26 -69 32
-69 19z"/>
<path d="M2091 2646 c-32 -20 -49 -36 -42 -40 13 -8 102 43 109 62 6 19 -9 14
-67 -22z"/>
<path d="M4447 2643 c-7 -7 85 -73 103 -73 23 0 7 20 -38 49 -52 33 -55 34
-65 24z"/>
<path d="M2132 2593 c-53 -38 -63 -66 -11 -36 50 29 83 59 73 66 -6 3 -33 -10
-62 -30z"/>
<path d="M4410 2590 c0 -10 89 -79 103 -80 19 0 2 22 -42 54 -51 38 -61 42
-61 26z"/>
<path d="M2172 2539 c-63 -48 -59 -73 4 -27 53 38 68 54 57 61 -5 3 -32 -12
-61 -34z"/>
<path d="M4375 2541 c-6 -11 76 -81 94 -81 22 0 10 16 -39 53 -27 20 -52 33
-55 28z"/>
<path d="M2217 2492 c-41 -33 -60 -63 -39 -62 15 1 104 87 95 93 -5 3 -30 -11
-56 -31z"/>
<path d="M4330 2491 c0 -16 92 -91 103 -84 6 4 -10 25 -39 49 -49 44 -64 52
-64 35z"/>
<path d="M2255 2436 c-32 -28 -45 -45 -37 -50 7 -4 31 10 59 37 60 57 41 69
-22 13z"/>
<path d="M4290 2442 c0 -14 86 -93 93 -85 4 4 -12 26 -35 50 -41 41 -58 52
-58 35z"/>
<path d="M2300 2385 c-24 -24 -41 -48 -37 -52 8 -7 97 75 97 89 0 17 -18 6
-60 -37z"/>
<path d="M4246 2402 c-3 -5 13 -31 36 -56 29 -34 44 -44 52 -36 7 7 -3 23 -36
56 -25 26 -48 42 -52 36z"/>
<path d="M2351 2345 c-23 -25 -39 -50 -36 -55 9 -15 10 -14 54 39 53 63 37 76
-18 16z"/>
<path d="M4196 2362 c-7 -12 63 -100 82 -101 20 -1 14 11 -32 63 -25 28 -46
44 -50 38z"/>
<path d="M2401 2301 c-44 -52 -48 -61 -28 -61 17 1 90 97 78 104 -5 3 -28 -16
-50 -43z"/>
<path d="M4147 2323 c-8 -13 72 -115 84 -107 5 3 1 17 -10 32 -47 63 -68 85
-74 75z"/>
<path d="M2451 2258 c-39 -52 -44 -65 -19 -55 20 7 79 95 69 102 -5 3 -28 -18
-50 -47z"/>
<path d="M4097 2283 c-8 -13 63 -114 74 -107 10 6 -11 47 -47 91 -12 15 -23
22 -27 16z"/>
<path d="M2512 2228 c-41 -62 -43 -66 -33 -72 4 -3 25 19 45 49 19 30 31 57
26 60 -5 3 -22 -14 -38 -37z"/>
<path d="M4040 2243 c0 -5 15 -32 34 -62 21 -33 36 -49 40 -42 8 13 -50 111
-65 111 -5 0 -9 -3 -9 -7z"/>
<path d="M2561 2184 c-31 -52 -36 -74 -13 -60 20 12 64 98 55 107 -5 5 -23
-15 -42 -47z"/>
<path d="M3987 2214 c-7 -7 54 -114 65 -114 14 0 9 21 -18 66 -27 46 -38 57
-47 48z"/>
<path d="M2617 2149 c-19 -34 -25 -55 -18 -62 6 -6 20 11 40 52 39 76 19 84
-22 10z"/>
<path d="M3936 2181 c-8 -12 40 -111 54 -111 16 0 12 18 -19 71 -16 28 -32 46
-35 40z"/>
<path d="M2683 2133 c-8 -21 -19 -46 -24 -55 -6 -10 -5 -19 1 -23 9 -5 60 83
60 105 0 24 -22 7 -37 -27z"/>
<path d="M3877 2153 c-3 -5 7 -35 22 -68 17 -38 30 -55 35 -47 4 7 -4 36 -18
67 -25 55 -31 62 -39 48z"/>
<path d="M2760 2148 c0 -3 -11 -31 -25 -61 -15 -34 -21 -59 -14 -62 14 -10 63
105 50 118 -6 6 -11 8 -11 5z"/>
<path d="M3831 2078 c21 -54 35 -75 44 -67 9 9 -40 119 -52 119 -9 0 -7 -15 8
-52z"/>
<path d="M2805 2083 c-23 -54 -29 -83 -17 -83 6 0 20 25 31 55 24 64 24 65 11
65 -5 0 -17 -17 -25 -37z"/>
<path d="M3750 2108 c2 -23 49 -128 54 -120 10 17 -25 122 -41 122 -7 0 -13
-1 -13 -2z"/>
<path d="M2875 2088 c-30 -83 -34 -103 -26 -111 7 -7 12 -5 16 4 20 55 35 103
35 110 0 14 -20 11 -25 -3z"/>
<path d="M3695 2071 c3 -10 11 -38 18 -62 7 -24 17 -43 22 -41 13 3 12 7 -5
70 -8 31 -19 52 -28 52 -8 0 -11 -7 -7 -19z"/>
<path d="M2924 2024 c-11 -38 -13 -59 -6 -66 10 -10 16 4 38 95 12 53 -15 27
-32 -29z"/>
<path d="M2990 2013 c-7 -32 -14 -61 -17 -65 -2 -5 2 -8 11 -8 9 0 18 18 25
50 13 62 14 80 2 80 -5 0 -15 -26 -21 -57z"/>
<path d="M3633 2054 c4 -11 11 -41 18 -67 7 -29 15 -45 21 -39 12 12 -14 114
-31 120 -9 3 -11 -2 -8 -14z"/>
<path d="M3570 2052 c0 -31 25 -122 33 -122 9 0 3 83 -9 115 -6 16 -24 21 -24
7z"/>
<path d="M3054 1998 c-11 -68 -11 -68 1 -70 5 -2 15 25 21 60 9 49 9 62 -1 62
-8 0 -16 -21 -21 -52z"/>
<path d="M3510 2031 c0 -54 14 -111 27 -111 9 0 12 7 10 18 -3 9 -8 38 -12 65
-6 45 -25 67 -25 28z"/>
<path d="M3125 2028 c-11 -37 -15 -107 -6 -113 11 -6 16 10 25 83 4 26 2 42
-4 42 -6 0 -12 -6 -15 -12z"/>
<path d="M3185 1979 c-7 -58 -3 -80 12 -65 4 3 9 33 11 66 6 80 -14 79 -23 -1z"/>
<path d="M3388 2034 c-9 -9 -10 -80 -2 -111 9 -34 24 -17 23 25 -2 52 -13 95
-21 86z"/>
<path d="M3444 2024 c3 -9 6 -38 6 -65 0 -39 3 -49 16 -49 13 0 15 7 10 31 -3
17 -6 47 -6 65 0 25 -4 34 -16 34 -11 0 -14 -5 -10 -16z"/>
<path d="M3250 1965 c0 -37 4 -65 10 -65 6 0 10 19 10 43 0 23 3 52 6 65 5 16
2 22 -10 22 -13 0 -16 -12 -16 -65z"/>
<path d="M3320 1965 c0 -37 4 -65 10 -65 6 0 10 28 10 65 0 37 -4 65 -10 65
-6 0 -10 -28 -10 -65z"/>
<path d="M813 1551 c-94 -35 -167 -103 -211 -200 -23 -47 -27 -70 -27 -146 0
-82 3 -97 32 -156 39 -79 102 -140 181 -177 49 -23 70 -27 152 -27 84 1 102 4
154 29 76 37 135 96 172 172 26 53 29 69 29 159 0 87 -3 107 -27 157 -34 73
-104 143 -176 176 -77 35 -203 41 -279 13z m201 -123 c54 -16 128 -90 144
-144 42 -143 -45 -289 -186 -310 -155 -23 -295 121 -264 273 30 144 164 223
306 181z"/>
<path d="M3639 1554 c-103 -31 -189 -115 -229 -221 -32 -85 -26 -206 14 -287
37 -76 96 -135 172 -172 52 -25 70 -28 154 -29 88 0 101 3 161 32 36 18 74 42
84 53 19 21 18 21 -23 63 l-42 42 -49 -28 c-59 -33 -122 -43 -177 -28 -146 39
-217 206 -146 342 66 127 212 162 334 81 l40 -26 41 44 41 43 -39 33 c-79 69
-222 94 -336 58z"/>
<path d="M4142 1213 l3 -358 60 0 60 0 5 225 5 224 209 -229 c143 -157 216
-231 232 -233 l24 -3 0 360 0 361 -65 0 -65 0 -2 -217 -3 -217 -209 222 c-158
168 -215 222 -233 222 l-23 0 2 -357z"/>
<path d="M5443 1556 c-89 -29 -185 -116 -225 -203 -32 -69 -32 -227 0 -296 30
-67 112 -150 180 -183 51 -25 68 -28 157 -28 109 0 156 15 225 73 l34 28 -28
37 c-15 21 -35 40 -43 43 -8 3 -37 -7 -66 -23 -74 -41 -162 -41 -230 -1 -175
103 -142 377 52 433 66 20 136 8 195 -32 l38 -26 39 38 c21 21 39 43 39 49 0
14 -41 45 -100 76 -56 28 -201 37 -267 15z"/>
<path d="M6143 1550 c-93 -33 -166 -102 -211 -199 -23 -47 -27 -70 -27 -146 0
-82 3 -97 32 -156 39 -79 102 -140 181 -177 49 -23 70 -27 152 -27 84 1 102 4
154 29 76 37 135 96 172 172 26 53 29 69 29 160 0 96 -2 105 -35 170 -41 80
-109 141 -194 173 -73 27 -180 28 -253 1z m201 -122 c54 -16 128 -90 144 -144
42 -143 -45 -289 -186 -310 -155 -23 -295 121 -264 274 29 142 165 222 306
180z"/>
<path d="M5 1547 c-3 -6 -4 -165 -3 -352 l3 -340 59 -3 c41 -2 62 1 67 10 5 7
9 66 9 131 l0 117 78 0 c107 0 146 13 201 68 110 111 87 284 -48 354 -52 27
-58 28 -207 28 -115 0 -156 -3 -159 -13z m326 -145 c45 -51 35 -116 -23 -152
-24 -15 -51 -20 -100 -20 l-68 0 0 106 0 106 81 -4 c77 -3 82 -5 110 -36z"/>
<path d="M1415 1547 c-3 -6 -4 -165 -3 -352 l3 -340 203 -3 202 -2 0 60 0 59
-137 3 -138 3 -3 293 -2 292 -60 0 c-40 0 -62 -4 -65 -13z"/>
<path d="M1962 1208 l3 -353 63 -3 62 -3 0 356 0 355 -65 0 -65 0 2 -352z"/>
<path d="M2224 1546 c-3 -7 -4 -33 -2 -57 l3 -44 87 -3 88 -3 2 -292 3 -292
63 -3 62 -3 0 295 0 295 88 3 87 3 0 55 0 55 -238 3 c-196 2 -238 0 -243 -12z"/>
<path d="M2830 1205 l0 -355 223 2 222 3 0 55 0 55 -157 3 -158 3 0 89 0 89
133 3 132 3 0 55 0 55 -132 3 -133 3 0 84 0 84 158 3 157 3 3 58 3 57 -226 0
-225 0 0 -355z"/>
<path d="M4922 1208 l3 -353 63 -3 62 -3 0 356 0 355 -65 0 -65 0 2 -352z"/>
<path d="M1205 498 c-7 -21 -85 -450 -85 -470 0 -14 8 -18 34 -18 l34 0 22
147 c12 82 26 154 29 161 4 7 34 -56 72 -150 41 -106 70 -164 80 -166 12 -2
31 37 80 162 35 91 66 163 68 160 3 -3 17 -73 31 -157 l25 -152 38 -3 c35 -3
37 -2 32 20 -7 31 -85 460 -85 470 0 4 -8 8 -18 8 -15 0 -34 -39 -93 -184 -41
-101 -76 -182 -79 -180 -2 3 -37 84 -76 182 -68 167 -95 209 -109 170z"/>
<path d="M1777 504 c-4 -4 -7 -117 -7 -251 l0 -244 38 3 37 3 0 245 0 245 -30
3 c-17 2 -34 0 -38 -4z"/>
<path d="M1990 261 l0 -251 140 0 140 0 0 30 0 30 -105 0 -105 0 -2 218 -3
217 -32 3 -33 3 0 -250z"/>
<path d="M2421 266 c-61 -135 -111 -247 -111 -251 0 -3 16 -5 36 -5 33 0 37 3
59 55 l25 55 115 0 116 0 25 -55 c24 -51 28 -55 60 -55 19 0 34 4 34 9 0 24
-219 486 -232 489 -11 2 -46 -66 -127 -242z m173 6 c20 -46 36 -85 36 -87 0
-3 -39 -5 -86 -5 -65 0 -85 3 -81 13 33 81 82 176 87 170 4 -4 24 -45 44 -91z"/>
<path d="M2850 260 l0 -250 35 0 35 0 0 176 c0 100 4 174 9 172 5 -1 75 -82
156 -178 82 -96 155 -175 164 -175 14 0 16 27 16 250 l0 250 -32 3 -33 3 -2
-178 -3 -178 -154 178 c-97 112 -160 177 -172 177 -18 0 -19 -12 -19 -250z"/>
<path d="M3509 482 c-92 -47 -148 -155 -134 -256 21 -159 172 -257 326 -213
112 33 179 124 179 242 0 78 -15 119 -64 173 -78 86 -203 108 -307 54z m200
-56 c36 -19 89 -80 97 -112 4 -14 4 -49 2 -79 -10 -125 -138 -198 -253 -146
-136 61 -150 244 -26 322 52 33 132 40 180 15z"/>
<path d="M5035 488 c-140 -73 -213 -209 -185 -345 29 -140 179 -190 272 -92
81 85 57 215 -48 255 -40 15 -53 16 -91 5 -25 -6 -48 -9 -51 -6 -16 15 75 99
163 150 15 9 16 14 6 33 -14 27 -16 27 -66 0z m33 -253 c39 -32 48 -74 27
-114 -19 -38 -68 -65 -102 -56 -63 15 -105 114 -66 157 39 44 98 49 141 13z"/>
<path d="M4540 489 c-37 -15 -78 -58 -85 -90 -9 -39 11 -94 42 -119 l25 -19
-35 -34 c-61 -57 -62 -133 -2 -186 80 -70 234 -45 271 46 22 50 11 96 -33 139
l-36 37 21 16 c54 41 59 132 10 179 -44 40 -121 54 -178 31z m120 -69 c30 -30
27 -83 -6 -109 -37 -29 -70 -26 -106 9 -24 25 -29 36 -24 58 14 59 94 84 136
42z m-16 -211 c14 -7 31 -25 39 -42 28 -58 -12 -107 -86 -107 -84 1 -113 98
-43 141 36 22 55 24 90 8z"/>
<path d="M5299 480 c-55 -29 -66 -46 -44 -70 17 -19 18 -19 42 0 35 28 77 34
111 16 16 -8 32 -23 36 -31 22 -59 -17 -105 -94 -113 -55 -5 -64 -12 -55 -42
5 -16 15 -20 55 -20 89 0 139 -72 91 -131 -27 -34 -103 -34 -149 0 l-34 24
-20 -20 -20 -20 29 -27 c51 -48 138 -59 210 -27 49 23 73 62 73 122 0 35 -6
48 -38 80 l-39 38 30 29 c38 39 47 103 19 148 -39 61 -133 81 -203 44z"/>
<path d="M4163 444 c-53 -46 -60 -58 -44 -82 7 -12 14 -11 39 2 17 9 34 16 37
16 3 0 4 -71 3 -157 l-3 -158 -57 -3 c-54 -3 -58 -5 -58 -27 l0 -25 140 0 140
0 0 24 c0 23 -5 25 -47 28 l-48 3 -3 213 c-2 212 -2 212 -25 212 -12 0 -46
-21 -74 -46z"/>
</g>
</svg>
