<?xml version="1.0" standalone="no"?>
<!DOCTYPE svg PUBLIC "-//W3C//DTD SVG 20010904//EN"
 "http://www.w3.org/TR/2001/REC-SVG-20010904/DTD/svg10.dtd">
<svg version="1.0" xmlns="http://www.w3.org/2000/svg"
 width="237.000000pt" height="108.000000pt" viewBox="0 0 237.000000 108.000000"
 preserveAspectRatio="xMidYMid meet">

<g transform="translate(0.000000,108.000000) scale(0.100000,-0.100000)"
fill="#000000" stroke="none">
<path d="M668 1003 c18 -2 45 -2 60 0 15 2 0 4 -33 4 -33 0 -45 -2 -27 -4z"/>
<path d="M588 993 c7 -3 16 -2 19 1 4 3 -2 6 -13 5 -11 0 -14 -3 -6 -6z"/>
<path d="M820 981 c30 -10 71 -25 90 -35 27 -13 31 -14 16 -1 -24 18 -120 55
-144 54 -9 0 8 -8 38 -18z"/>
<path d="M530 980 c-18 -12 -2 -12 25 0 13 6 15 9 5 9 -8 0 -22 -4 -30 -9z"/>
<path d="M731 954 c0 -11 3 -14 6 -6 3 7 2 16 -1 19 -3 4 -6 -2 -5 -13z"/>
<path d="M752 950 c0 -14 2 -19 5 -12 2 6 2 18 0 25 -3 6 -5 1 -5 -13z"/>
<path d="M803 947 c1 -10 6 -17 11 -17 5 1 13 -4 17 -12 7 -10 9 -10 9 2 0 8
-5 22 -10 30 -8 12 -10 12 -11 -5 l0 -20 -10 20 c-7 17 -8 17 -6 2z"/>
<path d="M540 942 c0 -6 6 -13 13 -15 8 -4 7 -6 -3 -6 -9 -1 -22 5 -29 12 -10
10 -11 9 -6 -5 7 -19 40 -24 49 -9 3 5 -1 14 -9 21 -9 8 -15 8 -15 2z"/>
<path d="M593 935 c0 -8 4 -12 9 -9 4 3 8 9 8 15 0 5 -4 9 -8 9 -5 0 -9 -7 -9
-15z"/>
<path d="M853 925 c-3 -9 -3 -18 -1 -21 3 -3 8 4 11 16 6 23 -1 27 -10 5z"/>
<path d="M484 922 c-9 -5 -8 -10 1 -19 11 -10 13 -9 12 7 -1 11 -1 20 -2 20 0
0 -5 -4 -11 -8z"/>
<path d="M876 913 c-6 -14 -5 -15 5 -6 7 7 10 15 7 18 -3 3 -9 -2 -12 -12z"/>
<path d="M1001 880 c30 -30 66 -68 78 -85 15 -20 18 -23 11 -7 -16 32 -76 98
-114 124 -17 12 -6 -2 25 -32z"/>
<path d="M363 871 c-26 -27 -56 -64 -66 -83 -17 -31 -17 -32 0 -8 10 14 42 51
72 83 66 70 61 76 -6 8z"/>
<path d="M901 903 c-1 -28 13 -37 29 -18 9 10 9 15 1 15 -6 0 -11 -6 -12 -12
-1 -7 -5 -2 -9 12 -7 23 -8 23 -9 3z"/>
<path d="M457 893 c5 -12 2 -15 -10 -10 -9 3 -17 2 -17 -3 0 -5 11 -9 24 -8
20 2 23 5 15 20 -12 23 -20 24 -12 1z"/>
<path d="M953 869 c-9 -11 -7 -19 12 -37 21 -21 23 -21 36 -4 13 15 12 16 -3
3 -20 -15 -24 -1 -5 18 10 10 9 11 -5 6 -11 -4 -17 -1 -20 11 -2 15 -5 15 -15
3z"/>
<path d="M400 861 c0 -5 5 -13 10 -16 6 -4 8 -11 4 -16 -3 -6 -11 -3 -18 7 -8
11 -15 13 -19 7 -4 -6 0 -16 8 -23 19 -15 44 2 41 27 -3 18 -26 31 -26 14z"/>
<path d="M441 814 c-60 -54 -112 -152 -119 -224 l-5 -50 183 0 c100 0 180 4
178 8 -10 25 -171 303 -178 307 -4 3 -31 -16 -59 -41z m77 -101 c0 -38 -3 -53
-5 -35 -4 28 -8 32 -33 32 -24 0 -29 -5 -33 -27 -2 -16 -5 0 -6 35 l-1 62 40
0 40 0 -2 -67z m-28 -44 c0 -5 -4 -9 -10 -9 -5 0 -10 7 -10 16 0 8 5 12 10 9
6 -3 10 -10 10 -16z m-34 -89 c8 0 14 10 14 25 0 14 5 25 10 25 6 0 10 -11 10
-25 0 -38 28 -32 33 8 4 31 4 31 5 -5 l2 -38 -50 0 -50 0 2 43 1 42 4 -37 c3
-25 9 -38 19 -38z"/>
<path d="M450 748 c0 -24 4 -28 30 -28 26 0 30 4 30 28 0 15 -4 23 -8 17 -4
-5 -14 -10 -22 -10 -8 0 -18 5 -22 10 -4 6 -8 -2 -8 -17z"/>
<path d="M660 833 c0 -19 6 -23 30 -23 25 0 30 4 30 23 0 19 -5 23 -30 22 -24
0 -30 -4 -30 -22z"/>
<path d="M793 702 l-91 -157 181 -3 c99 -1 182 0 184 2 9 9 -20 122 -42 166
-24 47 -89 121 -122 139 -17 8 -29 -8 -110 -147z m147 69 c0 -5 -7 -11 -15
-15 -8 -3 -15 0 -15 7 0 8 -3 8 -9 -2 -7 -11 -9 -11 -14 0 -3 8 -6 2 -6 -13
-1 -23 3 -27 32 -30 l32 -3 -37 -6 -38 -5 0 38 c0 37 1 38 35 38 19 0 35 -4
35 -9z m7 -138 c-2 -16 -4 -5 -4 22 0 28 2 40 4 28 2 -13 2 -35 0 -50z m-79
-14 c-4 -41 18 -58 24 -19 2 12 8 21 13 21 6 0 11 -9 13 -21 4 -22 27 -27 35
-7 3 7 6 5 6 -5 1 -15 -8 -18 -55 -18 -47 0 -55 3 -50 16 3 9 7 37 7 62 1 26
3 39 6 28 3 -10 3 -36 1 -57z m39 49 c-3 -8 -6 -5 -6 6 -1 11 2 17 5 13 3 -3
4 -12 1 -19z"/>
<path d="M1301 779 c6 -84 14 -99 55 -99 34 0 44 20 44 90 0 38 5 71 12 78 9
9 8 12 -7 12 -18 0 -20 -6 -17 -79 3 -66 1 -79 -14 -85 -31 -12 -44 12 -44 84
0 45 4 70 13 73 6 3 -2 6 -18 6 l-30 1 6 -81z"/>
<path d="M2080 845 c0 -2 10 -10 23 -16 20 -11 21 -11 8 4 -13 16 -31 23 -31
12z"/>
<path d="M1009 803 c-13 -16 -12 -17 4 -4 9 7 17 15 17 17 0 8 -8 3 -21 -13z"/>
<path d="M1435 750 c0 -34 4 -60 10 -60 6 0 9 18 7 43 l-3 42 24 -38 c35 -54
35 -54 39 12 2 38 -1 61 -7 61 -7 0 -9 -16 -7 -37 l3 -38 -22 38 c-32 53 -44
47 -44 -23z"/>
<path d="M1538 750 c2 -37 8 -60 15 -60 8 0 11 18 9 56 -5 73 17 70 37 -4 8
-29 17 -52 20 -52 4 0 14 27 23 60 9 33 12 60 8 60 -4 0 -11 -19 -15 -42 l-7
-43 -13 35 c-7 19 -10 38 -8 43 2 4 -13 7 -34 7 l-38 0 3 -60z"/>
<path d="M1675 750 c0 -48 3 -60 16 -60 12 0 14 7 11 30 -4 29 11 42 21 18 3
-7 6 -3 6 9 1 16 -3 21 -14 17 -10 -4 -15 0 -15 15 0 24 10 27 28 9 9 -9 12
-8 12 5 0 13 -9 17 -32 17 l-33 0 0 -60z"/>
<path d="M1768 750 c4 -62 18 -81 24 -32 l4 27 14 -27 c7 -16 19 -28 27 -28
11 0 11 4 -1 28 -10 19 -11 32 -3 43 17 27 1 49 -35 49 l-33 0 3 -60z m47 25
c0 -10 -6 -20 -12 -22 -8 -3 -13 5 -13 22 0 17 5 25 13 23 6 -3 12 -13 12 -23z"/>
<path d="M1867 803 c-14 -13 -6 -38 20 -65 22 -23 24 -31 14 -41 -10 -9 -15
-8 -27 7 -12 18 -14 18 -14 3 0 -23 26 -33 45 -17 22 18 18 43 -10 70 -28 26
-19 54 10 30 12 -10 15 -10 15 4 0 16 -40 23 -53 9z"/>
<path d="M1945 750 c0 -81 22 -81 27 0 2 48 0 60 -12 60 -12 0 -15 -13 -15
-60z"/>
<path d="M1991 793 c0 -11 3 -13 6 -5 12 31 25 8 21 -43 -2 -39 1 -55 10 -55
8 0 12 18 12 58 0 40 3 53 10 42 8 -13 10 -12 10 3 0 13 -8 17 -35 17 -27 0
-35 -4 -34 -17z"/>
<path d="M2092 764 c-7 -26 -10 -49 -7 -52 3 -3 5 0 5 6 0 7 7 12 15 12 8 0
15 -9 15 -20 0 -11 7 -20 14 -20 13 0 13 7 0 53 -21 71 -28 74 -42 21z m15
-16 c-3 -8 -6 -5 -6 6 -1 11 2 17 5 13 3 -3 4 -12 1 -19z"/>
<path d="M337 793 c-4 -3 -2 -12 5 -20 9 -11 7 -15 -10 -19 -27 -8 -33 -25
-16 -49 8 -10 14 -14 14 -9 0 6 -5 15 -12 22 -9 9 -7 13 8 19 10 4 25 12 31
19 10 9 9 14 -5 19 -14 7 -13 9 8 15 22 7 22 8 4 9 -11 1 -24 -2 -27 -6z"/>
<path d="M660 773 c0 -16 -3 -45 -6 -65 -5 -31 -4 -38 10 -38 10 0 16 9 16 25
0 14 5 25 10 25 6 0 10 -11 10 -25 0 -16 6 -25 15 -25 11 0 15 11 15 43 0 70
-8 87 -41 87 -25 0 -29 -4 -29 -27z m40 -8 c0 -8 -4 -15 -10 -15 -5 0 -10 7
-10 15 0 8 5 15 10 15 6 0 10 -7 10 -15z"/>
<path d="M1021 786 c-9 -10 -7 -17 6 -27 16 -13 17 -12 5 3 -11 14 -10 18 5
27 10 6 13 11 7 11 -6 0 -17 -6 -23 -14z"/>
<path d="M256 715 c-9 -26 -7 -32 5 -12 6 10 9 21 6 23 -2 3 -7 -2 -11 -11z"/>
<path d="M1050 716 c0 -21 17 -29 37 -16 15 9 14 10 -6 4 -15 -4 -21 -2 -17 4
3 6 2 13 -4 17 -5 3 -10 -1 -10 -9z"/>
<path d="M1122 715 c0 -5 6 -26 13 -45 7 -19 14 -28 14 -20 0 8 -6 29 -14 45
-7 17 -13 26 -13 20z"/>
<path d="M1726 705 c-3 -8 -1 -15 4 -15 6 0 10 7 10 15 0 8 -2 15 -4 15 -2 0
-6 -7 -10 -15z"/>
<path d="M288 693 c7 -3 16 -2 19 1 4 3 -2 6 -13 5 -11 0 -14 -3 -6 -6z"/>
<path d="M232 630 c0 -14 2 -19 5 -12 2 6 2 18 0 25 -3 6 -5 1 -5 -13z"/>
<path d="M1752 618 c-23 -23 -13 -56 23 -84 25 -18 35 -34 33 -48 -5 -32 -34
-31 -52 1 l-15 28 -1 -32 c0 -30 3 -33 29 -33 67 0 81 62 24 107 -25 21 -34
35 -30 46 9 24 32 21 45 -5 10 -23 11 -23 11 5 1 23 -3 27 -27 27 -15 0 -33
-5 -40 -12z"/>
<path d="M1100 612 c0 -5 7 -9 15 -9 8 0 12 4 9 9 -3 4 -9 8 -15 8 -5 0 -9 -4
-9 -8z"/>
<path d="M1152 600 c0 -14 2 -19 5 -12 2 6 2 18 0 25 -3 6 -5 1 -5 -13z"/>
<path d="M1098 583 c6 -2 18 -2 25 0 6 3 1 5 -13 5 -14 0 -19 -2 -12 -5z"/>
<path d="M223 535 c0 -27 2 -38 4 -22 2 15 2 37 0 50 -2 12 -4 0 -4 -28z"/>
<path d="M1295 517 c0 -61 1 -63 27 -65 35 -3 58 22 58 63 0 40 -22 65 -58 65
-26 0 -27 -1 -27 -63z m59 37 c15 -40 0 -94 -26 -94 -4 0 -8 25 -8 55 0 40 4
55 14 55 8 0 17 -7 20 -16z"/>
<path d="M1496 564 c-9 -8 -16 -31 -16 -49 0 -51 39 -82 68 -53 16 16 15 48
-2 48 -9 0 -12 -7 -9 -19 6 -23 -16 -39 -28 -20 -15 24 -11 89 7 96 9 3 20 0
25 -8 7 -11 9 -11 9 4 0 22 -33 23 -54 1z"/>
<path d="M1575 515 l0 -65 33 0 c26 0 32 4 32 22 0 21 0 21 -14 2 -14 -18 -15
-18 -21 -2 -4 10 -5 38 -3 63 2 35 0 45 -12 45 -12 0 -15 -14 -15 -65z"/>
<path d="M1655 516 c0 -51 3 -64 15 -63 22 1 22 127 0 127 -12 0 -15 -14 -15
-64z"/>
<path d="M1840 563 c0 -7 7 -10 16 -6 15 5 16 -1 12 -49 -3 -41 -1 -55 9 -55
9 0 13 18 13 61 0 43 3 57 10 46 6 -10 10 -11 10 -2 0 6 5 12 10 12 6 0 10
-25 10 -55 0 -42 4 -57 16 -62 31 -12 49 11 52 66 2 28 8 51 13 51 7 0 9 -22
7 -58 -3 -57 -3 -58 24 -60 55 -4 86 58 52 106 -12 17 -25 22 -62 22 l-47 0 3
-55 c3 -44 1 -56 -13 -61 -21 -9 -26 -3 -32 45 -4 26 -1 46 7 56 11 13 5 15
-49 13 -40 -2 -61 -7 -61 -15z m242 -18 c14 -31 0 -80 -22 -80 -10 0 -16 13
-18 39 -6 66 18 90 40 41z"/>
<path d="M2125 517 c0 -44 4 -64 13 -64 8 0 12 20 12 64 0 44 -4 63 -12 63 -9
0 -13 -19 -13 -63z"/>
<path d="M1398 510 l-3 -60 38 0 c31 0 37 3 37 22 0 21 -1 21 -13 3 -18 -24
-39 -11 -37 23 3 48 0 72 -9 72 -5 0 -11 -27 -13 -60z"/>
<path d="M266 551 c-6 -10 24 -25 32 -16 3 3 -1 5 -9 5 -11 0 -11 2 1 10 13 8
13 10 -2 10 -9 0 -19 -4 -22 -9z"/>
<path d="M1092 535 c0 -16 2 -22 5 -12 2 9 2 23 0 30 -3 6 -5 -1 -5 -18z"/>
<path d="M677 498 c-8 -12 -49 -83 -91 -157 -58 -101 -74 -136 -64 -143 30
-19 116 -38 174 -38 65 0 163 26 170 45 4 8 -153 295 -171 313 -2 2 -10 -7
-18 -20z m52 -130 c-1 -29 -3 -45 -6 -35 -3 11 -14 17 -34 17 -25 0 -29 -4
-29 -27 0 -16 -3 -45 -6 -65 -5 -31 -4 -38 10 -38 10 0 16 9 16 25 0 14 5 25
10 25 6 0 10 -11 10 -25 0 -15 6 -25 14 -25 11 0 16 14 19 48 l3 47 2 -52 2
-53 -51 0 -52 0 7 46 c3 26 6 73 6 105 l0 59 40 0 40 0 -1 -52z m-29 -53 c0
-8 -4 -15 -10 -15 -5 0 -10 7 -10 15 0 8 5 15 10 15 6 0 10 -7 10 -15z m-27
-119 c9 0 17 -5 17 -11 0 -6 3 -6 8 1 10 17 80 23 86 7 7 -16 -70 -27 -136
-20 -56 7 -63 11 -53 26 4 7 17 8 33 4 15 -4 35 -7 45 -7z"/>
<path d="M660 383 c0 -19 6 -23 30 -23 25 0 30 4 30 23 0 19 -5 23 -30 22 -24
0 -30 -4 -30 -22z"/>
<path d="M450 478 c0 -24 4 -28 30 -28 26 0 30 4 30 28 0 15 -4 23 -8 17 -4
-5 -14 -10 -22 -10 -8 0 -18 5 -22 10 -4 6 -8 -2 -8 -17z"/>
<path d="M881 478 c-1 -25 3 -28 29 -28 24 0 30 4 30 21 0 15 -5 19 -15 15 -8
-3 -15 0 -15 7 0 8 -3 8 -9 -2 -7 -11 -9 -11 -14 0 -3 8 -6 2 -6 -13z"/>
<path d="M1093 474 c0 -9 5 -10 19 -3 10 5 18 12 18 14 0 2 -8 3 -18 2 -10 0
-19 -7 -19 -13z"/>
<path d="M1152 470 c0 -14 2 -19 5 -12 2 6 2 18 0 25 -3 6 -5 1 -5 -13z"/>
<path d="M232 440 c0 -14 2 -19 5 -12 2 6 2 18 0 25 -3 6 -5 1 -5 -13z"/>
<path d="M268 443 c7 -3 16 -2 19 1 4 3 -2 6 -13 5 -11 0 -14 -3 -6 -6z"/>
<path d="M446 403 c-10 -64 -7 -93 9 -93 9 0 15 9 15 25 0 14 5 25 10 25 6 0
10 -11 10 -25 0 -16 6 -25 15 -25 17 0 18 15 9 84 -6 42 -9 46 -34 46 -24 0
-28 -5 -34 -37z m44 -4 c0 -5 -4 -9 -10 -9 -5 0 -10 7 -10 16 0 8 5 12 10 9 6
-3 10 -10 10 -16z"/>
<path d="M875 428 c-10 -33 -9 -118 2 -118 6 0 13 9 15 20 2 12 8 21 13 21 6
0 11 -9 13 -21 2 -11 10 -20 19 -20 11 0 14 6 9 23 -3 12 -6 41 -6 65 0 40 -1
42 -30 42 -17 0 -32 -6 -35 -12z m32 -30 c-3 -8 -6 -5 -6 6 -1 11 2 17 5 13 3
-3 4 -12 1 -19z"/>
<path d="M1132 393 c-15 -48 -8 -55 8 -8 7 20 10 38 8 41 -3 2 -10 -13 -16
-33z"/>
<path d="M277 395 c3 -8 9 -12 14 -9 12 7 11 11 -5 17 -10 4 -13 1 -9 -8z"/>
<path d="M1067 404 c-3 -3 -3 -12 0 -20 3 -8 0 -14 -7 -14 -7 0 -10 -7 -6 -15
3 -8 0 -15 -7 -15 -7 0 -4 -5 6 -11 24 -14 34 -4 17 16 -10 12 -10 15 4 15 19
0 21 11 4 29 -11 11 -8 12 12 6 19 -5 21 -4 10 4 -17 12 -24 13 -33 5z"/>
<path d="M1639 310 c14 -44 29 -80 33 -80 4 0 16 28 27 63 l19 62 1 -62 c1
-40 -3 -63 -11 -66 -7 -3 5 -5 27 -5 22 0 34 2 28 5 -9 3 -13 30 -13 84 0 71
-2 79 -19 79 -15 0 -22 -12 -31 -50 -7 -27 -15 -48 -20 -45 -4 2 -13 25 -20
50 -9 31 -18 45 -30 45 -16 0 -15 -7 9 -80z"/>
<path d="M250 375 c0 -5 5 -17 10 -25 5 -8 10 -10 10 -5 0 6 -5 17 -10 25 -5
8 -10 11 -10 5z"/>
<path d="M310 350 c-8 -5 -12 -12 -9 -15 4 -3 12 1 19 10 14 17 11 19 -10 5z"/>
<path d="M1305 342 c-5 -4 -10 -33 -10 -65 0 -53 2 -57 23 -57 44 0 62 18 62
60 0 50 -43 86 -75 62z m44 -16 c18 -22 10 -90 -11 -94 -15 -3 -18 5 -18 52 0
57 8 68 29 42z"/>
<path d="M1798 340 c-26 -15 -33 -66 -13 -96 21 -33 55 -28 73 9 14 30 9 58
-14 82 -18 17 -23 18 -46 5z m38 -24 c9 -37 1 -81 -15 -81 -21 0 -34 47 -22
78 13 33 29 35 37 3z"/>
<path d="M2023 343 c-21 -8 -14 -45 14 -75 23 -25 24 -28 9 -34 -11 -4 -22 -1
-27 7 -7 11 -9 11 -9 -3 0 -21 30 -24 48 -6 18 18 14 35 -15 62 -22 21 -25 28
-15 38 10 10 15 10 23 -2 9 -12 10 -12 7 -1 -5 17 -17 22 -35 14z"/>
<path d="M1398 280 l-3 -60 38 0 c31 0 37 3 37 22 0 21 -1 21 -13 3 -8 -10
-19 -15 -25 -11 -17 10 -15 46 3 46 8 0 15 5 15 10 0 6 -6 9 -12 8 -8 -2 -13
7 -12 20 0 12 -5 22 -12 22 -8 0 -13 -21 -16 -60z"/>
<path d="M1445 330 c3 -5 8 -10 11 -10 2 0 4 5 4 10 0 6 -5 10 -11 10 -5 0 -7
-4 -4 -10z"/>
<path d="M1488 280 l-3 -60 33 0 c27 0 32 4 32 23 -1 20 -2 20 -11 5 -20 -34
-31 -19 -27 37 2 37 -1 55 -9 55 -7 0 -13 -23 -15 -60z"/>
<path d="M1885 280 c0 -59 1 -60 28 -60 19 0 27 5 27 18 0 14 -2 15 -10 2 -16
-26 -32 4 -29 54 3 27 0 46 -6 46 -6 0 -10 -26 -10 -60z"/>
<path d="M1965 280 c0 -33 4 -60 10 -60 6 0 10 27 10 60 0 33 -4 60 -10 60 -6
0 -10 -27 -10 -60z"/>
<path d="M2085 280 l0 -60 33 0 c24 0 32 4 31 18 0 10 -3 12 -6 5 -9 -24 -33
-14 -33 13 0 19 4 25 15 20 9 -3 15 0 15 9 0 9 -6 12 -16 8 -14 -5 -16 -1 -12
20 4 20 1 27 -11 27 -13 0 -16 -11 -16 -60z"/>
<path d="M2135 330 c3 -5 8 -10 11 -10 2 0 4 5 4 10 0 6 -5 10 -11 10 -5 0 -7
-4 -4 -10z"/>
<path d="M351 323 c-1 -7 -4 -12 -8 -10 -5 1 -9 -1 -10 -5 -6 -18 -2 -20 13
-7 15 12 16 11 10 -9 -6 -18 -4 -22 16 -22 13 0 18 4 13 8 -6 4 -16 18 -22 32
-6 14 -12 19 -12 13z"/>
<path d="M1035 310 c27 -12 43 -12 25 0 -8 5 -22 9 -30 9 -10 0 -8 -3 5 -9z"/>
<path d="M1610 272 c-4 -46 -3 -52 14 -52 14 0 16 3 8 13 -6 7 -12 30 -14 52
-3 38 -4 38 -8 -13z"/>
<path d="M289 295 c15 -32 73 -102 106 -126 17 -13 6 3 -25 37 -30 32 -63 70
-73 84 -10 15 -14 17 -8 5z"/>
<path d="M1015 290 c-3 -5 -3 -10 2 -10 4 -1 -3 -7 -16 -14 -19 -11 -21 -14
-7 -19 9 -4 16 -2 16 3 0 6 7 10 16 10 13 0 14 3 5 13 -6 8 -8 17 -4 20 3 4 4
7 0 7 -3 0 -9 -4 -12 -10z"/>
<path d="M1064 259 c-15 -22 -48 -59 -74 -81 -26 -24 -32 -32 -14 -20 35 24
97 90 114 121 18 34 5 24 -26 -20z"/>
<path d="M400 249 c0 -6 -9 -9 -20 -6 -11 3 -18 1 -14 -4 3 -5 12 -9 20 -9 8
0 12 -4 9 -10 -9 -14 11 -12 23 3 7 8 6 16 -4 25 -10 9 -14 9 -14 1z"/>
<path d="M960 232 c0 -7 -5 -10 -12 -6 -6 4 -8 3 -4 -4 3 -5 1 -12 -5 -14 -7
-2 -5 -9 5 -17 14 -12 16 -12 9 4 -5 14 -3 17 10 12 19 -7 21 1 7 23 -7 11
-10 11 -10 2z"/>
<path d="M429 202 c-13 -16 -12 -16 5 -2 18 14 18 13 12 -8 -5 -16 -3 -22 7
-22 9 0 17 -5 19 -10 2 -6 9 0 17 12 13 21 13 22 -1 10 -13 -10 -17 -10 -22 3
-3 9 -2 13 4 10 6 -3 10 -4 10 -1 0 3 -9 10 -19 15 -14 8 -22 7 -32 -7z"/>
<path d="M900 193 c-8 -3 -26 -14 -39 -24 -13 -10 -27 -16 -32 -13 -5 3 -6 -2
-2 -11 4 -13 8 -14 14 -4 6 10 10 10 22 0 13 -10 15 -9 10 8 -4 16 1 23 21 31
14 5 26 12 26 15 0 3 -1 5 -2 4 -2 0 -10 -3 -18 -6z"/>
<path d="M496 155 c-3 -9 -2 -14 3 -10 5 3 11 1 13 -4 1 -4 13 -11 24 -15 16
-5 23 -2 27 13 6 24 -21 37 -30 14 -6 -14 -7 -14 -18 1 -11 15 -13 15 -19 1z
m51 -17 c-3 -8 -6 -5 -6 6 -1 11 2 17 5 13 3 -3 4 -12 1 -19z"/>
<path d="M598 143 c7 -6 12 -16 10 -23 -5 -21 19 -22 25 0 3 11 1 20 -3 20 -5
0 -17 3 -27 6 -13 4 -14 3 -5 -3z"/>
<path d="M576 127 c3 -10 9 -15 12 -12 3 3 0 11 -7 18 -10 9 -11 8 -5 -6z"/>
<path d="M750 132 c0 -4 9 -13 20 -20 11 -7 20 -9 20 -4 0 4 -9 13 -20 20 -11
7 -20 9 -20 4z"/>
<path d="M806 125 c-3 -8 -1 -15 4 -15 6 0 10 7 10 15 0 8 -2 15 -4 15 -2 0
-6 -7 -10 -15z"/>
<path d="M905 123 c-16 -9 -55 -24 -85 -34 -30 -10 -47 -18 -38 -18 23 -1 119
35 144 54 25 19 16 18 -21 -2z"/>
<path d="M530 90 c8 -5 22 -9 30 -9 10 0 8 3 -5 9 -27 12 -43 12 -25 0z"/>
<path d="M588 73 c7 -3 16 -2 19 1 4 3 -2 6 -13 5 -11 0 -14 -3 -6 -6z"/>
<path d="M668 63 c18 -2 45 -2 60 0 15 2 0 4 -33 4 -33 0 -45 -2 -27 -4z"/>
</g>
</svg>
