<?xml version="1.0" standalone="no"?>
<!DOCTYPE svg PUBLIC "-//W3C//DTD SVG 20010904//EN"
 "http://www.w3.org/TR/2001/REC-SVG-20010904/DTD/svg10.dtd">
<svg version="1.0" xmlns="http://www.w3.org/2000/svg"
 width="344.000000pt" height="344.000000pt" viewBox="0 0 344.000000 344.000000"
 preserveAspectRatio="xMidYMid meet">

<g transform="translate(0.000000,344.000000) scale(0.100000,-0.100000)"
fill="#000000" stroke="none">
<path d="M1541 3429 c-285 -32 -546 -127 -781 -285 -380 -254 -649 -668 -732
-1123 -29 -164 -29 -438 0 -602 173 -957 1099 -1580 2050 -1379 207 44 412
131 602 257 135 90 340 289 431 418 163 230 263 477 304 750 19 129 19 381 0
510 -112 741 -681 1317 -1425 1441 -110 19 -342 25 -449 13z m424 -24 c373
-56 690 -218 960 -489 648 -652 661 -1687 30 -2363 -254 -272 -586 -450 -960
-513 -114 -19 -154 -22 -325 -17 -212 6 -310 22 -482 78 -421 137 -792 459
-995 863 -57 113 -125 318 -149 451 -29 153 -26 492 4 634 78 357 220 620 471
872 200 200 391 321 646 408 99 35 253 70 360 84 82 11 349 6 440 -8z"/>
<path d="M1648 3393 c39 -2 105 -2 145 0 39 1 7 3 -73 3 -80 0 -112 -2 -72 -3z"/>
<path d="M1503 3383 c9 -2 23 -2 30 0 6 3 -1 5 -18 5 -16 0 -22 -2 -12 -5z"/>
<path d="M1903 3383 c9 -2 25 -2 35 0 9 3 1 5 -18 5 -19 0 -27 -2 -17 -5z"/>
<path d="M1433 3373 c9 -2 23 -2 30 0 6 3 -1 5 -18 5 -16 0 -22 -2 -12 -5z"/>
<path d="M1978 3373 c6 -2 18 -2 25 0 6 3 1 5 -13 5 -14 0 -19 -2 -12 -5z"/>
<path d="M1378 3363 c6 -2 18 -2 25 0 6 3 1 5 -13 5 -14 0 -19 -2 -12 -5z"/>
<path d="M2038 3363 c6 -2 18 -2 25 0 6 3 1 5 -13 5 -14 0 -19 -2 -12 -5z"/>
<path d="M1338 3353 c7 -3 16 -2 19 1 4 3 -2 6 -13 5 -11 0 -14 -3 -6 -6z"/>
<path d="M2088 3353 c7 -3 16 -2 19 1 4 3 -2 6 -13 5 -11 0 -14 -3 -6 -6z"/>
<path d="M1298 3343 c7 -3 16 -2 19 1 4 3 -2 6 -13 5 -11 0 -14 -3 -6 -6z"/>
<path d="M2128 3343 c7 -3 16 -2 19 1 4 3 -2 6 -13 5 -11 0 -14 -3 -6 -6z"/>
<path d="M1258 3333 c7 -3 16 -2 19 1 4 3 -2 6 -13 5 -11 0 -14 -3 -6 -6z"/>
<path d="M2175 3330 c11 -5 27 -9 35 -9 9 0 8 4 -5 9 -11 5 -27 9 -35 9 -9 0
-8 -4 5 -9z"/>
<path d="M1648 3311 c10 -6 13 -33 10 -105 -2 -80 -1 -96 12 -96 12 0 14 10
12 45 -4 40 -2 45 16 45 12 0 29 -14 42 -35 24 -39 56 -65 80 -65 12 1 12 2
-2 11 -10 5 -31 29 -48 53 l-30 44 21 14 c27 17 29 66 3 85 -10 7 -43 13 -73
13 -34 0 -51 -4 -43 -9z m102 -20 c22 -41 -1 -81 -46 -81 -22 0 -24 4 -24 50
0 49 1 50 30 50 19 0 33 -7 40 -19z"/>
<path d="M1871 3304 c7 -8 6 -34 -2 -78 -17 -101 -6 -124 66 -140 29 -6 29 -6
-5 12 l-35 18 1 83 c1 66 5 87 18 96 15 11 12 13 -18 17 -26 3 -33 1 -25 -8z"/>
<path d="M1485 3303 c40 -8 64 -27 80 -58 20 -43 19 -94 -2 -125 l-16 -25 26
24 c73 66 19 194 -80 190 -20 -1 -22 -3 -8 -6z"/>
<path d="M1417 3274 c-29 -29 -42 -72 -32 -106 10 -33 56 -78 79 -78 20 0 20
1 -2 16 -55 38 -69 128 -27 169 13 14 20 25 16 25 -5 0 -20 -12 -34 -26z"/>
<path d="M2300 3290 c8 -5 20 -10 25 -10 6 0 3 5 -5 10 -8 5 -19 10 -25 10 -5
0 -3 -5 5 -10z"/>
<path d="M1090 3280 c-8 -5 -10 -10 -5 -10 6 0 17 5 25 10 8 5 11 10 5 10 -5
0 -17 -5 -25 -10z"/>
<path d="M2028 3261 c7 -48 -17 -139 -41 -156 -12 -8 -17 -15 -11 -15 23 0 45
40 58 107 7 39 16 75 20 82 4 7 0 11 -12 11 -15 0 -18 -6 -14 -29z"/>
<path d="M2350 3270 c8 -5 20 -10 25 -10 6 0 3 5 -5 10 -8 5 -19 10 -25 10 -5
0 -3 -5 5 -10z"/>
<path d="M968 3224 c-49 -24 -88 -46 -88 -49 0 -5 179 82 189 91 15 14 -26 -3
-101 -42z"/>
<path d="M1287 3263 c-13 -3 -16 -10 -12 -21 16 -39 45 -149 45 -170 0 -19 4
-22 28 -16 33 8 41 14 19 14 -10 0 -20 14 -26 38 -6 20 -17 59 -25 86 -11 36
-12 53 -4 63 11 13 7 14 -25 6z"/>
<path d="M2127 3254 c7 -20 -44 -144 -69 -166 -11 -10 -16 -18 -10 -18 6 0 18
-3 28 -7 11 -4 15 -3 11 4 -4 6 5 44 20 85 l28 73 8 -60 c4 -33 10 -75 13 -94
l5 -34 63 62 c34 33 64 61 68 61 8 0 -31 -120 -45 -137 -6 -9 -4 -15 9 -19 11
-4 22 -9 26 -11 3 -1 4 6 1 16 -7 26 45 181 60 182 7 0 4 4 -7 8 -14 5 -33 -8
-84 -61 -76 -79 -75 -79 -87 42 -7 68 -16 89 -37 90 -4 0 -5 -7 -1 -16z"/>
<path d="M2411 3247 c14 -12 182 -97 174 -89 -13 13 -157 92 -169 92 -5 0 -7
-1 -5 -3z"/>
<path d="M1130 3193 c42 -5 68 -27 87 -72 20 -46 8 -88 -30 -112 -18 -10 -26
-19 -18 -19 7 0 28 15 47 34 44 44 47 99 8 145 -23 28 -31 31 -77 29 -41 -1
-44 -2 -17 -5z"/>
<path d="M1041 3171 c-19 -10 -29 -20 -22 -22 15 -5 84 -166 76 -179 -3 -4 8
-3 24 3 28 10 28 11 10 26 -17 15 -85 160 -77 166 2 1 12 7 23 13 34 19 2 12
-34 -7z"/>
<path d="M833 3149 c-35 -22 -46 -37 -15 -20 22 13 58 40 52 41 -3 0 -20 -10
-37 -21z"/>
<path d="M2600 3147 c0 -2 19 -17 43 -32 23 -16 37 -22 30 -14 -12 15 -73 53
-73 46z"/>
<path d="M940 3119 c-14 -11 -19 -18 -13 -14 17 8 93 -110 93 -145 0 -37 -30
-62 -72 -58 -28 3 -39 12 -75 67 -23 36 -40 68 -37 73 8 13 -11 9 -32 -7 -14
-11 -15 -14 -4 -15 8 0 25 -18 37 -39 59 -104 104 -124 162 -75 41 34 40 62
-5 141 -20 35 -33 71 -30 79 7 18 6 18 -24 -7z"/>
<path d="M715 3069 c-88 -65 -296 -275 -353 -357 -24 -34 -41 -62 -39 -62 3 0
26 29 52 65 85 120 228 259 391 382 16 12 27 22 24 22 -3 1 -36 -22 -75 -50z"/>
<path d="M2700 3079 c8 -8 55 -49 104 -90 102 -85 208 -202 286 -315 51 -76
82 -116 65 -84 -85 155 -287 375 -450 490 -18 12 -18 12 -5 -1z"/>
<path d="M1638 3073 c7 -3 16 -2 19 1 4 3 -2 6 -13 5 -11 0 -14 -3 -6 -6z"/>
<path d="M1748 3073 c6 -2 18 -2 25 0 6 3 1 5 -13 5 -14 0 -19 -2 -12 -5z"/>
<path d="M2578 3068 c11 -13 5 -25 -37 -76 -28 -33 -60 -67 -72 -75 l-21 -15
22 -12 c16 -8 20 -9 15 -1 -6 10 85 135 92 127 3 -3 -23 -136 -33 -169 -5 -14
11 -10 76 23 45 23 84 40 86 37 5 -4 -72 -108 -87 -117 -6 -4 0 -14 15 -23 21
-14 24 -14 20 -2 -8 21 87 154 110 155 19 0 19 0 1 14 -16 11 -28 8 -102 -32
-46 -24 -85 -43 -87 -41 -2 2 5 45 15 94 17 90 17 90 -4 110 -11 11 -15 13 -9
3z"/>
<path d="M1580 3060 c-18 -12 -2 -12 25 0 13 6 15 9 5 9 -8 0 -22 -4 -30 -9z"/>
<path d="M1822 3050 c20 -11 54 -37 74 -57 35 -36 36 -36 16 -6 -16 23 -19 33
-10 36 7 3 3 6 -9 6 -13 1 -37 10 -55 21 -18 11 -37 20 -43 20 -5 -1 7 -10 27
-20z"/>
<path d="M1525 3036 c-11 -7 -29 -16 -40 -19 -16 -4 -15 -5 6 -6 14 0 34 -11
45 -22 10 -12 28 -25 39 -29 16 -6 8 -14 -52 -43 -39 -20 -75 -42 -79 -48 -5
-9 -2 -10 12 -5 10 5 27 11 36 13 10 3 15 9 12 15 -13 20 52 -6 69 -28 11 -14
28 -29 39 -35 10 -6 2 8 -20 30 -22 23 -48 41 -58 41 -12 0 0 11 28 27 26 14
45 30 42 34 -2 4 4 12 13 18 24 14 10 14 -22 -1 -22 -10 -29 -8 -50 12 -31 29
-31 34 -2 48 12 6 17 11 12 11 -6 1 -19 -5 -30 -13z"/>
<path d="M1938 3013 c6 -2 18 -2 25 0 6 3 1 5 -13 5 -14 0 -19 -2 -12 -5z"/>
<path d="M1428 3003 c7 -3 16 -2 19 1 4 3 -2 6 -13 5 -11 0 -14 -3 -6 -6z"/>
<path d="M1988 3003 c6 -2 18 -2 25 0 6 3 1 5 -13 5 -14 0 -19 -2 -12 -5z"/>
<path d="M705 2955 c-28 -25 -45 -44 -39 -43 14 4 120 -121 125 -145 4 -17 6
-16 27 6 17 18 19 25 9 24 -9 -1 -43 30 -76 68 l-60 70 27 23 c15 12 32 20 39
18 7 -3 10 1 6 10 -3 7 -6 14 -7 14 -1 0 -24 -20 -51 -45z"/>
<path d="M1388 2993 c7 -3 16 -2 19 1 4 3 -2 6 -13 5 -11 0 -14 -3 -6 -6z"/>
<path d="M2038 2993 c7 -3 16 -2 19 1 4 3 -2 6 -13 5 -11 0 -14 -3 -6 -6z"/>
<path d="M1325 2980 c-13 -5 -14 -9 -5 -9 8 0 24 4 35 9 13 5 14 9 5 9 -8 0
-24 -4 -35 -9z"/>
<path d="M1645 2975 c25 -9 107 -12 94 -4 -8 5 -34 8 -59 8 -25 0 -40 -2 -35
-4z"/>
<path d="M2130 2965 c46 -18 64 -17 25 0 -16 8 -37 14 -45 14 -8 0 1 -7 20
-14z"/>
<path d="M1255 2955 c-25 -12 -26 -14 -5 -9 28 7 60 23 45 23 -5 0 -23 -6 -40
-14z"/>
<path d="M1779 2942 c13 -11 33 -30 43 -43 11 -13 16 -17 12 -9 -12 24 -37 51
-59 62 -15 7 -14 5 4 -10z"/>
<path d="M2200 2940 c8 -5 20 -10 25 -10 6 0 3 5 -5 10 -8 5 -19 10 -25 10 -5
0 -3 -5 5 -10z"/>
<path d="M1128 2899 c-43 -21 -78 -41 -78 -44 0 -5 159 72 169 81 14 13 -25
-2 -91 -37z"/>
<path d="M1840 2910 c6 -11 13 -20 16 -20 2 0 0 9 -6 20 -6 11 -13 20 -16 20
-2 0 0 -9 6 -20z"/>
<path d="M2241 2926 c10 -9 129 -66 129 -61 0 5 -116 65 -126 65 -4 0 -5 -2
-3 -4z"/>
<path d="M625 2890 c-10 -11 -16 -22 -13 -25 3 -3 13 6 22 20 20 30 16 32 -9
5z"/>
<path d="M1951 2894 c0 -11 3 -14 6 -6 3 7 2 16 -1 19 -3 4 -6 -2 -5 -13z"/>
<path d="M1861 2864 c0 -11 3 -14 6 -6 3 7 2 16 -1 19 -3 4 -6 -2 -5 -13z"/>
<path d="M2830 2859 c0 -9 -31 -46 -70 -83 l-70 -68 44 -46 c40 -42 46 -45 67
-34 23 12 23 12 1 6 -16 -4 -30 3 -53 25 -33 33 -31 48 10 85 18 16 23 17 37
5 9 -7 19 -22 23 -32 7 -17 8 -17 26 3 13 15 15 19 4 15 -9 -3 -23 3 -34 15
-18 20 -18 21 11 51 l29 30 28 -31 c15 -17 25 -36 21 -43 -5 -9 -4 -9 6 0 13
12 6 22 -71 108 -6 5 -9 3 -9 -6z"/>
<path d="M1963 2825 c0 -22 2 -30 4 -17 2 12 2 30 0 40 -3 9 -5 -1 -4 -23z"/>
<path d="M2385 2853 c6 -5 41 -31 80 -57 143 -99 274 -235 361 -376 40 -65 60
-84 24 -22 -100 170 -271 341 -445 447 -16 10 -25 14 -20 8z"/>
<path d="M960 2799 c-130 -92 -290 -260 -355 -374 -16 -30 -16 -30 2 -5 138
188 223 277 348 365 77 53 92 65 84 65 -3 0 -39 -23 -79 -51z"/>
<path d="M1370 2830 c0 -5 5 -10 10 -10 6 0 10 5 10 10 0 6 -4 10 -10 10 -5 0
-10 -4 -10 -10z"/>
<path d="M542 2807 c-12 -13 -22 -35 -22 -49 0 -41 21 -51 90 -43 65 8 90 -2
90 -36 0 -26 -43 -52 -72 -44 -18 5 -20 4 -8 -4 24 -17 45 -13 68 12 30 32 29
72 -4 93 -22 15 -32 16 -75 5 -39 -10 -53 -10 -64 -1 -32 27 -10 70 35 70 20
0 22 2 10 10 -21 14 -24 13 -48 -13z"/>
<path d="M1408 2813 c7 -3 16 -2 19 1 4 3 -2 6 -13 5 -11 0 -14 -3 -6 -6z"/>
<path d="M1448 2803 c7 -3 16 -2 19 1 4 3 -2 6 -13 5 -11 0 -14 -3 -6 -6z"/>
<path d="M1678 2798 c27 -13 24 -32 -6 -36 -28 -4 -28 -14 1 -38 l22 -19 -19
23 c-23 26 -16 28 22 6 22 -13 24 -13 8 -1 -10 9 -15 21 -11 27 5 8 15 4 33
-12 26 -22 26 -22 8 0 -15 17 -16 22 -5 22 8 1 -2 9 -21 20 -19 11 -39 19 -45
19 -5 0 0 -5 13 -11z"/>
<path d="M1496 2793 c5 -5 12 -12 16 -18 4 -6 8 -2 8 8 0 9 -7 17 -17 17 -9 0
-12 -3 -7 -7z"/>
<path d="M1836 2774 c-3 -12 -14 -25 -24 -27 -16 -4 -16 -5 0 -6 10 0 22 8 28
19 11 20 11 20 38 -6 44 -42 60 -47 72 -25 5 11 10 26 10 33 -1 7 -6 0 -13
-16 l-12 -29 -33 28 c-17 15 -32 32 -32 39 0 22 -28 14 -34 -10z"/>
<path d="M1538 2783 c7 -3 16 -2 19 1 4 3 -2 6 -13 5 -11 0 -14 -3 -6 -6z"/>
<path d="M1578 2773 c7 -3 16 -2 19 1 4 3 -2 6 -13 5 -11 0 -14 -3 -6 -6z"/>
<path d="M1618 2763 c7 -3 16 -2 19 1 4 3 -2 6 -13 5 -11 0 -14 -3 -6 -6z"/>
<path d="M1760 2740 c7 -24 5 -30 -9 -35 -10 -3 -27 -3 -37 1 -14 4 -13 1 6
-15 14 -11 26 -16 28 -11 6 18 32 -3 32 -25 0 -18 4 -22 19 -18 17 4 20 -1 24
-33 4 -38 4 -38 3 4 -1 23 2 42 6 42 5 0 8 -10 8 -22 0 -12 3 -19 6 -15 3 3 3
20 -1 38 -6 27 -9 29 -17 16 -16 -30 -35 -18 -47 30 -9 34 -9 48 -1 53 8 5 6
9 -5 14 -24 9 -24 9 -15 -24z"/>
<path d="M1540 2745 c0 -8 4 -15 8 -15 5 0 9 7 9 15 0 8 -4 15 -9 15 -4 0 -8
-7 -8 -15z"/>
<path d="M2381 2720 c-12 -22 -20 -40 -18 -40 7 0 48 72 44 76 -2 2 -14 -14
-26 -36z"/>
<path d="M1570 2740 c0 -5 7 -10 16 -10 8 0 12 5 9 10 -3 6 -10 10 -16 10 -5
0 -9 -4 -9 -10z"/>
<path d="M1140 2722 c6 -13 14 -21 18 -18 3 4 -2 14 -12 24 -18 16 -18 16 -6
-6z"/>
<path d="M1506 2714 c-4 -14 -5 -28 -3 -31 3 -2 8 8 11 23 4 14 5 28 3 31 -3
2 -8 -8 -11 -23z"/>
<path d="M2974 2701 c7 -10 -24 -38 -93 -84 -45 -30 -57 -34 -70 -24 -12 10
-13 9 -3 -8 6 -11 17 -29 26 -40 15 -20 15 -20 16 2 0 28 130 119 155 109 13
-4 11 1 -5 24 -19 27 -40 44 -26 21z"/>
<path d="M1117 2669 c-9 -17 -17 -49 -16 -72 1 -40 2 -38 19 28 10 39 17 71
16 72 -1 1 -9 -12 -19 -28z"/>
<path d="M1160 2640 c0 -29 3 -51 6 -48 7 8 8 88 0 95 -3 4 -6 -18 -6 -47z"/>
<path d="M1540 2618 c10 -29 24 -54 32 -56 8 -2 9 0 3 5 -15 12 -37 81 -30 93
3 5 0 10 -9 10 -12 0 -12 -8 4 -52z"/>
<path d="M2335 2640 c-9 -16 -13 -30 -11 -30 3 0 12 14 21 30 9 17 13 30 11
30 -3 0 -12 -13 -21 -30z"/>
<path d="M2400 2615 c0 -48 -17 -92 -44 -114 -12 -10 -16 -10 -16 -2 0 7 -4
10 -9 7 -5 -4 -12 0 -14 6 -4 8 -6 7 -6 -3 -1 -10 9 -19 23 -23 14 -3 26 -12
29 -19 2 -6 3 -4 1 6 -1 10 8 34 22 54 17 26 24 49 24 84 0 27 -2 49 -5 49 -3
0 -5 -20 -5 -45z"/>
<path d="M304 2628 c-4 -7 -14 -24 -22 -38 -14 -24 -13 -24 3 -5 20 24 37 55
31 55 -3 0 -8 -6 -12 -12z"/>
<path d="M3029 2623 c27 -55 6 -109 -53 -137 -46 -22 -59 -20 -98 11 l-33 27
24 -27 c38 -42 83 -52 129 -30 62 30 79 106 36 159 -15 18 -15 18 -5 -3z"/>
<path d="M1630 2579 c-26 -11 -33 -17 -18 -14 19 4 30 0 38 -12 10 -17 10 -16
7 2 -2 12 5 25 18 32 30 18 6 14 -45 -8z"/>
<path d="M1780 2594 c0 -16 50 -80 50 -63 1 9 5 7 13 -6 18 -30 16 -37 -18
-75 -17 -19 -49 -57 -71 -85 -21 -27 -80 -93 -129 -145 -50 -52 -107 -115
-127 -139 l-37 -43 -7 26 -6 26 -22 -32 c-12 -18 -37 -43 -55 -55 -19 -13 -29
-23 -22 -23 6 0 31 18 55 40 31 29 45 36 49 27 3 -8 1 -20 -4 -28 -22 -35 -6
-28 19 9 34 51 203 235 209 228 3 -3 -4 -17 -14 -33 -11 -15 -23 -35 -28 -43
-20 -38 19 15 95 128 45 67 99 137 119 154 l37 31 -25 26 c-14 14 -29 25 -34
23 -4 -1 -16 13 -27 30 -11 18 -20 28 -20 22z"/>
<path d="M1122 2570 c0 -14 2 -19 5 -12 2 6 2 18 0 25 -3 6 -5 1 -5 -13z"/>
<path d="M2351 2574 c0 -11 3 -14 6 -6 3 7 2 16 -1 19 -3 4 -6 -2 -5 -13z"/>
<path d="M354 2558 l-19 -21 28 18 c28 18 33 25 19 25 -5 0 -17 -10 -28 -22z"/>
<path d="M1740 2574 c0 -6 15 -23 33 -40 l32 -29 -30 35 c-16 19 -31 37 -32
39 -2 2 -3 0 -3 -5z"/>
<path d="M1850 2562 c1 -12 25 -37 57 -60 35 -24 43 -27 43 -12 0 6 -7 10 -16
10 -9 0 -31 15 -50 34 -19 19 -34 31 -34 28z"/>
<path d="M3175 2540 c9 -16 18 -30 21 -30 2 0 -2 14 -11 30 -9 17 -18 30 -21
30 -2 0 2 -13 11 -30z"/>
<path d="M219 2479 c-22 -45 -39 -83 -37 -85 2 -2 23 35 46 81 23 47 40 85 37
85 -3 0 -23 -36 -46 -81z"/>
<path d="M1091 2534 c0 -11 3 -14 6 -6 3 7 2 16 -1 19 -3 4 -6 -2 -5 -13z"/>
<path d="M1182 2515 c0 -16 2 -22 5 -12 2 9 2 23 0 30 -3 6 -5 -1 -5 -18z"/>
<path d="M330 2514 c0 -5 7 -20 16 -32 18 -26 53 -28 95 -6 40 20 71 15 86
-16 12 -24 13 -25 13 -2 0 25 -33 62 -55 62 -9 0 -28 -6 -43 -14 -54 -27 -69
-28 -91 -5 -12 13 -21 18 -21 13z"/>
<path d="M839 2513 c19 -4 21 -7 10 -14 -11 -7 -11 -9 3 -9 9 0 22 -8 27 -17
9 -15 10 -16 11 -2 0 22 -32 49 -56 48 -14 -1 -13 -3 5 -6z"/>
<path d="M1661 2503 c0 -12 -9 -27 -18 -32 -10 -6 -13 -11 -7 -11 18 0 36 27
31 47 -4 14 -5 14 -6 -4z"/>
<path d="M792 2498 c-19 -19 -14 -63 11 -86 13 -12 27 -22 31 -22 5 0 -3 9
-18 21 -28 22 -35 66 -14 87 7 7 10 12 7 12 -3 0 -10 -5 -17 -12z"/>
<path d="M1826 2493 c-6 -14 -9 -15 -15 -4 -6 9 -10 8 -13 -7 -5 -18 -3 -19
18 -10 13 6 24 17 24 25 0 18 -7 16 -14 -4z"/>
<path d="M1968 2493 c7 -3 16 -2 19 1 4 3 -2 6 -13 5 -11 0 -14 -3 -6 -6z"/>
<path d="M3110 2488 c0 -19 -146 -102 -166 -94 -10 4 -11 0 -2 -18 l10 -24 43
29 c23 16 65 39 93 52 48 22 49 24 36 48 -9 17 -13 19 -14 7z"/>
<path d="M1864 2441 c-22 -25 -53 -64 -68 -86 l-28 -40 28 35 c16 19 50 57 76
84 27 27 48 50 48 52 0 12 -20 -4 -56 -45z"/>
<path d="M2029 2479 c40 -16 54 -31 39 -40 -10 -7 -9 -9 4 -9 9 0 19 -6 21
-12 4 -10 6 -10 6 0 1 20 -55 72 -76 71 -14 0 -12 -3 6 -10z"/>
<path d="M2297 2457 c4 -6 7 -21 5 -32 l-2 -20 9 20 c13 28 13 32 -5 39 -10 4
-13 2 -7 -7z"/>
<path d="M829 2448 c10 -14 28 -18 74 -18 33 0 58 3 55 6 -3 3 -30 5 -59 5
-30 1 -61 6 -69 12 -13 10 -13 10 -1 -5z"/>
<path d="M1070 2449 c-23 -4 -7 -7 50 -8 59 -1 80 -4 70 -11 -9 -6 -10 -10 -3
-10 16 0 26 17 13 25 -14 9 -89 11 -130 4z"/>
<path d="M1498 2408 c-29 -28 -43 -46 -31 -40 12 7 37 13 55 13 l33 1 -30 7
-30 7 28 26 c16 15 38 29 50 31 l22 4 -22 2 c-13 0 -41 -18 -75 -51z"/>
<path d="M1725 2434 c-27 -13 -59 -24 -70 -24 -15 0 -17 -2 -6 -9 9 -6 1 -13
-30 -24 -24 -8 -37 -16 -29 -16 18 -1 145 59 175 83 27 21 19 19 -40 -10z"/>
<path d="M2003 2435 c-18 -8 -33 -17 -33 -20 0 -3 5 -3 11 1 8 4 9 -1 5 -17
l-7 -24 14 24 c8 13 25 30 38 37 32 18 13 17 -28 -1z"/>
<path d="M510 2416 c-6 -8 -21 -17 -33 -19 -18 -4 -17 -5 5 -6 18 -1 31 6 38
19 12 23 8 26 -10 6z"/>
<path d="M2321 2414 c0 -11 3 -14 6 -6 3 7 2 16 -1 19 -3 4 -6 -2 -5 -13z"/>
<path d="M3241 2415 c0 -5 6 -21 14 -35 8 -14 14 -20 14 -15 0 6 -6 21 -14 35
-8 14 -14 21 -14 15z"/>
<path d="M1155 2397 c-20 -12 -20 -12 -1 -31 18 -18 19 -18 13 -1 -4 9 -2 24
4 31 13 16 11 16 -16 1z"/>
<path d="M1877 2375 c-24 -50 -20 -58 4 -12 11 22 19 41 17 43 -3 2 -12 -12
-21 -31z"/>
<path d="M906 2391 c-3 -4 -18 -7 -33 -4 -27 3 -27 3 -5 -7 18 -7 29 -6 45 5
12 8 16 15 10 15 -7 0 -14 -4 -17 -9z"/>
<path d="M1593 2393 c9 -2 23 -2 30 0 6 3 -1 5 -18 5 -16 0 -22 -2 -12 -5z"/>
<path d="M2104 2310 c0 -52 1 -74 3 -47 2 26 2 68 0 95 -2 26 -3 4 -3 -48z"/>
<path d="M2291 2384 c0 -11 3 -14 6 -6 3 7 2 16 -1 19 -3 4 -6 -2 -5 -13z"/>
<path d="M539 2309 c-22 -45 -39 -83 -37 -85 2 -2 23 35 46 81 23 47 40 85 37
85 -3 0 -23 -36 -46 -81z"/>
<path d="M1013 2383 c15 -2 37 -2 50 0 12 2 0 4 -28 4 -27 0 -38 -2 -22 -4z"/>
<path d="M2311 2374 c0 -11 3 -14 6 -6 3 7 2 16 -1 19 -3 4 -6 -2 -5 -13z"/>
<path d="M3064 2361 c-36 -16 -64 -60 -63 -100 1 -36 1 -36 9 -7 16 52 75 96
130 96 33 0 70 -44 70 -83 0 -79 -132 -131 -179 -71 -12 15 -21 22 -21 17 0
-6 12 -22 26 -37 22 -21 36 -26 76 -26 41 0 54 5 79 29 63 64 23 177 -66 186
-22 3 -50 1 -61 -4z"/>
<path d="M156 2345 c-9 -26 -7 -32 5 -12 6 10 9 21 6 23 -2 3 -7 -2 -11 -11z"/>
<path d="M250 2352 c0 -3 36 -42 79 -87 79 -80 80 -81 91 -56 9 20 9 23 -3 13
-11 -9 -19 -6 -40 16 -24 25 -25 29 -12 60 14 31 16 32 56 26 38 -6 58 3 59
26 0 3 -52 6 -115 6 -63 1 -115 -1 -115 -4z m108 -28 c7 -5 -9 -44 -17 -44
-12 0 -61 40 -61 50 0 7 69 2 78 -6z"/>
<path d="M1528 2353 c6 -2 18 -2 25 0 6 3 1 5 -13 5 -14 0 -19 -2 -12 -5z"/>
<path d="M1974 2235 c0 -71 1 -99 3 -62 2 37 2 96 0 130 -2 34 -3 4 -3 -68z"/>
<path d="M1424 2328 c-19 -23 -19 -23 1 -6 11 9 31 18 45 21 l25 4 -26 2 c-16
0 -33 -8 -45 -21z"/>
<path d="M1941 2334 c0 -11 3 -14 6 -6 3 7 2 16 -1 19 -3 4 -6 -2 -5 -13z"/>
<path d="M2301 2334 c0 -11 3 -14 6 -6 3 7 2 16 -1 19 -3 4 -6 -2 -5 -13z"/>
<path d="M3270 2345 c0 -5 5 -17 10 -25 5 -8 10 -10 10 -5 0 6 -5 17 -10 25
-5 8 -10 11 -10 5z"/>
<path d="M1013 2333 c9 -2 25 -2 35 0 9 3 1 5 -18 5 -19 0 -27 -2 -17 -5z"/>
<path d="M1187 2315 c12 -16 47 -55 78 -85 32 -30 70 -75 86 -99 16 -25 29
-41 29 -35 0 5 -7 20 -16 33 -16 22 -16 26 0 55 l18 31 -21 -25 -21 -25 -87
90 c-48 50 -78 77 -66 60z"/>
<path d="M1099 2306 c14 -15 26 -26 28 -26 9 0 -24 40 -37 45 -8 4 -4 -5 9
-19z"/>
<path d="M2271 2314 c0 -11 3 -14 6 -6 3 7 2 16 -1 19 -3 4 -6 -2 -5 -13z"/>
<path d="M1846 2305 c-9 -26 -7 -32 5 -12 6 10 9 21 6 23 -2 3 -7 -2 -11 -11z"/>
<path d="M1754 2298 c-4 -7 -14 -24 -22 -38 -14 -24 -13 -24 3 -5 20 24 37 55
31 55 -3 0 -8 -6 -12 -12z"/>
<path d="M1486 2255 c-26 -31 -41 -42 -53 -38 -15 6 -16 5 -3 -9 8 -9 18 -13
21 -10 30 35 80 102 76 102 -2 0 -21 -20 -41 -45z"/>
<path d="M1932 2280 c0 -14 2 -19 5 -12 2 6 2 18 0 25 -3 6 -5 1 -5 -13z"/>
<path d="M2261 2274 c0 -11 3 -14 6 -6 3 7 2 16 -1 19 -3 4 -6 -2 -5 -13z"/>
<path d="M2281 2264 c0 -11 3 -14 6 -6 3 7 2 16 -1 19 -3 4 -6 -2 -5 -13z"/>
<path d="M1145 2240 c9 -16 18 -30 21 -30 2 0 -2 14 -11 30 -9 17 -18 30 -21
30 -2 0 2 -13 11 -30z"/>
<path d="M2911 2265 c0 -5 6 -21 14 -35 8 -14 14 -20 14 -15 0 6 -6 21 -14 35
-8 14 -14 21 -14 15z"/>
<path d="M200 2238 c0 -18 2 -19 18 -7 9 7 18 14 20 15 1 1 -6 4 -18 7 -15 4
-20 0 -20 -15z"/>
<path d="M1380 2237 c0 -10 8 -17 18 -17 9 0 13 4 7 8 -5 4 -13 11 -17 16 -5
5 -8 2 -8 -7z"/>
<path d="M1821 2224 c0 -11 3 -14 6 -6 3 7 2 16 -1 19 -3 4 -6 -2 -5 -13z"/>
<path d="M2271 2224 c0 -11 3 -14 6 -6 3 7 2 16 -1 19 -3 4 -6 -2 -5 -13z"/>
<path d="M1700 2210 c-6 -11 -8 -20 -6 -20 3 0 10 9 16 20 6 11 8 20 6 20 -3
0 -10 -9 -16 -20z"/>
<path d="M1922 2200 c0 -19 2 -27 5 -17 2 9 2 25 0 35 -3 9 -5 1 -5 -18z"/>
<path d="M2241 2204 c0 -11 3 -14 6 -6 3 7 2 16 -1 19 -3 4 -6 -2 -5 -13z"/>
<path d="M481 2179 c-6 -18 -9 -34 -7 -36 2 -2 9 10 15 28 6 18 9 34 7 36 -2
2 -9 -10 -15 -28z"/>
<path d="M3321 2200 c0 -8 4 -24 9 -35 5 -13 9 -14 9 -5 0 8 -4 24 -9 35 -5
13 -9 14 -9 5z"/>
<path d="M2261 2184 c0 -11 3 -14 6 -6 3 7 2 16 -1 19 -3 4 -6 -2 -5 -13z"/>
<path d="M2946 2180 c3 -14 11 -32 16 -40 6 -10 7 -7 2 10 -3 14 -11 32 -16
40 -6 10 -7 7 -2 -10z"/>
<path d="M101 2174 c0 -11 3 -14 6 -6 3 7 2 16 -1 19 -3 4 -6 -2 -5 -13z"/>
<path d="M2092 2165 c0 -16 2 -22 5 -12 2 9 2 23 0 30 -3 6 -5 -1 -5 -18z"/>
<path d="M2600 2175 c-11 -13 -10 -15 4 -9 11 4 16 1 17 -12 0 -11 3 -14 5 -7
3 7 1 19 -4 28 -8 15 -10 15 -22 0z"/>
<path d="M1433 2140 c0 -25 2 -35 4 -22 2 12 2 32 0 45 -2 12 -4 2 -4 -23z"/>
<path d="M1670 2160 c-6 -11 -8 -20 -6 -20 3 0 10 9 16 20 6 11 8 20 6 20 -3
0 -10 -9 -16 -20z"/>
<path d="M2231 2164 c0 -11 3 -14 6 -6 3 7 2 16 -1 19 -3 4 -6 -2 -5 -13z"/>
<path d="M177 2148 c-4 -12 -4 -24 -2 -27 3 -2 5 1 5 7 0 7 7 12 16 12 34 0
159 -42 172 -58 11 -15 12 -15 12 0 0 9 3 24 6 32 4 12 2 15 -9 10 -8 -3 -48
4 -89 16 -40 12 -80 23 -89 26 -11 3 -19 -3 -22 -18z"/>
<path d="M1210 2120 c11 -22 23 -40 25 -40 3 0 -4 18 -15 40 -11 22 -23 40
-25 40 -3 0 4 -18 15 -40z"/>
<path d="M1591 2108 c-18 -28 -26 -47 -19 -40 14 11 62 92 55 92 -2 0 -19 -23
-36 -52z"/>
<path d="M1801 2144 c0 -11 3 -14 6 -6 3 7 2 16 -1 19 -3 4 -6 -2 -5 -13z"/>
<path d="M91 2134 c0 -11 3 -14 6 -6 3 7 2 16 -1 19 -3 4 -6 -2 -5 -13z"/>
<path d="M2582 2128 c-1 -14 1 -34 4 -43 6 -14 8 -14 25 1 11 9 19 24 18 33 0
10 -3 8 -9 -6 -13 -33 -28 -28 -33 10 -3 27 -4 28 -5 5z"/>
<path d="M2221 2124 c0 -11 3 -14 6 -6 3 7 2 16 -1 19 -3 4 -6 -2 -5 -13z"/>
<path d="M3341 2124 c0 -11 3 -14 6 -6 3 7 2 16 -1 19 -3 4 -6 -2 -5 -13z"/>
<path d="M456 2104 c-4 -14 -5 -28 -3 -31 3 -2 8 8 11 23 4 14 5 28 3 31 -3 2
-8 -8 -11 -23z"/>
<path d="M1635 2100 c-9 -16 -13 -30 -11 -30 3 0 12 14 21 30 9 17 13 30 11
30 -3 0 -12 -13 -21 -30z"/>
<path d="M1913 2065 c0 -38 2 -53 4 -32 2 20 2 52 0 70 -2 17 -4 1 -4 -38z"/>
<path d="M2082 2105 c0 -16 2 -22 5 -12 2 9 2 23 0 30 -3 6 -5 -1 -5 -18z"/>
<path d="M2241 2114 c0 -11 3 -14 6 -6 3 7 2 16 -1 19 -3 4 -6 -2 -5 -13z"/>
<path d="M3250 2120 c-28 -15 -169 -42 -181 -34 -9 5 -10 0 -6 -17 4 -13 7
-33 8 -44 1 -16 2 -15 8 5 6 22 17 27 95 45 76 16 89 17 97 5 7 -11 8 -6 3 15
-8 37 -6 35 -24 25z"/>
<path d="M1792 2100 c0 -14 2 -19 5 -12 2 6 2 18 0 25 -3 6 -5 1 -5 -13z"/>
<path d="M2971 2110 c0 -8 4 -24 9 -35 5 -13 9 -14 9 -5 0 8 -4 24 -9 35 -5
13 -9 14 -9 5z"/>
<path d="M81 2094 c0 -11 3 -14 6 -6 3 7 2 16 -1 19 -3 4 -6 -2 -5 -13z"/>
<path d="M158 2094 c-4 -15 1 -25 16 -34 18 -11 19 -11 10 1 -7 8 -14 23 -16
34 -4 19 -4 19 -10 -1z"/>
<path d="M2537 2094 c-3 -5 1 -15 9 -22 16 -14 18 -5 5 17 -5 7 -11 9 -14 5z"/>
<path d="M3352 2080 c0 -14 2 -19 5 -12 2 6 2 18 0 25 -3 6 -5 1 -5 -13z"/>
<path d="M2231 2074 c0 -11 3 -14 6 -6 3 7 2 16 -1 19 -3 4 -6 -2 -5 -13z"/>
<path d="M72 2050 c0 -14 2 -19 5 -12 2 6 2 18 0 25 -3 6 -5 1 -5 -13z"/>
<path d="M1270 2035 c19 -19 36 -35 39 -35 3 0 -10 16 -29 35 -19 19 -36 35
-39 35 -3 0 10 -16 29 -35z"/>
<path d="M1795 2047 c11 -14 24 -27 28 -27 4 0 22 -15 39 -32 24 -27 27 -28
14 -7 -9 14 -35 41 -58 60 -39 30 -40 31 -23 6z"/>
<path d="M1983 2035 c0 -22 2 -30 4 -17 2 12 2 30 0 40 -3 9 -5 -1 -4 -23z"/>
<path d="M2201 2054 c0 -11 3 -14 6 -6 3 7 2 16 -1 19 -3 4 -6 -2 -5 -13z"/>
<path d="M441 2044 c0 -11 3 -14 6 -6 3 7 2 16 -1 19 -3 4 -6 -2 -5 -13z"/>
<path d="M2073 2020 c0 -25 2 -35 4 -22 2 12 2 32 0 45 -2 12 -4 2 -4 -23z"/>
<path d="M2580 2043 c0 -15 -2 -16 -10 -3 -8 12 -10 10 -10 -10 -1 -24 -1 -24
-15 -6 -8 11 -15 16 -15 11 0 -5 7 -16 16 -26 14 -16 14 -20 -2 -51 l-18 -33
-8 25 c-7 25 -8 25 -4 -2 2 -16 0 -28 -5 -28 -4 0 -11 -10 -15 -22 -7 -22 -7
-22 -15 -3 -7 18 -8 17 -8 -6 -1 -27 -61 -94 -61 -68 -1 8 -8 2 -16 -13 -8
-16 -20 -28 -26 -28 -7 0 -21 -9 -32 -19 -12 -11 -28 -21 -35 -23 -8 -2 -26
-16 -40 -32 -23 -26 -25 -27 -33 -10 -7 16 -8 16 -4 -3 3 -17 -6 -31 -35 -54
-21 -17 -39 -27 -39 -23 0 5 -7 -2 -16 -14 -21 -30 -32 -28 -43 11 -5 17 -10
24 -10 13 -1 -16 -3 -17 -18 -5 -17 13 -17 13 -3 -5 8 -11 14 -29 13 -40 -1
-16 0 -16 3 -3 3 9 9 15 14 12 9 -5 8 -12 -6 -52 -6 -16 -7 -16 -14 2 -8 20
-9 20 -9 -1 -1 -11 8 -29 19 -39 19 -17 27 -45 14 -45 -4 0 -28 17 -53 37 -26
21 -37 26 -24 12 22 -24 22 -26 8 -94 -17 -79 -18 -88 -4 -60 7 15 8 8 5 -25
-4 -30 -2 -38 3 -25 8 18 9 18 16 -7 4 -16 12 -28 17 -28 6 0 7 10 2 28 -5 15
-9 50 -9 79 0 28 -3 46 -7 40 -5 -8 -8 -4 -8 8 0 11 5 27 10 35 8 12 10 12 11
-5 0 -11 3 -15 5 -9 3 7 14 9 26 7 18 -5 20 -2 17 38 -5 54 14 64 22 12 6 -38
6 -38 8 -5 l1 32 59 0 c48 0 60 -3 64 -17 4 -14 5 -12 6 5 1 21 -3 22 -71 24
l-73 1 55 7 55 7 -58 1 c-70 2 -72 16 -7 50 26 13 36 22 25 22 -18 0 -18 0 1
15 10 8 39 15 64 16 l45 2 -40 6 -40 6 25 18 c14 10 45 18 75 19 l50 1 -45 6
-45 7 28 14 c15 7 27 16 27 20 0 12 50 30 88 32 l37 1 -33 4 -32 4 51 42 c28
23 60 47 71 53 12 7 15 13 8 16 -21 7 29 58 58 59 24 2 25 2 4 6 -16 3 -21 10
-18 21 13 43 18 72 12 72 -3 0 -6 -8 -6 -17z m-480 -543 c0 -5 -2 -10 -4 -10
-3 0 -8 5 -11 10 -3 6 -1 10 4 10 6 0 11 -4 11 -10z"/>
<path d="M1530 2020 c-12 -16 -19 -30 -16 -30 2 0 14 14 26 30 12 17 19 30 16
30 -2 0 -14 -13 -26 -30z"/>
<path d="M2991 2034 c0 -11 3 -14 6 -6 3 7 2 16 -1 19 -3 4 -6 -2 -5 -13z"/>
<path d="M3362 2030 c0 -14 2 -19 5 -12 2 6 2 18 0 25 -3 6 -5 1 -5 -13z"/>
<path d="M2191 2014 c0 -11 3 -14 6 -6 3 7 2 16 -1 19 -3 4 -6 -2 -5 -13z"/>
<path d="M2656 2016 c3 -8 -5 -21 -18 -30 -12 -9 -18 -16 -12 -16 14 0 44 33
44 48 0 7 -4 12 -10 12 -5 0 -7 -6 -4 -14z"/>
<path d="M62 1995 c0 -16 2 -22 5 -12 2 9 2 23 0 30 -3 6 -5 -1 -5 -18z"/>
<path d="M431 2004 c0 -11 3 -14 6 -6 3 7 2 16 -1 19 -3 4 -6 -2 -5 -13z"/>
<path d="M2211 2004 c0 -11 3 -14 6 -6 3 7 2 16 -1 19 -3 4 -6 -2 -5 -13z"/>
<path d="M2476 1998 c-9 -12 -15 -36 -15 -53 1 -29 1 -29 8 5 10 52 22 69 32
44 6 -16 8 -16 8 -2 1 27 -16 30 -33 6z"/>
<path d="M2596 2011 c-4 -5 3 -7 14 -4 23 6 26 13 6 13 -8 0 -17 -4 -20 -9z"/>
<path d="M140 1986 c0 -15 4 -24 10 -21 15 9 183 -23 192 -37 5 -9 8 -4 8 12
0 25 -3 26 -92 38 -50 7 -98 18 -105 24 -10 8 -13 5 -13 -16z"/>
<path d="M1801 1994 c0 -11 3 -14 6 -6 3 7 2 16 -1 19 -3 4 -6 -2 -5 -13z"/>
<path d="M3002 1990 c0 -14 2 -19 5 -12 2 6 2 18 0 25 -3 6 -5 1 -5 -13z"/>
<path d="M3081 1993 c-2 -25 12 -43 33 -42 20 0 20 1 2 8 -11 4 -23 16 -27 27
-4 10 -8 14 -8 7z"/>
<path d="M2181 1974 c0 -11 3 -14 6 -6 3 7 2 16 -1 19 -3 4 -6 -2 -5 -13z"/>
<path d="M3372 1970 c0 -14 2 -19 5 -12 2 6 2 18 0 25 -3 6 -5 1 -5 -13z"/>
<path d="M1470 1938 c-34 -42 -34 -42 -42 -18 -7 23 -7 23 -4 -4 2 -18 -5 -41
-20 -64 -13 -19 -24 -40 -24 -46 1 -6 8 3 17 19 9 17 32 50 52 75 55 68 64 80
59 80 -3 0 -20 -19 -38 -42z"/>
<path d="M2201 1964 c0 -11 3 -14 6 -6 3 7 2 16 -1 19 -3 4 -6 -2 -5 -13z"/>
<path d="M421 1954 c0 -11 3 -14 6 -6 3 7 2 16 -1 19 -3 4 -6 -2 -5 -13z"/>
<path d="M1894 1943 c-3 -16 -7 -33 -9 -39 -2 -6 3 -11 11 -11 10 0 14 12 14
39 0 45 -7 49 -16 11z"/>
<path d="M1791 1944 c0 -11 3 -14 6 -6 3 7 2 16 -1 19 -3 4 -6 -2 -5 -13z"/>
<path d="M3012 1935 c0 -16 2 -22 5 -12 2 9 2 23 0 30 -3 6 -5 -1 -5 -18z"/>
<path d="M52 1920 c0 -19 2 -27 5 -17 2 9 2 25 0 35 -3 9 -5 1 -5 -18z"/>
<path d="M1994 1855 c0 -55 1 -76 3 -47 2 29 2 74 0 100 -2 26 -3 2 -3 -53z"/>
<path d="M2083 1905 c0 -27 2 -38 4 -22 2 15 2 37 0 50 -2 12 -4 0 -4 -28z"/>
<path d="M1490 1810 c-36 -71 -62 -126 -57 -123 10 6 129 244 125 248 -2 2
-33 -54 -68 -125z"/>
<path d="M2191 1924 c0 -11 3 -14 6 -6 3 7 2 16 -1 19 -3 4 -6 -2 -5 -13z"/>
<path d="M2379 1901 c-16 -16 -29 -38 -29 -48 0 -11 6 -5 18 16 23 47 40 50
45 9 3 -29 4 -28 5 10 1 23 -1 42 -4 42 -3 0 -19 -13 -35 -29z"/>
<path d="M412 1890 c0 -19 2 -27 5 -17 2 9 2 25 0 35 -3 9 -5 1 -5 -18z"/>
<path d="M2161 1904 c0 -11 3 -14 6 -6 3 7 2 16 -1 19 -3 4 -6 -2 -5 -13z"/>
<path d="M3383 1885 c0 -22 2 -30 4 -17 2 12 2 30 0 40 -3 9 -5 -1 -4 -23z"/>
<path d="M1781 1894 c0 -11 3 -14 6 -6 3 7 2 16 -1 19 -3 4 -6 -2 -5 -13z"/>
<path d="M2573 1903 c17 -4 17 -7 -5 -31 l-23 -27 28 24 c33 30 34 41 5 40
-19 -1 -20 -2 -5 -6z"/>
<path d="M3100 1886 c0 -6 14 -12 32 -12 17 -1 37 -9 44 -18 7 -10 15 -13 18
-8 3 6 16 8 29 6 32 -6 10 3 -60 25 -43 13 -63 15 -63 7z"/>
<path d="M123 1875 c-8 -23 0 -24 20 -3 14 15 15 18 2 18 -9 0 -18 -7 -22 -15z"/>
<path d="M217 1845 c-44 -49 -57 -53 -81 -29 -9 8 -16 11 -16 6 0 -5 9 -17 20
-27 27 -24 63 -13 95 29 14 19 33 37 41 40 23 9 54 -12 54 -37 0 -27 -9 -40
-35 -55 -20 -11 -19 -11 2 -12 43 0 58 75 23 110 -31 31 -59 25 -103 -25z"/>
<path d="M3022 1860 c0 -19 2 -27 5 -17 2 9 2 25 0 35 -3 9 -5 1 -5 -18z"/>
<path d="M1836 1840 c-20 -22 -36 -46 -36 -53 1 -6 7 -1 14 12 13 23 14 23 19
5 4 -15 5 -15 6 5 0 14 11 35 23 48 12 13 19 23 16 23 -3 0 -22 -18 -42 -40z"/>
<path d="M2151 1864 c0 -11 3 -14 6 -6 3 7 2 16 -1 19 -3 4 -6 -2 -5 -13z"/>
<path d="M1772 1850 c0 -14 2 -19 5 -12 2 6 2 18 0 25 -3 6 -5 1 -5 -13z"/>
<path d="M44 1720 c0 -80 2 -112 3 -72 2 39 2 105 0 145 -1 39 -3 7 -3 -73z"/>
<path d="M1892 1830 c0 -19 2 -27 5 -17 2 9 2 25 0 35 -3 9 -5 1 -5 -18z"/>
<path d="M2260 1812 c-22 -22 -40 -45 -40 -53 0 -8 9 0 20 18 23 38 56 59 63
40 3 -6 6 -2 6 11 1 12 -1 22 -4 22 -2 0 -22 -17 -45 -38z"/>
<path d="M3265 1825 c-37 -24 -63 -27 -68 -8 -4 15 -5 15 -6 -3 -1 -20 -37
-44 -66 -44 -10 0 -15 -10 -15 -27 0 -17 3 -23 8 -16 4 6 51 30 105 53 53 23
94 46 91 51 -7 12 -25 10 -49 -6z"/>
<path d="M404 1715 c0 -66 1 -92 3 -57 2 34 2 88 0 120 -2 31 -3 3 -3 -63z"/>
<path d="M2072 1810 c0 -14 2 -19 5 -12 2 6 2 18 0 25 -3 6 -5 1 -5 -13z"/>
<path d="M2161 1814 c0 -11 3 -14 6 -6 3 7 2 16 -1 19 -3 4 -6 -2 -5 -13z"/>
<path d="M1761 1804 c0 -11 3 -14 6 -6 3 7 2 16 -1 19 -3 4 -6 -2 -5 -13z"/>
<path d="M2131 1794 c0 -11 3 -14 6 -6 3 7 2 16 -1 19 -3 4 -6 -2 -5 -13z"/>
<path d="M2473 1793 c4 -3 -1 -16 -10 -27 -18 -21 -18 -21 5 -2 24 21 29 36
10 36 -6 0 -8 -3 -5 -7z"/>
<path d="M3393 1720 c0 -47 2 -66 4 -42 2 23 2 61 0 85 -2 23 -4 4 -4 -43z"/>
<path d="M2147 1776 c-4 -10 -10 -15 -14 -13 -5 3 -16 -12 -26 -32 l-18 -36
26 33 c15 17 31 32 36 32 5 0 10 -24 11 -52 l2 -53 3 45 c5 53 -9 104 -20 76z"/>
<path d="M1371 1764 c0 -11 3 -14 6 -6 3 7 2 16 -1 19 -3 4 -6 -2 -5 -13z"/>
<path d="M1737 1728 c-9 -29 -15 -54 -13 -56 2 -2 12 20 21 48 9 28 15 53 13
55 -2 3 -12 -19 -21 -47z"/>
<path d="M1858 1742 c26 -58 32 -62 31 -16 0 31 -2 35 -9 19 -5 -11 -9 -15 -9
-9 -1 5 -8 19 -16 30 -11 13 -9 6 3 -24z"/>
<path d="M2291 1764 c0 -11 3 -14 6 -6 3 7 2 16 -1 19 -3 4 -6 -2 -5 -13z"/>
<path d="M3033 1720 c0 -36 2 -50 4 -32 2 17 2 47 0 65 -2 17 -4 3 -4 -33z"/>
<path d="M1786 1755 c-3 -9 -6 -22 -5 -28 0 -7 5 -1 10 12 5 13 8 26 5 28 -2
2 -6 -3 -10 -12z"/>
<path d="M2062 1750 c0 -14 2 -19 5 -12 2 6 2 18 0 25 -3 6 -5 1 -5 -13z"/>
<path d="M2373 1733 c9 -2 23 -2 30 0 6 3 -1 5 -18 5 -16 0 -22 -2 -12 -5z"/>
<path d="M295 1700 c-43 -46 -62 -54 -81 -35 -22 22 -71 19 -84 -4 -10 -20
-14 -94 -5 -102 2 -3 46 -1 97 3 82 7 95 5 106 -10 12 -15 13 -14 10 13 -3 29
-4 29 -50 26 -41 -2 -48 0 -48 16 0 10 16 29 36 42 36 25 58 55 52 72 -2 6
-17 -4 -33 -21z m-75 -54 c6 -8 10 -25 8 -38 -3 -20 -10 -23 -50 -26 -45 -3
-48 -2 -48 22 0 47 61 76 90 42z"/>
<path d="M1381 1714 c0 -11 3 -14 6 -6 3 7 2 16 -1 19 -3 4 -6 -2 -5 -13z"/>
<path d="M1773 1645 c0 -38 2 -53 4 -32 2 20 2 52 0 70 -2 17 -4 1 -4 -38z"/>
<path d="M2052 1685 c0 -16 2 -22 5 -12 2 9 2 23 0 30 -3 6 -5 -1 -5 -18z"/>
<path d="M2396 1685 c-15 -14 -32 -25 -38 -25 -6 0 -8 -3 -5 -6 7 -8 77 37 77
49 0 11 -5 9 -34 -18z"/>
<path d="M1390 1679 c0 -5 5 -7 10 -4 6 3 10 8 10 11 0 2 -4 4 -10 4 -5 0 -10
-5 -10 -11z"/>
<path d="M2081 1674 c0 -11 3 -14 6 -6 3 7 2 16 -1 19 -3 4 -6 -2 -5 -13z"/>
<path d="M1981 1603 c-1 -40 3 -73 7 -73 5 0 7 28 4 63 -5 89 -10 94 -11 10z"/>
<path d="M3110 1656 c0 -12 10 -16 43 -16 52 0 117 -11 117 -19 0 -3 -37 -31
-81 -61 -44 -30 -85 -60 -90 -66 -7 -9 14 -14 81 -19 58 -5 96 -12 105 -22 13
-13 15 -12 15 9 0 21 -3 23 -48 20 -26 -2 -63 0 -82 5 l-35 9 93 64 c66 46 92
70 92 85 0 15 -2 17 -9 6 -7 -10 -26 -12 -92 -6 -46 4 -90 12 -96 17 -10 8
-13 6 -13 -6z"/>
<path d="M1381 1644 c0 -11 3 -14 6 -6 3 7 2 16 -1 19 -3 4 -6 -2 -5 -13z"/>
<path d="M1706 1645 c-9 -26 -7 -32 5 -12 6 10 9 21 6 23 -2 3 -7 -2 -11 -11z"/>
<path d="M1834 1600 c-15 -22 -25 -42 -23 -44 2 -2 16 16 31 40 34 55 28 58
-8 4z"/>
<path d="M2283 1613 c9 -2 25 -2 35 0 9 3 1 5 -18 5 -19 0 -27 -2 -17 -5z"/>
<path d="M2340 1609 c0 -7 -8 -18 -17 -26 -16 -13 -15 -13 6 -1 27 16 39 38
22 38 -6 0 -11 -5 -11 -11z"/>
<path d="M1371 1573 c-1 -23 3 -44 7 -47 4 -2 6 12 4 32 -5 56 -10 62 -11 15z"/>
<path d="M1672 1565 c-12 -25 -20 -45 -17 -45 7 0 47 81 43 86 -3 2 -14 -17
-26 -41z"/>
<path d="M3022 1580 c0 -19 2 -27 5 -17 2 9 2 25 0 35 -3 9 -5 1 -5 -18z"/>
<path d="M3383 1555 c0 -22 2 -30 4 -17 2 12 2 30 0 40 -3 9 -5 -1 -4 -23z"/>
<path d="M412 1545 c0 -16 2 -22 5 -12 2 9 2 23 0 30 -3 6 -5 -1 -5 -18z"/>
<path d="M1786 1529 c2 -15 10 -42 19 -60 8 -19 13 -26 10 -16 -3 10 -5 35 -5
55 0 26 -3 33 -9 23 -7 -12 -10 -11 -14 5 -2 10 -3 7 -1 -7z"/>
<path d="M2248 1553 c7 -3 16 -2 19 1 4 3 -2 6 -13 5 -11 0 -14 -3 -6 -6z"/>
<path d="M52 1520 c0 -19 2 -27 5 -17 2 9 2 25 0 35 -3 9 -5 1 -5 -18z"/>
<path d="M3012 1505 c0 -16 2 -22 5 -12 2 9 2 23 0 30 -3 6 -5 -1 -5 -18z"/>
<path d="M323 1498 c16 -17 23 -19 25 -9 4 14 -15 31 -35 31 -7 0 -2 -10 10
-22z"/>
<path d="M1383 1450 c0 -36 2 -50 4 -32 2 17 2 47 0 65 -2 17 -4 3 -4 -33z"/>
<path d="M1625 1480 c-9 -16 -13 -30 -11 -30 3 0 12 14 21 30 9 17 13 30 11
30 -3 0 -12 -13 -21 -30z"/>
<path d="M422 1480 c0 -14 2 -19 5 -12 2 6 2 18 0 25 -3 6 -5 1 -5 -13z"/>
<path d="M3372 1465 c0 -16 2 -22 5 -12 2 9 2 23 0 30 -3 6 -5 -1 -5 -18z"/>
<path d="M2238 1466 c-16 -12 -15 -15 12 -35 83 -60 -24 -174 -108 -115 -27
18 -29 59 -4 88 17 21 17 21 -5 2 -24 -20 -31 -64 -12 -83 8 -8 6 -18 -6 -37
-10 -15 -15 -29 -11 -33 3 -3 6 -1 6 5 0 25 30 40 69 35 90 -12 148 79 86 137
-19 18 -22 26 -14 37 14 16 9 16 -13 -1z"/>
<path d="M62 1445 c0 -16 2 -22 5 -12 2 9 2 23 0 30 -3 6 -5 -1 -5 -18z"/>
<path d="M151 1461 c-7 -5 -12 -14 -10 -20 2 -6 10 -2 17 9 14 22 13 23 -7 11z"/>
<path d="M235 1460 c-16 -4 -22 -8 -13 -9 9 0 18 -8 20 -16 2 -10 7 -7 15 10
6 14 10 24 10 24 -1 -1 -15 -5 -32 -9z"/>
<path d="M3002 1450 c0 -14 2 -19 5 -12 2 6 2 18 0 25 -3 6 -5 1 -5 -13z"/>
<path d="M350 1432 c0 -16 -9 -24 -41 -32 -32 -9 -44 -9 -49 0 -5 8 -9 8 -13
-3 -3 -8 -24 -17 -46 -21 -33 -5 -41 -10 -41 -27 0 -17 3 -19 13 -10 18 14
164 44 183 37 12 -5 14 1 8 32 -8 43 -14 54 -14 24z"/>
<path d="M431 1434 c0 -11 3 -14 6 -6 3 7 2 16 -1 19 -3 4 -6 -2 -5 -13z"/>
<path d="M1588 1418 c-22 -34 -42 -74 -31 -63 14 15 55 85 50 85 -3 0 -11 -10
-19 -22z"/>
<path d="M2168 1423 c7 -3 16 -2 19 1 4 3 -2 6 -13 5 -11 0 -14 -3 -6 -6z"/>
<path d="M3077 1423 c-3 -4 -7 -24 -11 -43 -5 -30 -5 -31 4 -11 9 21 15 23 48
18 20 -4 43 -14 49 -24 9 -11 13 -12 13 -4 0 7 6 11 14 8 8 -3 31 -9 50 -13
28 -5 36 -3 36 8 0 8 -6 15 -13 15 -23 0 -162 36 -174 45 -6 5 -13 5 -16 1z"/>
<path d="M3362 1410 c0 -14 2 -19 5 -12 2 6 2 18 0 25 -3 6 -5 1 -5 -13z"/>
<path d="M2214 1408 c24 -19 17 -50 -14 -60 l-25 -7 24 2 c46 4 54 62 10 75
-8 2 -6 -2 5 -10z"/>
<path d="M2991 1404 c0 -11 3 -14 6 -6 3 7 2 16 -1 19 -3 4 -6 -2 -5 -13z"/>
<path d="M72 1390 c0 -14 2 -19 5 -12 2 6 2 18 0 25 -3 6 -5 1 -5 -13z"/>
<path d="M151 1394 c0 -11 3 -14 6 -6 3 7 2 16 -1 19 -3 4 -6 -2 -5 -13z"/>
<path d="M441 1394 c0 -11 3 -14 6 -6 3 7 2 16 -1 19 -3 4 -6 -2 -5 -13z"/>
<path d="M2981 1364 c0 -11 3 -14 6 -6 3 7 2 16 -1 19 -3 4 -6 -2 -5 -13z"/>
<path d="M3352 1360 c0 -14 2 -19 5 -12 2 6 2 18 0 25 -3 6 -5 1 -5 -13z"/>
<path d="M451 1354 c0 -11 3 -14 6 -6 3 7 2 16 -1 19 -3 4 -6 -2 -5 -13z"/>
<path d="M81 1344 c0 -11 3 -14 6 -6 3 7 2 16 -1 19 -3 4 -6 -2 -5 -13z"/>
<path d="M1973 1275 l-1 -90 14 45 c8 25 12 49 10 55 -3 5 -6 1 -7 -10 -1 -11
-5 5 -9 35 -6 49 -7 45 -7 -35z"/>
<path d="M1878 1310 c9 -21 18 -35 20 -30 3 9 -25 70 -33 70 -2 0 4 -18 13
-40z"/>
<path d="M1536 1325 c-9 -26 -7 -32 5 -12 6 10 9 21 6 23 -2 3 -7 -2 -11 -11z"/>
<path d="M3053 1316 c1 -16 9 -32 17 -34 12 -4 13 -2 4 9 -7 8 -14 23 -17 34
-4 13 -5 9 -4 -9z"/>
<path d="M3148 1318 c-14 -14 -15 -18 -4 -18 8 0 23 -3 33 -6 11 -4 14 -3 7 3
-7 4 -13 15 -15 23 -3 13 -6 13 -21 -2z"/>
<path d="M3341 1314 c0 -11 3 -14 6 -6 3 7 2 16 -1 19 -3 4 -6 -2 -5 -13z"/>
<path d="M91 1304 c0 -11 3 -14 6 -6 3 7 2 16 -1 19 -3 4 -6 -2 -5 -13z"/>
<path d="M1394 1225 c0 -55 1 -76 3 -47 2 29 2 74 0 100 -2 26 -3 2 -3 -53z"/>
<path d="M476 1280 c3 -14 11 -32 16 -40 6 -10 7 -7 2 10 -3 14 -11 32 -16 40
-6 10 -7 7 -2 -10z"/>
<path d="M3250 1291 c0 -6 -10 -16 -22 -21 l-23 -9 23 0 c22 -1 41 23 28 36
-3 4 -6 1 -6 -6z"/>
<path d="M177 1272 c4 -18 10 -21 32 -15 36 8 39 13 10 13 -14 0 -30 5 -36 11
-9 9 -10 7 -6 -9z"/>
<path d="M1521 1274 c0 -11 3 -14 6 -6 3 7 2 16 -1 19 -3 4 -6 -2 -5 -13z"/>
<path d="M3326 1264 c-4 -14 -5 -28 -3 -31 3 -2 8 8 11 23 4 14 5 28 3 31 -3
2 -8 -8 -11 -23z"/>
<path d="M101 1264 c0 -11 3 -14 6 -6 3 7 2 16 -1 19 -3 4 -6 -2 -5 -13z"/>
<path d="M2931 1229 c-12 -29 -20 -54 -18 -56 2 -2 14 20 26 48 12 29 20 54
18 56 -2 2 -14 -20 -26 -48z"/>
<path d="M2011 1254 c0 -11 3 -14 6 -6 3 7 2 16 -1 19 -3 4 -6 -2 -5 -13z"/>
<path d="M303 1253 c31 -2 57 -8 57 -13 0 -4 -15 -20 -32 -35 -96 -80 -98 -83
-88 -107 5 -14 9 -17 9 -7 1 8 36 46 79 84 42 37 79 72 80 76 2 5 -34 8 -80 7
-68 -1 -73 -2 -25 -5z"/>
<path d="M1513 1205 c0 -27 2 -38 4 -22 2 15 2 37 0 50 -2 12 -4 0 -4 -28z"/>
<path d="M2091 1224 c0 -11 3 -14 6 -6 3 7 2 16 -1 19 -3 4 -6 -2 -5 -13z"/>
<path d="M3011 1213 c-10 -21 -9 -22 8 -11 15 9 31 6 85 -17 36 -15 66 -31 66
-34 0 -3 -44 -19 -98 -35 -53 -16 -103 -31 -109 -35 -8 -4 22 -22 70 -42 49
-21 86 -44 93 -57 10 -20 10 -20 21 7 9 25 8 28 -7 24 -9 -2 -46 9 -81 25
l-64 29 107 34 c100 31 145 59 98 59 -11 0 -56 17 -99 38 l-80 38 -10 -23z"/>
<path d="M500 1215 c1 -5 12 -30 26 -55 13 -25 22 -34 18 -21 -7 28 -44 92
-44 76z"/>
<path d="M1891 1204 c0 -11 3 -14 6 -6 3 7 2 16 -1 19 -3 4 -6 -2 -5 -13z"/>
<path d="M1991 1184 c0 -11 3 -14 6 -6 3 7 2 16 -1 19 -3 4 -6 -2 -5 -13z"/>
<path d="M1881 1164 c0 -11 3 -14 6 -6 3 7 2 16 -1 19 -3 4 -6 -2 -5 -13z"/>
<path d="M1961 1110 l0 -55 15 49 c9 26 13 51 10 54 -3 3 -6 -3 -7 -14 0 -18
-1 -18 -9 1 -6 14 -9 5 -9 -35z"/>
<path d="M2892 1144 c-7 -8 -10 -14 -7 -14 3 0 1 -9 -5 -20 -6 -11 -8 -20 -6
-20 7 0 39 61 34 65 -2 2 -9 -3 -16 -11z"/>
<path d="M450 1129 c0 -9 -6 -19 -12 -22 -138 -59 -166 -75 -159 -86 6 -10 27
-3 82 25 41 20 84 40 96 43 20 6 20 8 8 31 -10 17 -14 20 -15 9z"/>
<path d="M3276 1115 c-9 -26 -7 -32 5 -12 6 10 9 21 6 23 -2 3 -7 -2 -11 -11z"/>
<path d="M150 1115 c0 -5 5 -17 10 -25 5 -8 10 -10 10 -5 0 6 -5 17 -10 25 -5
8 -10 11 -10 5z"/>
<path d="M569 1075 c70 -148 294 -383 446 -470 30 -16 30 -16 5 2 -232 171
-286 228 -458 489 -7 10 -4 1 7 -21z"/>
<path d="M1401 1094 c0 -11 3 -14 6 -6 3 7 2 16 -1 19 -3 4 -6 -2 -5 -13z"/>
<path d="M1851 1064 c0 -11 3 -14 6 -6 3 7 2 16 -1 19 -3 4 -6 -2 -5 -13z"/>
<path d="M2839 1040 c-13 -22 -26 -40 -31 -40 -4 0 -8 -7 -8 -15 0 -8 -4 -15
-10 -15 -5 0 -10 -7 -10 -15 0 -8 -3 -15 -7 -15 -5 0 -16 -14 -25 -31 -11 -18
-22 -27 -29 -23 -8 4 -9 3 -5 -4 10 -17 -146 -167 -240 -231 -82 -56 -122 -88
-69 -56 174 106 345 277 445 448 12 20 20 37 17 37 -3 0 -16 -18 -28 -40z"/>
<path d="M3252 1055 c-17 -37 -14 -45 4 -12 9 16 14 31 11 33 -2 2 -9 -7 -15
-21z"/>
<path d="M170 1066 c0 -10 90 -186 95 -186 5 0 -82 179 -91 189 -2 2 -4 1 -4
-3z"/>
<path d="M1411 1044 c0 -11 3 -14 6 -6 3 7 2 16 -1 19 -3 4 -6 -2 -5 -13z"/>
<path d="M1952 1020 c0 -19 2 -27 5 -17 2 9 2 25 0 35 -3 9 -5 1 -5 -18z"/>
<path d="M421 984 c-70 -44 -87 -52 -100 -41 -10 8 -9 2 5 -21 15 -26 20 -30
22 -15 3 16 111 97 120 88 4 -4 -37 -163 -49 -185 -4 -9 -1 -26 7 -40 12 -21
14 -22 12 -5 -2 15 15 32 67 67 39 26 78 46 87 44 15 -3 16 -1 7 16 -6 12 -14
16 -18 11 -12 -20 -126 -94 -129 -84 -2 5 10 56 27 112 16 57 29 104 28 105
-1 1 -40 -22 -86 -52z"/>
<path d="M1837 1011 c-4 -19 -5 -36 -2 -39 3 -3 5 3 6 14 1 15 3 13 9 -6 6
-20 8 -21 8 -5 0 11 -3 31 -7 45 -7 24 -7 24 -14 -9z"/>
<path d="M1422 1000 c0 -14 2 -19 5 -12 2 6 2 18 0 25 -3 6 -5 1 -5 -13z"/>
<path d="M2904 998 c-10 -13 -12 -17 -4 -10 8 6 28 12 45 12 23 0 26 3 15 10
-23 15 -35 12 -56 -12z"/>
<path d="M2082 823 l-2 -183 -85 0 -85 0 1 -32 c2 -31 2 -31 6 -5 4 27 4 27
89 27 l84 0 0 -106 c0 -99 2 -108 25 -136 14 -16 25 -39 25 -51 0 -12 5 -29
10 -37 6 -10 8 -2 3 25 -3 22 -16 51 -29 66 -37 39 -32 64 17 78 23 7 39 14
37 17 -3 2 -19 -1 -37 -7 -18 -6 -34 -9 -37 -7 -2 3 -8 124 -13 269 l-8 264
-1 -182z"/>
<path d="M1432 950 c0 -14 2 -19 5 -12 2 6 2 18 0 25 -3 6 -5 1 -5 -13z"/>
<path d="M1942 950 c0 -14 2 -19 5 -12 2 6 2 18 0 25 -3 6 -5 1 -5 -13z"/>
<path d="M2881 949 c-2 -51 56 -74 109 -44 33 19 55 19 74 -1 13 -12 16 -12
16 -2 0 39 -58 50 -112 22 -38 -20 -74 -7 -81 28 -4 22 -4 21 -6 -3z"/>
<path d="M1861 934 c0 -11 3 -14 6 -6 3 7 2 16 -1 19 -3 4 -6 -2 -5 -13z"/>
<path d="M3168 888 c-13 -24 -32 -56 -42 -73 l-18 -30 20 25 c24 28 76 120 68
120 -2 0 -15 -19 -28 -42z"/>
<path d="M1442 900 c0 -14 2 -19 5 -12 2 6 2 18 0 25 -3 6 -5 1 -5 -13z"/>
<path d="M1871 894 c0 -11 3 -14 6 -6 3 7 2 16 -1 19 -3 4 -6 -2 -5 -13z"/>
<path d="M1785 859 c-10 -22 -30 -47 -44 -54 -14 -8 -22 -14 -18 -15 21 -1 49
24 68 61 11 23 19 43 16 45 -2 2 -12 -14 -22 -37z"/>
<path d="M1932 880 c0 -14 2 -19 5 -12 2 6 2 18 0 25 -3 6 -5 1 -5 -13z"/>
<path d="M2823 877 c-20 -25 -26 -40 -14 -33 14 9 37 -5 115 -68 53 -44 54
-44 72 -25 13 15 14 18 3 14 -15 -5 -117 66 -150 105 -13 15 -19 17 -26 7z"/>
<path d="M3062 860 c-7 -11 -22 -20 -35 -20 -18 0 -19 -2 -7 -10 8 -5 18 -10
22 -10 10 0 42 49 36 55 -2 2 -9 -5 -16 -15z"/>
<path d="M279 855 c5 -11 17 -29 26 -40 l16 -20 -10 20 c-5 11 -17 29 -26 40
l-16 20 10 -20z"/>
<path d="M1453 805 c0 -38 2 -53 4 -32 2 20 2 52 0 70 -2 17 -4 1 -4 -38z"/>
<path d="M1882 850 c0 -14 2 -19 5 -12 2 6 2 18 0 25 -3 6 -5 1 -5 -13z"/>
<path d="M1922 815 c0 -16 2 -22 5 -12 2 9 2 23 0 30 -3 6 -5 -1 -5 -18z"/>
<path d="M610 813 c-8 -3 -37 -25 -65 -48 -27 -23 -56 -44 -63 -46 -10 -4 -9
-11 7 -29 15 -18 19 -20 15 -7 -8 22 63 99 108 118 25 10 33 9 56 -8 41 -31
40 -64 -5 -114 -21 -23 -50 -50 -66 -59 l-28 -17 21 -24 c11 -13 18 -17 15 -9
-3 10 17 38 55 75 65 64 74 92 42 131 -29 36 -61 49 -92 37z"/>
<path d="M1892 785 c0 -16 2 -22 5 -12 2 9 2 23 0 30 -3 6 -5 -1 -5 -18z"/>
<path d="M2743 783 c-10 -10 -13 -14 -6 -9 7 4 27 6 44 4 29 -5 30 -4 14 9
-24 17 -29 17 -52 -4z"/>
<path d="M362 730 c81 -121 306 -337 433 -415 46 -29 28 -13 -63 55 -46 33
-122 98 -169 143 -75 72 -110 112 -221 253 -13 16 -4 0 20 -36z"/>
<path d="M1658 783 c12 -2 30 -2 40 0 9 3 -1 5 -23 4 -22 0 -30 -2 -17 -4z"/>
<path d="M3049 708 c-97 -131 -243 -268 -429 -401 -18 -13 -19 -15 -4 -8 39
19 181 129 254 197 68 65 171 183 219 252 42 61 14 32 -40 -40z"/>
<path d="M1568 743 c-29 -32 -52 -72 -45 -80 3 -2 8 5 12 17 4 12 20 37 37 56
36 41 33 46 -4 7z"/>
<path d="M1907 750 c-4 -14 -6 -43 -6 -65 l1 -40 9 45 c11 54 8 101 -4 60z"/>
<path d="M2711 724 c-2 -47 18 -58 93 -50 69 7 95 -6 82 -41 -6 -14 -4 -15 5
-6 18 17 2 62 -25 73 -15 5 -38 5 -62 -1 -46 -13 -81 0 -87 33 -3 18 -5 16 -6
-8z"/>
<path d="M1442 695 c0 -16 2 -22 5 -12 2 9 2 23 0 30 -3 6 -5 -1 -5 -18z"/>
<path d="M1450 640 c0 -17 17 -47 23 -40 2 3 -2 16 -10 30 -7 14 -13 18 -13
10z"/>
<path d="M1494 606 c-3 -8 -4 -23 -2 -33 3 -11 6 -6 9 15 6 34 2 42 -7 18z"/>
<path d="M2840 601 c-20 -6 -22 -8 -8 -13 9 -4 24 0 35 7 19 15 12 17 -27 6z"/>
<path d="M1050 585 c0 -2 18 -14 40 -25 22 -11 40 -18 40 -15 0 2 -18 14 -40
25 -22 11 -40 18 -40 15z"/>
<path d="M2300 545 c-36 -19 -61 -34 -57 -35 10 0 127 59 127 65 0 7 2 8 -70
-30z"/>
<path d="M1921 554 c0 -11 3 -14 6 -6 3 7 2 16 -1 19 -3 4 -6 -2 -5 -13z"/>
<path d="M1180 515 c14 -8 30 -14 35 -14 6 0 -1 6 -15 14 -14 8 -29 14 -35 14
-5 0 1 -6 15 -14z"/>
<path d="M1898 479 l-33 -31 34 26 c18 15 41 26 50 24 21 -4 27 -38 7 -38 -8
0 -17 -4 -20 -9 -3 -4 5 -6 17 -4 16 3 27 -4 42 -26 11 -16 21 -28 23 -26 3 2
-5 16 -17 31 -11 15 -21 34 -21 43 0 20 -19 41 -37 41 -7 0 -27 -14 -45 -31z"/>
<path d="M2200 500 c-8 -5 -10 -10 -5 -10 6 0 17 5 25 10 8 5 11 10 5 10 -5 0
-17 -5 -25 -10z"/>
<path d="M1240 490 c8 -5 20 -10 25 -10 6 0 3 5 -5 10 -8 5 -19 10 -25 10 -5
0 -3 -5 5 -10z"/>
<path d="M1491 472 c-1 -11 -21 -13 -90 -10 -49 1 -87 -1 -84 -5 3 -5 -10 -27
-27 -49 -19 -24 -37 -59 -41 -85 -9 -48 -6 -63 14 -63 9 0 8 3 -1 8 -20 13 3
97 40 143 l31 39 84 0 c48 0 82 -4 79 -9 -4 -5 4 -6 16 -3 18 5 19 7 6 10 -9
2 -19 11 -21 20 -3 10 -5 11 -6 4z"/>
<path d="M1564 418 l30 -22 -25 -7 c-21 -7 -20 -7 8 -6 17 1 38 -5 47 -12 10
-9 47 -15 94 -17 l77 -3 -70 8 c-66 7 -126 29 -140 51 -3 5 -16 15 -28 20 -14
7 -11 3 7 -12z"/>
<path d="M1894 419 c-10 -12 -37 -30 -59 -40 -22 -10 -32 -19 -22 -19 9 0 26
5 36 12 17 10 23 8 41 -13 l21 -24 -17 28 c-16 27 -16 29 6 52 13 14 21 25 18
25 -3 0 -13 -10 -24 -21z"/>
<path d="M1437 418 c-32 -12 -34 -42 -2 -44 15 -1 16 0 3 3 -27 7 -21 21 15
37 37 17 26 19 -16 4z"/>
<path d="M1483 383 c9 -2 23 -2 30 0 6 3 -1 5 -18 5 -16 0 -22 -2 -12 -5z"/>
<path d="M1997 342 l-17 -37 20 24 c11 13 20 29 20 37 0 21 -3 17 -23 -24z"/>
<path d="M1910 321 c0 -6 4 -13 10 -16 6 -3 7 1 4 9 -7 18 -14 21 -14 7z"/>
<path d="M1960 318 c0 -9 -6 -19 -12 -21 -10 -4 -10 -6 0 -6 14 -1 28 26 18
36 -3 4 -6 -1 -6 -9z"/>
<path d="M845 285 c23 -19 125 -72 110 -58 -5 5 -37 24 -70 42 -33 17 -51 25
-40 16z"/>
<path d="M2564 274 c-18 -14 -18 -15 4 -4 12 6 22 13 22 15 0 8 -5 6 -26 -11z"/>
<path d="M1825 270 l-330 -5 309 -3 309 -2 -21 -23 c-12 -13 -22 -30 -21 -38
0 -8 4 -4 9 9 5 12 25 32 45 43 19 12 35 23 35 25 0 2 -1 3 -2 2 -2 -2 -151
-5 -333 -8z"/>
<path d="M1294 238 c9 -12 17 -38 17 -58 2 -32 2 -32 6 -6 5 31 -14 86 -29 86
-5 0 -2 -10 6 -22z"/>
<path d="M2460 220 c-41 -21 -72 -39 -67 -40 10 0 147 69 147 75 0 7 3 8 -80
-35z"/>
<path d="M1020 190 c19 -11 40 -19 45 -19 6 0 -6 8 -25 19 -19 11 -39 19 -45
19 -5 0 6 -8 25 -19z"/>
<path d="M2060 131 c0 -39 -4 -51 -17 -54 -14 -4 -12 -5 5 -6 20 -1 22 3 22
54 0 30 -2 55 -5 55 -3 0 -5 -22 -5 -49z"/>
<path d="M2350 170 c-8 -5 -10 -10 -5 -10 6 0 17 5 25 10 8 5 11 10 5 10 -5 0
-17 -5 -25 -10z"/>
<path d="M1090 160 c8 -5 20 -10 25 -10 6 0 3 5 -5 10 -8 5 -19 10 -25 10 -5
0 -3 -5 5 -10z"/>
<path d="M1410 120 c0 -35 -3 -40 -22 -41 -14 -1 -7 -5 16 -10 22 -5 44 -7 50
-5 6 2 1 5 -11 5 -20 1 -23 6 -23 41 l0 40 268 3 267 2 -272 3 -273 2 0 -40z"/>
<path d="M2300 150 c-8 -5 -10 -10 -5 -10 6 0 17 5 25 10 8 5 11 10 5 10 -5 0
-17 -5 -25 -10z"/>
<path d="M1170 130 c8 -5 22 -9 30 -9 10 0 8 3 -5 9 -27 12 -43 12 -25 0z"/>
<path d="M2175 110 c-13 -5 -14 -9 -5 -9 8 0 24 4 35 9 13 5 14 9 5 9 -8 0
-24 -4 -35 -9z"/>
<path d="M1285 95 c22 -8 49 -13 60 -13 11 0 -2 6 -30 14 -63 17 -84 16 -30
-1z"/>
<path d="M2128 93 c7 -3 16 -2 19 1 4 3 -2 6 -13 5 -11 0 -14 -3 -6 -6z"/>
<path d="M2088 83 c7 -3 16 -2 19 1 4 3 -2 6 -13 5 -11 0 -14 -3 -6 -6z"/>
<path d="M1925 60 l-30 -8 27 -1 c15 0 30 4 33 9 3 6 5 9 3 9 -2 -1 -16 -5
-33 -9z"/>
<path d="M1983 63 c9 -2 23 -2 30 0 6 3 -1 5 -18 5 -16 0 -22 -2 -12 -5z"/>
<path d="M1493 53 c9 -2 25 -2 35 0 9 3 1 5 -18 5 -19 0 -27 -2 -17 -5z"/>
<path d="M1643 43 c43 -2 110 -2 150 0 40 1 5 3 -78 3 -82 0 -115 -2 -72 -3z"/>
</g>
</svg>
