<?xml version="1.0" standalone="no"?>
<!DOCTYPE svg PUBLIC "-//W3C//DTD SVG 20010904//EN"
 "http://www.w3.org/TR/2001/REC-SVG-20010904/DTD/svg10.dtd">
<svg version="1.0" xmlns="http://www.w3.org/2000/svg"
 width="1200.000000pt" height="1200.000000pt" viewBox="0 0 1200.000000 1200.000000"
 preserveAspectRatio="xMidYMid meet">

<g transform="translate(0.000000,1200.000000) scale(0.100000,-0.100000)"
fill="#000000" stroke="none">
<path d="M5635 11990 c-655 -42 -1252 -174 -1845 -407 -1491 -586 -2708 -1776
-3324 -3252 -802 -1917 -556 -4111 650 -5797 987 -1380 2516 -2281 4189 -2468
330 -37 783 -48 1090 -26 1278 91 2464 569 3435 1383 1145 959 1897 2323 2089
3787 42 318 46 397 46 815 -1 427 -8 535 -56 867 -86 599 -272 1197 -545 1753
-419 855 -1022 1583 -1789 2160 -895 673 -1948 1073 -3090 1175 -161 14 -688
21 -850 10z m760 -100 c2076 -149 3908 -1363 4844 -3210 622 -1227 795 -2609
496 -3961 -285 -1281 -1022 -2464 -2055 -3295 -1283 -1032 -2927 -1479 -4560
-1238 -613 91 -1168 265 -1735 544 -641 316 -1198 727 -1689 1249 -816 867
-1351 1962 -1530 3131 -53 348 -61 466 -61 905 0 439 8 557 61 905 247 1615
1172 3066 2542 3987 432 290 943 539 1445 704 462 152 972 251 1462 282 124 8
654 6 780 -3z"/>
<path d="M7280 11481 c-94 -30 -145 -98 -145 -191 1 -86 32 -138 161 -265 130
-128 164 -184 164 -269 0 -30 -5 -67 -11 -83 -17 -45 -69 -91 -123 -110 -61
-20 -175 -22 -230 -4 -103 35 -196 180 -196 308 0 66 0 67 -19 48 -18 -20 -71
-144 -71 -168 0 -22 145 -159 222 -210 176 -116 359 -108 489 22 73 73 87 119
71 232 -20 138 -57 194 -214 325 -98 83 -138 153 -119 214 15 52 54 96 96 110
66 22 212 -32 268 -99 14 -17 32 -60 42 -101 10 -39 21 -68 25 -63 9 9 50 138
50 157 0 12 -186 102 -268 131 -54 18 -159 27 -192 16z"/>
<path d="M4349 11415 c-58 -17 -131 -43 -161 -58 -67 -30 -146 -99 -164 -144
-32 -76 -6 -175 62 -231 59 -49 119 -64 288 -72 100 -5 166 -13 196 -24 53
-20 104 -66 132 -120 40 -77 6 -179 -87 -265 -70 -64 -123 -84 -210 -79 -96 6
-175 43 -239 111 l-48 52 5 -40 c8 -61 46 -154 68 -166 32 -17 264 -13 344 5
169 40 282 160 301 319 11 92 -8 141 -84 216 -38 37 -88 74 -121 90 -53 25
-64 26 -221 26 -147 1 -170 3 -212 22 -61 28 -88 70 -88 140 0 66 27 100 112
139 51 23 77 29 133 29 65 0 74 -3 128 -39 31 -21 60 -36 64 -32 10 10 -65
156 -79 155 -7 -1 -61 -16 -119 -34z"/>
<path d="M5791 11320 l-94 -89 33 -38 c18 -21 59 -66 92 -101 68 -73 48 -78
186 47 l81 74 -91 98 c-50 55 -96 99 -102 99 -6 -1 -53 -41 -105 -90z"/>
<path d="M8127 11213 c-4 -3 -7 -19 -7 -35 0 -16 -7 -45 -15 -65 -14 -32 -14
-39 -1 -51 13 -13 21 -11 63 17 58 39 74 37 190 -20 104 -51 143 -93 143 -152
0 -24 -4 -47 -9 -52 -5 -6 -66 -116 -136 -245 -226 -418 -247 -450 -294 -450
-10 0 -26 -6 -37 -14 -22 -17 -21 -17 67 -35 31 -7 82 -27 113 -46 38 -22 58
-30 61 -22 2 7 5 46 7 88 4 87 12 105 193 439 175 322 173 319 236 305 39 -9
199 -116 233 -156 22 -25 26 -41 26 -90 0 -34 4 -59 10 -59 11 0 80 135 80
157 0 7 -15 20 -32 29 -18 9 -121 69 -228 134 -203 122 -300 174 -454 242 -50
22 -114 51 -142 64 -56 26 -58 27 -67 17z"/>
<path d="M3192 10916 c-108 -72 -301 -227 -345 -276 -63 -70 -81 -129 -81
-260 0 -83 5 -116 22 -160 30 -77 101 -161 210 -250 178 -145 228 -259 132
-302 -37 -16 -34 -32 9 -36 62 -6 151 76 151 140 0 22 -17 62 -50 118 l-50 85
35 31 c19 17 50 39 69 49 31 17 40 18 72 6 45 -16 58 -5 42 37 -11 29 -10 34
16 61 15 16 45 37 67 46 32 15 41 16 55 5 19 -16 56 -89 74 -145 7 -22 19 -52
26 -67 14 -26 14 -26 46 -10 18 8 57 18 86 20 64 5 78 25 40 56 -27 22 -201
265 -298 416 -30 47 -98 171 -151 275 -53 105 -103 191 -111 193 -8 2 -38 -13
-66 -32z m-30 -118 c20 -17 307 -444 319 -475 6 -17 5 -32 -4 -49 -15 -28
-103 -94 -126 -94 -9 0 -33 13 -52 30 -20 16 -39 27 -42 24 -3 -3 -3 -30 0
-59 6 -60 -12 -96 -67 -135 l-30 -22 -35 22 c-64 40 -154 149 -203 249 -44 87
-47 100 -47 170 0 106 24 167 89 233 58 59 141 118 166 118 9 0 23 -6 32 -12z"/>
<path d="M9405 10404 c-49 -110 -229 -347 -440 -578 -59 -65 -118 -122 -131
-128 -46 -21 -26 -59 43 -83 30 -10 45 -25 70 -68 65 -110 150 -157 282 -157
86 1 153 23 236 80 66 45 209 184 247 240 94 138 169 169 255 104 39 -29 53
-30 53 -4 0 30 -45 93 -81 114 -46 27 -134 24 -195 -7 -63 -33 -105 -73 -177
-168 -73 -98 -183 -201 -248 -235 -68 -34 -172 -44 -217 -20 -47 24 -101 103
-102 147 0 31 13 51 87 140 47 57 163 190 257 294 250 277 239 264 224 282
-15 18 -124 103 -132 103 -4 0 -17 -25 -31 -56z"/>
<path d="M5992 10385 c-18 -8 -35 -21 -38 -29 -4 -12 -12 -10 -41 10 -20 13
-49 24 -65 24 -35 0 -83 -24 -92 -45 -5 -14 -10 -13 -36 7 -44 32 -101 30
-137 -5 l-29 -27 -41 21 c-52 25 -91 19 -131 -21 -25 -24 -30 -26 -47 -14 -10
8 -39 14 -63 14 -35 0 -49 -6 -73 -30 -29 -29 -32 -29 -59 -15 -16 8 -42 15
-57 15 -35 0 -89 -32 -98 -59 -5 -18 -8 -18 -33 -5 -54 28 -128 7 -151 -42
-10 -22 -11 -22 -41 -7 -20 9 -43 13 -64 9 -36 -7 -86 -49 -86 -73 0 -11 -5
-13 -17 -7 -10 4 -36 9 -58 12 -46 4 -90 -23 -106 -65 -7 -20 -12 -22 -28 -13
-48 25 -120 0 -142 -49 -13 -28 -16 -29 -59 -24 -60 7 -104 -15 -121 -60 -12
-33 -13 -34 -60 -29 -59 6 -94 -14 -115 -64 -14 -32 -16 -34 -52 -28 -47 7
-103 -27 -116 -73 -9 -29 -13 -31 -52 -30 -54 0 -92 -24 -113 -74 -15 -37 -18
-39 -59 -39 -36 0 -49 -6 -72 -30 -15 -16 -30 -42 -33 -58 -5 -25 -9 -28 -39
-25 -51 6 -95 -27 -110 -82 -10 -35 -16 -44 -29 -40 -25 8 -83 -19 -103 -46
-9 -13 -16 -38 -16 -57 0 -26 -4 -33 -17 -31 -67 6 -120 -31 -129 -91 -6 -35
-9 -38 -44 -44 -49 -8 -90 -54 -90 -101 0 -30 -3 -33 -37 -40 -54 -10 -93 -54
-93 -104 0 -38 -2 -40 -34 -46 -53 -10 -91 -57 -91 -111 0 -41 -2 -44 -26 -44
-49 0 -106 -75 -93 -124 4 -19 -1 -25 -34 -38 -49 -19 -76 -58 -76 -110 -1
-34 -5 -41 -31 -52 -52 -23 -70 -52 -69 -112 0 -46 -3 -54 -19 -54 -10 0 -32
-14 -49 -30 -28 -28 -30 -35 -26 -85 4 -43 2 -55 -10 -55 -8 0 -30 -16 -49
-35 -33 -33 -35 -39 -31 -86 5 -47 3 -51 -23 -65 -49 -25 -74 -98 -49 -144 9
-16 5 -22 -20 -35 -51 -26 -76 -106 -50 -156 8 -14 7 -19 -3 -19 -22 0 -66
-53 -73 -87 -4 -20 0 -43 9 -63 15 -30 15 -31 -9 -42 -47 -21 -69 -101 -43
-150 9 -17 7 -24 -14 -42 -48 -41 -60 -93 -32 -146 14 -27 14 -30 -5 -40 -25
-13 -50 -61 -50 -95 0 -14 7 -40 16 -56 15 -29 14 -31 -10 -54 -14 -13 -28
-35 -32 -49 -8 -34 3 -91 21 -106 12 -10 10 -16 -15 -42 -37 -37 -42 -101 -10
-141 18 -22 18 -26 4 -38 -22 -18 -44 -64 -44 -92 0 -13 11 -40 24 -59 l23
-34 -23 -28 c-33 -38 -33 -104 0 -142 l23 -28 -23 -34 c-13 -19 -24 -46 -24
-59 0 -28 22 -74 45 -93 14 -12 14 -15 -6 -36 -37 -39 -21 -143 26 -160 11 -4
9 -13 -7 -40 -27 -47 -20 -110 17 -141 25 -22 25 -24 10 -52 -8 -17 -15 -42
-15 -56 0 -34 25 -82 50 -95 19 -10 19 -13 5 -33 -32 -46 -5 -146 44 -162 20
-6 20 -8 5 -31 -26 -39 -14 -112 25 -144 29 -24 30 -28 20 -67 -14 -51 2 -89
48 -118 22 -13 30 -25 26 -35 -13 -31 -13 -86 -1 -110 7 -13 27 -34 45 -45 25
-18 29 -25 21 -39 -14 -25 -3 -94 19 -118 10 -11 28 -24 39 -28 19 -8 21 -14
17 -53 -7 -56 15 -99 60 -121 33 -15 34 -18 30 -61 -7 -54 13 -90 60 -110 28
-12 31 -16 31 -65 1 -45 5 -55 34 -81 18 -16 42 -29 53 -29 19 0 21 -4 15 -30
-11 -56 31 -123 84 -135 24 -5 27 -10 26 -45 -1 -51 29 -91 82 -110 33 -11 41
-18 36 -32 -8 -28 14 -85 43 -108 14 -11 39 -20 54 -20 27 0 29 -3 29 -38 0
-21 7 -48 16 -60 18 -26 65 -52 94 -52 16 0 20 -6 20 -36 0 -47 53 -104 98
-104 27 0 30 -4 36 -39 7 -48 51 -88 107 -97 34 -6 39 -10 39 -34 0 -51 71
-110 118 -98 15 4 21 -4 30 -39 14 -50 57 -83 110 -83 22 0 34 -6 38 -17 22
-68 53 -94 115 -96 38 -2 42 -5 53 -36 16 -48 57 -76 112 -75 36 1 44 -2 44
-17 0 -10 13 -33 29 -51 27 -30 35 -33 85 -32 40 0 56 -4 56 -13 0 -48 67 -89
128 -79 36 5 39 4 51 -29 17 -48 60 -69 123 -62 39 5 48 3 48 -9 0 -9 14 -29
31 -46 28 -29 33 -30 90 -25 45 4 59 2 59 -8 0 -7 14 -25 31 -39 23 -19 42
-26 74 -26 24 0 47 5 50 10 9 14 25 12 25 -3 0 -20 51 -63 82 -71 16 -4 42 0
62 8 32 13 34 13 47 -11 26 -48 111 -70 155 -38 20 13 22 12 33 -11 11 -25 64
-54 98 -54 10 0 31 7 47 15 29 15 30 15 63 -17 28 -27 42 -33 78 -33 28 0 50
6 63 18 20 18 21 18 32 -2 26 -50 109 -65 154 -30 27 21 27 21 41 2 33 -46
123 -54 159 -14 16 18 18 18 46 -10 36 -37 103 -40 144 -8 l26 20 25 -20 c14
-11 39 -22 54 -26 34 -7 98 17 107 40 5 12 11 11 36 -10 40 -34 96 -34 136 0
l30 25 37 -21 c44 -26 96 -21 134 14 26 24 26 24 56 6 50 -32 110 -22 146 24
16 20 18 20 54 3 49 -24 96 -14 129 25 25 29 26 29 55 14 17 -8 39 -15 51 -15
29 0 76 26 94 51 13 19 17 20 48 9 51 -19 103 -6 134 34 27 33 27 33 64 19 32
-13 41 -13 73 1 20 8 45 28 55 45 13 22 22 27 32 20 8 -5 34 -9 56 -9 32 0 49
7 73 29 17 16 31 36 31 45 0 13 4 15 19 6 11 -5 38 -10 61 -10 34 0 48 6 71
31 16 17 29 36 29 43 0 8 21 12 61 11 56 0 63 2 90 33 16 18 29 38 29 46 0 10
12 12 50 8 46 -4 52 -2 85 31 19 19 35 42 35 51 0 13 8 15 43 10 54 -7 100 20
118 71 12 31 17 35 37 30 56 -14 132 39 132 92 0 21 4 24 23 19 59 -15 120 27
133 92 5 25 9 27 45 24 34 -4 44 1 74 31 25 25 35 44 35 66 0 28 3 31 24 25
56 -14 126 47 126 110 0 18 4 24 15 20 23 -9 83 15 105 43 11 14 20 41 20 59
0 30 3 34 25 34 59 0 115 55 115 112 0 20 8 26 44 36 51 13 86 59 86 111 0 25
4 31 20 31 57 0 100 49 100 115 0 29 4 34 29 40 15 3 41 20 57 36 23 24 29 39
29 74 0 40 2 44 28 49 16 3 42 19 58 35 24 25 29 37 29 80 0 45 2 51 21 51 12
0 34 14 51 32 26 27 29 38 27 82 -3 43 0 51 16 56 58 15 90 64 82 123 -5 40
-4 43 26 57 44 21 73 81 60 124 -9 31 -8 33 27 54 49 28 67 71 53 124 -10 37
-9 40 13 48 36 14 66 68 61 110 -3 19 -8 42 -12 52 -4 11 0 18 15 23 45 14 74
99 50 145 -8 15 -2 26 30 58 44 44 51 81 26 131 -14 27 -14 29 14 50 42 30 58
89 36 132 -16 33 -16 33 16 66 27 28 33 42 33 78 0 28 -6 50 -17 61 -16 16
-15 19 12 46 40 40 48 87 22 137 l-21 39 25 23 c35 33 41 80 15 131 -12 25
-17 44 -11 46 17 6 40 59 40 94 0 18 -8 47 -18 63 -18 29 -18 31 2 58 32 44
29 108 -8 146 -17 17 -25 31 -18 31 17 0 42 54 42 90 0 35 -23 86 -42 93 -10
4 -11 8 0 23 39 59 39 115 -2 153 l-23 22 20 39 c25 52 17 100 -23 134 l-30
25 21 36 c27 45 20 88 -21 130 -30 31 -30 32 -14 64 22 45 12 92 -30 129 -30
26 -32 31 -19 48 10 13 13 34 10 64 -4 36 -12 51 -42 77 -31 27 -35 34 -26 52
25 46 -3 131 -49 146 -15 5 -19 12 -15 23 26 66 8 130 -45 157 -26 13 -28 18
-20 41 6 14 10 36 10 49 0 28 -44 83 -76 95 -21 8 -22 12 -13 45 13 47 -13
104 -56 125 -29 13 -31 18 -30 66 0 58 -19 88 -69 109 -28 12 -30 16 -27 64 2
45 -1 54 -27 81 -17 17 -40 30 -51 30 -18 0 -21 6 -21 46 0 58 -28 100 -78
115 -36 10 -37 13 -37 56 -1 38 -6 50 -33 74 -18 16 -43 29 -57 29 -23 0 -25
4 -25 44 0 55 -27 91 -81 107 -34 11 -39 16 -39 43 0 52 -33 94 -85 108 -37
10 -45 16 -45 36 0 54 -62 112 -119 112 -17 0 -21 6 -21 34 0 18 -9 45 -20 59
-22 27 -81 50 -106 40 -10 -4 -14 3 -14 22 0 62 -70 123 -125 109 -23 -6 -25
-3 -25 25 0 20 -10 42 -29 63 -24 27 -36 32 -74 33 -44 0 -46 1 -52 34 -10 52
-48 81 -106 81 -45 0 -49 2 -49 24 0 55 -81 106 -135 86 -21 -8 -24 -6 -30 19
-3 16 -20 41 -36 57 -25 24 -38 29 -80 28 -36 0 -49 3 -49 14 0 8 -16 30 -35
49 -33 33 -39 35 -85 31 -39 -4 -50 -2 -50 9 0 8 -16 31 -35 50 -34 34 -38 35
-90 30 -47 -5 -55 -3 -60 13 -3 11 -20 31 -37 45 -32 27 -75 31 -119 11 -12
-5 -18 -1 -23 19 -12 48 -93 78 -151 56 -15 -6 -24 -1 -40 23 -12 18 -37 37
-61 45 -36 13 -44 12 -74 -3 -33 -16 -49 -10 -50 17 0 14 -65 47 -92 47 -15 0
-38 -5 -52 -11 -22 -11 -28 -8 -51 19 -33 40 -84 51 -131 29 -33 -16 -34 -16
-63 13 -24 24 -38 30 -73 30 -24 0 -54 -7 -66 -16 -22 -15 -24 -14 -43 10 -11
14 -38 31 -59 37 -34 10 -44 9 -79 -9 -35 -18 -41 -19 -52 -6 -39 47 -118 54
-154 14 -18 -19 -18 -19 -52 10 -44 39 -99 41 -140 6 l-28 -25 -25 24 c-33 30
-77 38 -118 20z m-98 -46 c33 -26 37 -88 6 -119 -48 -48 -130 -11 -130 59 0
69 69 103 124 60z m201 -4 c34 -33 33 -78 -1 -110 -54 -50 -134 -14 -134 59 0
68 86 101 135 51z m198 -6 c43 -52 5 -129 -64 -129 -44 0 -79 35 -79 79 0 71
97 105 143 50z m-586 -11 c26 -24 30 -72 9 -100 -30 -40 -94 -42 -125 -4 -20
24 -18 82 4 106 25 27 81 27 112 -2z m773 2 c20 -20 26 -63 14 -95 -10 -24
-60 -46 -89 -39 -31 8 -65 49 -65 79 0 12 9 34 21 49 26 33 88 37 119 6z
m-962 -23 c39 -36 26 -98 -26 -126 -64 -34 -138 53 -97 115 31 47 79 51 123
11z m1123 23 c20 0 49 -42 49 -71 0 -41 -14 -64 -48 -78 -76 -32 -141 62 -88
128 14 17 48 31 64 25 8 -2 18 -4 23 -4z m-1314 -52 c33 -31 32 -90 -3 -117
-15 -12 -37 -21 -49 -21 -32 0 -72 35 -78 67 -5 29 14 78 35 86 31 13 73 6 95
-15z m1530 0 c32 -30 31 -81 -2 -113 -33 -34 -70 -32 -107 5 -25 25 -29 35
-23 63 13 64 85 89 132 45z m-1725 -28 c31 -24 41 -66 22 -101 -20 -39 -71
-52 -114 -29 -26 14 -44 73 -31 99 27 50 82 64 123 31z m1921 -11 c23 -28 22
-70 -4 -103 -29 -37 -92 -34 -122 6 -18 24 -19 32 -9 66 7 23 21 44 34 50 31
16 79 6 101 -19z m-1026 -56 c29 -4 46 1 73 19 l34 23 25 -22 c32 -30 101 -31
141 -3 24 17 29 18 34 4 9 -23 75 -47 110 -40 16 4 38 14 48 23 17 16 19 15
33 -4 31 -44 124 -55 155 -18 10 12 17 9 45 -20 36 -39 84 -46 134 -21 26 14
29 13 54 -13 33 -35 78 -45 121 -27 32 14 34 13 55 -15 29 -39 83 -53 129 -33
19 8 36 13 37 12 41 -73 92 -91 169 -62 10 4 16 1 16 -9 0 -8 14 -27 32 -42
28 -24 39 -27 85 -23 50 4 55 3 70 -23 30 -51 85 -67 147 -43 11 4 16 1 16
-11 0 -9 14 -30 30 -47 28 -28 35 -30 84 -26 53 4 53 4 65 -29 15 -42 60 -66
113 -61 33 3 40 0 44 -18 3 -12 19 -35 35 -50 25 -24 39 -29 78 -28 46 0 49
-1 61 -33 14 -41 62 -73 108 -73 22 0 34 -6 38 -17 21 -66 63 -98 120 -91 28
3 34 1 34 -15 0 -57 73 -116 126 -103 21 6 24 3 24 -25 0 -46 56 -99 104 -99
34 0 36 -2 36 -31 0 -46 56 -99 104 -99 34 0 36 -2 36 -33 0 -18 7 -43 16 -55
18 -26 65 -52 94 -52 16 0 20 -6 20 -34 0 -45 40 -93 84 -102 31 -5 34 -9 39
-51 6 -53 37 -90 84 -99 28 -5 32 -9 27 -29 -12 -49 49 -125 101 -125 11 0 15
-11 15 -44 0 -52 26 -90 73 -107 30 -10 32 -14 29 -50 -5 -50 17 -85 67 -108
34 -14 37 -19 30 -40 -17 -46 13 -111 61 -131 27 -11 29 -15 24 -50 -8 -48 16
-96 60 -117 31 -15 33 -17 24 -47 -13 -43 11 -101 52 -124 16 -9 28 -22 26
-29 -18 -47 -16 -80 6 -113 13 -19 33 -40 45 -45 16 -8 19 -15 12 -26 -19 -30
-10 -96 17 -128 14 -17 32 -31 40 -31 17 0 18 -12 3 -27 -25 -25 -1 -142 30
-143 3 0 12 -4 19 -8 10 -7 9 -15 -4 -41 -21 -43 -12 -91 26 -128 30 -29 30
-30 14 -62 -21 -42 -11 -92 25 -128 l28 -28 -20 -32 c-24 -41 -17 -89 19 -128
22 -24 23 -29 11 -44 -36 -40 -32 -102 9 -146 l24 -26 -20 -26 c-29 -37 -26
-94 6 -132 l25 -30 -23 -31 c-30 -41 -29 -102 2 -136 l23 -24 -22 -24 c-34
-36 -39 -100 -11 -138 22 -30 22 -30 2 -44 -43 -30 -51 -116 -15 -157 15 -16
14 -19 -10 -45 -36 -37 -43 -81 -22 -125 16 -34 16 -35 -9 -60 -33 -34 -43
-87 -22 -128 16 -32 16 -34 -8 -53 -47 -40 -58 -88 -31 -140 14 -27 14 -29
-10 -48 -14 -11 -30 -29 -37 -41 -13 -26 -13 -80 2 -107 8 -16 8 -20 -4 -20
-8 0 -26 -14 -40 -31 -27 -32 -36 -98 -17 -129 7 -10 2 -19 -20 -32 -42 -26
-64 -82 -50 -128 6 -21 7 -36 1 -38 -51 -17 -89 -92 -72 -141 9 -26 7 -29 -24
-44 -43 -21 -68 -68 -60 -116 5 -32 2 -38 -23 -53 -44 -24 -66 -65 -64 -115 1
-38 -1 -44 -23 -49 -13 -3 -36 -20 -50 -37 -21 -25 -25 -39 -22 -74 3 -41 1
-44 -29 -54 -47 -15 -73 -53 -73 -105 0 -39 -3 -43 -29 -49 -15 -3 -41 -19
-56 -35 -23 -24 -28 -39 -28 -75 0 -41 -2 -45 -25 -45 -38 0 -92 -60 -92 -103
0 -32 -3 -35 -34 -41 -45 -9 -86 -56 -86 -101 0 -30 -3 -33 -37 -40 -51 -9
-93 -54 -93 -99 0 -32 -3 -36 -25 -36 -58 0 -115 -55 -115 -110 0 -15 -6 -20
-25 -20 -58 0 -115 -51 -115 -102 0 -25 -3 -28 -24 -22 -54 13 -126 -46 -126
-105 0 -14 -5 -19 -15 -15 -48 19 -127 -30 -138 -84 -5 -25 -9 -28 -39 -24
-44 5 -99 -32 -112 -76 -8 -29 -12 -32 -40 -27 -43 8 -97 -22 -118 -65 -16
-32 -20 -34 -62 -31 -54 3 -91 -18 -107 -63 -12 -32 -13 -32 -65 -28 -49 4
-56 2 -84 -26 -16 -17 -30 -37 -30 -46 0 -12 -10 -14 -53 -9 -47 5 -56 2 -85
-22 -18 -15 -32 -33 -32 -40 0 -10 -14 -12 -59 -8 -56 5 -62 4 -89 -23 -16
-16 -31 -35 -33 -43 -4 -11 -9 -11 -26 -2 -48 25 -133 -3 -148 -49 -5 -15 -12
-19 -23 -14 -58 25 -129 11 -156 -32 -15 -22 -17 -23 -52 -8 -47 20 -90 10
-125 -27 -26 -28 -28 -28 -55 -14 -51 26 -110 13 -138 -31 l-15 -22 -39 19
c-46 23 -91 17 -125 -17 l-23 -23 -42 20 c-49 25 -88 19 -127 -17 l-26 -24
-26 20 c-36 28 -94 26 -129 -4 l-28 -23 -34 23 c-44 30 -80 30 -124 0 l-34
-23 -28 23 c-35 30 -96 32 -136 4 -27 -19 -27 -19 -45 0 -10 11 -35 25 -56 31
-33 10 -43 9 -78 -9 l-41 -21 -26 24 c-35 33 -74 39 -120 20 -36 -15 -38 -15
-64 10 -36 34 -79 41 -124 20 -36 -17 -36 -17 -57 9 -29 37 -88 53 -128 33
-30 -15 -31 -15 -65 19 -28 28 -42 34 -76 34 -23 0 -49 -4 -59 -10 -14 -7 -21
-4 -30 14 -26 47 -97 70 -144 45 -17 -10 -23 -9 -32 6 -5 10 -21 30 -35 43
-22 21 -31 24 -82 19 -50 -4 -58 -3 -63 14 -15 48 -97 75 -145 49 -16 -9 -21
-6 -26 15 -3 14 -20 37 -37 51 -25 21 -39 25 -79 22 -44 -3 -49 -1 -55 20 -3
12 -19 34 -35 48 -25 20 -39 24 -77 22 -45 -3 -47 -2 -63 35 -20 43 -74 72
-118 63 -23 -4 -28 0 -39 30 -17 47 -64 76 -112 71 -34 -4 -36 -3 -45 31 -12
47 -65 85 -111 80 -29 -3 -32 -1 -37 27 -10 52 -83 104 -127 90 -15 -5 -19 -1
-19 15 0 55 -57 110 -113 110 -20 0 -26 6 -31 34 -9 45 -66 96 -106 96 -25 0
-30 4 -30 25 0 56 -35 96 -98 109 -28 7 -32 12 -32 40 0 17 -7 42 -16 54 -18
26 -65 52 -93 52 -14 0 -19 5 -15 15 17 43 -44 125 -92 125 -21 0 -24 5 -24
35 0 64 -51 125 -103 125 -10 0 -12 9 -9 32 7 45 -23 94 -69 115 -33 14 -37
20 -33 43 9 45 -20 99 -64 118 -37 16 -39 19 -35 53 7 47 -16 90 -59 113 -30
16 -33 21 -30 57 5 53 -13 93 -52 114 -31 17 -32 19 -28 71 4 49 2 56 -26 84
-17 16 -38 30 -47 30 -12 0 -14 4 -5 19 25 48 3 126 -44 151 -18 9 -25 19 -21
29 24 61 5 132 -40 153 -18 8 -24 16 -19 27 14 30 16 89 4 110 -6 12 -24 30
-40 40 -27 16 -28 19 -15 37 8 10 15 39 15 63 0 36 -6 49 -33 76 -29 29 -31
35 -20 51 7 10 13 38 13 62 0 35 -6 49 -30 74 -28 27 -29 31 -15 51 8 12 15
41 15 65 0 34 -6 49 -28 71 -27 28 -27 28 -9 57 23 37 18 106 -12 138 l-21 22
21 42 c24 47 20 86 -12 126 l-20 25 22 30 c17 24 21 39 17 76 -3 25 -13 54
-22 64 -16 18 -15 21 9 56 30 45 31 68 5 120 l-20 39 21 22 c31 33 37 102 11
134 l-20 25 29 33 c33 38 39 97 14 136 -15 22 -14 25 15 54 24 25 30 39 30 74
0 24 -6 53 -14 63 -12 17 -10 22 20 51 28 26 34 39 34 73 0 23 -4 51 -10 61
-8 15 -3 25 26 54 32 32 36 40 32 79 -3 23 -8 49 -12 58 -5 11 1 19 17 26 46
21 66 93 42 154 -4 10 2 19 19 27 38 17 59 67 53 122 -5 43 -3 48 18 58 40 19
58 56 53 112 -5 46 -3 49 24 61 38 16 60 60 56 112 -3 39 0 44 32 62 44 26 62
60 57 110 -4 39 -2 41 33 56 42 18 75 76 67 118 -5 23 0 28 34 44 47 22 72 66
67 113 -3 29 -1 34 17 34 46 0 95 61 95 118 0 24 5 30 28 35 54 11 103 86 86
132 -4 10 0 15 15 15 56 0 111 52 111 105 0 28 4 32 45 43 50 13 85 56 85 105
0 23 4 27 28 27 48 0 91 35 104 85 10 36 16 45 34 45 57 0 114 53 114 105 0
17 7 20 40 20 48 1 97 42 106 90 5 28 8 30 37 27 44 -5 98 33 112 78 9 32 13
35 45 32 47 -3 95 27 111 71 11 32 15 34 48 30 45 -6 101 29 116 72 9 28 13
30 56 27 38 -2 52 2 77 22 16 14 32 36 35 48 6 21 11 23 57 20 46 -4 53 -1 83
30 19 18 36 39 38 46 3 10 11 11 34 2 16 -6 41 -8 55 -5 28 7 80 52 80 70 0 8
19 10 59 7 53 -4 62 -2 84 20 13 13 28 32 34 41 8 16 13 16 35 6 41 -18 94 -3
124 35 27 33 28 33 61 19 44 -18 92 -4 127 37 24 29 25 29 59 15 43 -18 98 -5
125 30 19 24 21 24 48 10 51 -26 129 -11 152 31 8 15 12 15 40 0 17 -9 40 -16
52 -16 25 0 72 23 89 44 11 13 16 13 44 -5 18 -10 42 -19 55 -19 27 0 73 22
91 44 12 14 16 14 38 -4 37 -29 104 -27 140 4 l28 25 22 -21 c11 -11 38 -22
60 -25z m-1087 27 c11 -6 25 -28 31 -51 11 -35 10 -43 -8 -67 -27 -36 -92 -43
-122 -13 -64 64 20 173 99 131z m2286 -13 c32 -28 36 -72 10 -111 -13 -20 -25
-26 -53 -26 -76 0 -111 82 -58 135 30 31 66 32 101 2z m-2477 -42 c33 -16 41
-33 41 -79 0 -61 -73 -95 -122 -57 -51 41 -43 118 15 141 31 12 34 12 66 -5z
m2671 -15 c25 -25 26 -80 1 -111 -13 -17 -29 -23 -56 -23 -75 0 -111 89 -54
137 29 23 84 22 109 -3z m-2835 -65 c64 -63 -4 -162 -90 -129 -19 8 -45 55
-45 84 0 30 47 70 82 70 17 0 39 -10 53 -25z m3009 4 c53 -42 20 -139 -49
-139 -25 0 -40 8 -59 31 -30 35 -30 35 -15 76 18 52 78 68 123 32z m-3203 -59
c28 -15 51 -65 43 -95 -8 -32 -40 -55 -77 -55 -41 0 -63 15 -76 50 -24 69 46
133 110 100z m3384 -15 c27 -26 32 -63 14 -98 -16 -30 -28 -37 -71 -37 -28 0
-42 6 -57 26 -62 79 44 180 114 109z m-3552 -75 c62 -49 30 -139 -50 -140 -67
0 -100 98 -47 139 33 26 64 27 97 1z m3716 10 c10 -5 24 -23 31 -40 33 -79
-64 -147 -127 -88 -65 61 16 171 96 128z m-3888 -93 c64 -49 33 -147 -47 -147
-68 0 -101 97 -48 139 30 23 71 27 95 8z m4074 -12 c36 -35 29 -89 -14 -122
-45 -35 -121 7 -121 67 0 19 9 40 25 55 15 16 36 25 55 25 19 0 40 -9 55 -25z
m-4227 -101 c27 -31 28 -73 2 -102 -52 -56 -139 -23 -139 53 0 77 84 108 137
49z m4366 26 c15 -5 33 -25 42 -44 16 -32 16 -36 -3 -68 -37 -63 -110 -60
-142 6 -12 25 -11 33 3 63 9 18 26 38 38 43 30 12 32 12 62 0z m-4534 -120
c41 -41 35 -93 -15 -126 -31 -20 -79 -11 -100 19 -21 31 -19 83 5 107 26 26
83 27 110 0z m4727 -2 c45 -43 20 -121 -44 -134 -27 -5 -37 -1 -63 24 -35 36
-38 69 -9 106 27 34 82 36 116 4z m-4878 -117 c44 -61 13 -126 -59 -126 -47 0
-79 31 -80 76 0 74 97 109 139 50z m5040 3 c29 -37 26 -70 -8 -105 -35 -34
-68 -37 -105 -8 -34 27 -36 82 -4 116 31 33 90 32 117 -3z m-5195 -114 c11
-10 19 -32 19 -49 0 -86 -98 -118 -143 -46 -25 41 -19 77 18 106 31 24 76 20
106 -11z m5335 4 c59 -49 27 -134 -49 -136 -41 -1 -80 39 -80 82 0 32 48 80
80 80 10 0 32 -12 49 -26z m-5484 -131 c27 -30 31 -53 13 -86 -40 -76 -148
-51 -148 34 0 74 84 106 135 52z m5640 2 c34 -33 33 -74 -3 -108 -35 -34 -71
-34 -106 -2 -32 30 -34 72 -5 109 28 35 80 36 114 1z m-5785 -130 c33 -35 31
-81 -4 -112 -33 -28 -65 -29 -99 -3 -33 26 -41 63 -22 99 17 33 27 39 71 40
20 1 38 -7 54 -24z m5927 3 c32 -30 31 -81 -2 -113 -32 -33 -75 -33 -109 1
-32 32 -34 72 -5 108 27 34 82 36 116 4z m-6059 -144 c29 -33 28 -75 -3 -104
-50 -47 -135 -13 -135 55 0 78 85 108 138 49z m6193 7 c32 -33 37 -65 13 -99
-22 -32 -57 -43 -94 -31 -35 13 -50 36 -50 76 0 33 7 43 40 66 35 24 57 21 91
-12z m-6323 -147 c59 -66 -17 -161 -96 -120 -32 16 -42 34 -42 71 0 38 11 56
44 71 38 16 64 10 94 -22z m6460 0 c31 -35 28 -70 -8 -106 -26 -25 -36 -29
-63 -24 -78 15 -94 121 -23 152 38 16 64 10 94 -22z m-6612 -130 c54 -26 63
-91 18 -131 -31 -28 -63 -29 -97 -3 -48 38 -41 110 13 137 31 16 26 16 66 -3z
m6732 -17 c61 -56 -10 -159 -87 -127 -47 19 -64 77 -35 118 31 45 78 49 122 9z
m-6824 -152 c34 -32 35 -77 1 -110 -72 -73 -183 37 -113 112 29 31 77 30 112
-2z m6926 15 c22 -12 42 -64 33 -88 -32 -90 -153 -75 -153 18 0 61 65 99 120
70z m-7059 -157 c57 -34 59 -103 5 -139 -73 -47 -158 65 -93 123 18 17 37 28
55 32 2 1 17 -7 33 -16z m7187 -16 c35 -33 30 -80 -13 -113 -26 -19 -42 -25
-60 -20 -59 15 -83 76 -49 124 31 45 78 49 122 9z m-7268 -157 c35 -27 34 -84
-4 -116 -15 -13 -38 -24 -51 -24 -39 0 -79 42 -79 83 0 75 70 105 134 57z
m7370 -8 c54 -68 -24 -165 -96 -118 -57 38 -56 104 4 136 39 21 66 16 92 -18z
m-7465 -167 c61 -60 -6 -158 -85 -125 -35 15 -50 37 -50 76 0 67 86 99 135 49z
m7560 0 c30 -29 32 -64 5 -98 -41 -52 -118 -41 -141 20 -11 31 4 78 30 93 31
18 81 11 106 -15z m-7651 -166 c35 -28 36 -80 1 -114 -26 -27 -54 -31 -88 -13
-52 27 -62 83 -22 123 30 31 73 32 109 4z m7736 1 c46 -46 11 -140 -53 -140
-54 0 -97 62 -77 111 20 48 94 65 130 29z m-7831 -165 c31 -16 41 -33 41 -71
0 -37 -15 -60 -49 -73 -24 -10 -34 -10 -60 3 -58 30 -67 82 -22 127 33 33 50
35 90 14z m7913 -12 c42 -38 28 -106 -26 -128 -51 -22 -100 1 -107 50 -12 81
74 131 133 78z m-7983 -168 c47 -24 56 -78 19 -119 -35 -38 -76 -38 -113 -1
-40 39 -31 94 20 123 27 15 41 15 74 -3z m8052 -14 c16 -16 29 -36 29 -45 0
-89 -121 -123 -155 -43 -16 40 -2 82 34 102 39 21 59 18 92 -14z m-8105 -176
c47 -30 36 -107 -19 -133 -24 -12 -32 -11 -64 5 -45 22 -60 60 -41 100 24 50
71 61 124 28z m8172 -11 c27 -31 28 -63 2 -97 -26 -33 -63 -41 -99 -23 -31 16
-41 34 -41 71 0 38 11 56 44 71 38 16 64 10 94 -22z m-8223 -179 c50 -49 15
-135 -55 -135 -41 0 -80 39 -80 80 0 41 39 80 80 80 19 0 40 -9 55 -25z m8276
6 c28 -23 33 -91 8 -116 -48 -49 -139 -15 -139 51 0 70 78 108 131 65z m-8355
-171 c24 0 54 -39 54 -71 0 -43 -15 -65 -50 -78 -55 -19 -110 22 -110 80 0 31
54 83 77 75 8 -4 21 -6 29 -6z m8408 -18 c56 -64 -11 -162 -90 -131 -35 13
-57 53 -49 88 7 34 23 49 62 60 34 9 57 4 77 -17z m-8416 -195 c33 -31 30 -79
-9 -111 -36 -31 -72 -27 -106 11 -27 28 -29 60 -7 91 30 44 79 47 122 9z
m8431 19 c33 -17 51 -53 44 -89 -7 -37 -36 -59 -79 -60 -28 -1 -42 5 -60 27
-13 15 -24 38 -24 50 0 30 34 73 63 79 12 2 23 5 25 6 2 0 15 -5 31 -13z
m-8462 -208 c32 -30 31 -81 -2 -113 -33 -33 -70 -32 -106 4 -34 35 -37 68 -8
105 27 34 82 36 116 4z m8518 2 c11 -12 19 -36 19 -55 0 -90 -123 -112 -155
-28 -11 31 4 78 30 93 29 17 87 11 106 -10z m-8540 -195 c50 -49 15 -135 -55
-135 -42 0 -80 39 -80 81 0 72 84 106 135 54z m8555 5 c46 -46 21 -122 -46
-136 -71 -14 -121 92 -65 137 31 25 86 24 111 -1z m-8569 -199 c36 -36 37 -60
3 -100 -40 -48 -102 -41 -132 16 -7 12 -12 29 -12 38 0 26 55 75 85 75 16 0
38 -12 56 -29z m8583 8 c55 -43 18 -139 -54 -139 -19 0 -40 9 -55 25 -73 72
28 178 109 114z m-8585 -205 c12 -15 21 -37 21 -49 0 -12 -9 -34 -21 -49 -16
-20 -29 -26 -60 -26 -49 0 -79 27 -79 72 0 73 95 108 139 52z m8590 9 c32 -27
37 -73 11 -106 -17 -22 -30 -27 -64 -27 -43 0 -66 15 -79 53 -8 22 9 68 30 85
24 17 77 15 102 -5z m-8585 -204 c29 -34 32 -50 14 -82 -17 -32 -39 -46 -73
-46 -34 0 -56 14 -73 46 -18 32 -15 48 14 82 19 23 34 31 59 31 25 0 40 -8 59
-31z m8585 5 c30 -38 28 -87 -5 -113 -55 -43 -134 -8 -134 59 0 72 96 109 139
54z m-8574 -189 c50 -49 17 -135 -53 -135 -49 0 -82 32 -82 80 0 71 85 106
135 55z m8543 9 c32 -22 43 -57 31 -94 -12 -34 -35 -50 -73 -50 -38 0 -55 10
-72 41 -18 36 -10 73 23 99 31 24 61 25 91 4z m-8518 -204 c25 -25 26 -81 3
-108 -10 -11 -33 -23 -51 -26 -28 -5 -38 -1 -63 23 -34 35 -37 68 -8 105 26
33 88 37 119 6z m8510 0 c41 -41 35 -93 -14 -125 -28 -19 -78 -11 -102 17 -23
25 -23 82 1 108 24 27 88 27 115 0z m-8473 -199 c16 -21 16 -72 -1 -93 -17
-22 -64 -40 -87 -33 -26 9 -59 53 -59 80 0 12 9 34 20 48 32 41 95 40 127 -2z
m8446 10 c26 -25 25 -87 -1 -114 -31 -31 -89 -27 -119 8 -31 36 -29 70 6 106
25 24 35 28 63 23 18 -4 41 -14 51 -23z m-8410 -193 c25 -30 22 -80 -7 -107
-34 -32 -83 -31 -113 3 -39 45 -29 100 21 122 38 17 75 10 99 -18z m8369 5
c25 -22 30 -60 13 -94 -38 -72 -135 -54 -151 29 -5 26 -1 36 25 62 27 27 36
31 64 25 17 -4 39 -14 49 -22z m-8343 -178 c48 -24 56 -81 16 -120 -48 -49
-135 -18 -135 47 0 71 57 106 119 73z m8292 -14 c36 -36 37 -73 4 -106 -47
-48 -135 -17 -135 46 0 82 75 116 131 60z m-8225 -175 c58 -49 25 -136 -50
-136 -89 0 -115 110 -34 145 45 19 53 19 84 -9z m8141 14 c52 -19 68 -79 32
-124 -26 -33 -88 -37 -119 -6 -36 36 -24 102 25 128 25 14 26 14 62 2z m-8072
-205 c42 -41 30 -102 -25 -125 -35 -15 -84 0 -100 31 -28 52 12 119 70 119 19
0 40 -9 55 -25z m8040 0 c75 -74 -37 -178 -117 -107 -11 9 -18 29 -18 53 0 71
85 105 135 54z m-7968 -177 c41 -39 28 -105 -27 -128 -79 -33 -146 65 -85 125
31 32 80 33 112 3z m7882 12 c10 -5 24 -22 30 -38 24 -57 -28 -120 -88 -107
-46 10 -66 40 -62 98 3 44 73 73 120 47z m-7797 -187 c18 -16 25 -77 10 -99
-27 -41 -102 -45 -131 -8 -64 81 44 177 121 107z m7722 5 c54 -49 26 -138 -43
-138 -43 0 -60 9 -76 41 -21 40 -19 57 14 90 35 35 71 37 105 7z m-7635 -184
c35 -45 24 -92 -29 -119 -52 -27 -109 10 -110 71 0 70 95 103 139 48z m7550 9
c72 -61 -7 -170 -92 -127 -51 27 -56 106 -8 134 26 15 77 11 100 -7z m-7466
-163 c76 -60 6 -170 -88 -134 -24 10 -46 60 -39 89 8 31 49 65 79 65 12 0 34
-9 48 -20z m7371 -5 c50 -47 19 -135 -48 -135 -39 0 -86 38 -86 70 0 76 80
115 134 65z m-7271 -155 c47 -37 43 -102 -7 -136 -49 -31 -116 9 -116 69 0 37
6 47 40 70 32 22 52 21 83 -3z m7166 -6 c47 -39 42 -102 -10 -129 -40 -21 -57
-19 -90 14 -44 44 -37 98 16 129 31 18 51 14 84 -14z m-7066 -145 c47 -21 60
-80 27 -122 -26 -33 -63 -41 -99 -23 -59 31 -57 111 4 144 26 14 38 15 68 1z
m6953 -13 c65 -55 8 -166 -69 -137 -61 24 -77 92 -32 136 31 31 66 32 101 1z
m-6816 -161 c33 -35 31 -81 -4 -112 -44 -38 -97 -30 -122 19 -42 82 63 160
126 93z m6705 0 c49 -48 15 -135 -51 -135 -38 0 -84 45 -84 82 0 39 40 78 80
78 19 0 40 -9 55 -25z m-6577 -151 c66 -74 -43 -172 -116 -104 -34 32 -30 82
10 115 37 31 71 28 106 -11z m6453 7 c35 -35 37 -71 7 -105 -23 -25 -35 -29
-75 -27 -51 2 -83 82 -50 123 35 45 79 48 118 9z m-6322 -147 c29 -37 26 -70
-8 -105 -36 -36 -73 -37 -106 -4 -53 52 -18 135 56 135 29 0 42 -6 58 -26z
m6196 1 c33 -33 32 -70 -4 -106 -35 -34 -68 -37 -105 -8 -33 26 -37 88 -6 119
29 29 84 27 115 -5z m-6072 -125 c49 -39 42 -97 -18 -136 -54 -36 -130 35
-104 97 12 30 50 58 80 59 9 0 28 -9 42 -20z m5926 -6 c40 -33 42 -80 6 -114
-35 -33 -81 -31 -112 4 -31 37 -29 71 6 107 36 36 60 37 100 3z m-5796 -115
c25 -11 47 -47 47 -75 0 -9 -9 -29 -21 -45 -41 -58 -139 -29 -139 42 0 69 53
105 113 78z m5656 -15 c58 -49 27 -134 -49 -134 -85 0 -110 107 -35 148 31 17
51 14 84 -14z m-5499 -114 c25 -13 41 -65 30 -94 -11 -30 -47 -56 -77 -56 -29
0 -71 38 -78 71 -9 37 36 89 77 89 16 0 38 -4 48 -10z m5357 -12 c55 -52 0
-152 -74 -133 -58 14 -80 81 -42 129 27 34 82 36 116 4z m-5196 -117 c35 -36
37 -69 4 -105 -32 -34 -77 -35 -110 -1 -35 35 -33 76 6 109 40 34 64 33 100
-3z m5040 0 c34 -35 37 -68 8 -105 -16 -20 -29 -26 -59 -26 -72 0 -106 84 -55
135 33 33 70 32 106 -4z m-4880 -110 c35 -36 37 -66 5 -106 -19 -24 -31 -29
-62 -28 -71 2 -101 87 -49 138 33 33 70 32 106 -4z m4724 3 c50 -53 18 -134
-52 -134 -39 0 -83 37 -83 69 0 78 85 119 135 65z m-4557 -110 c28 -32 28 -66
-1 -100 -64 -74 -177 15 -121 94 33 47 82 49 122 6z m4400 -1 c26 -28 28 -60
6 -91 -46 -66 -143 -36 -144 45 0 23 8 38 31 57 36 31 72 27 107 -11z m-4241
-78 c61 -43 22 -145 -56 -145 -33 0 -71 39 -71 71 0 32 16 69 34 81 19 13 70
9 93 -7z m4068 -10 c50 -49 15 -135 -55 -135 -42 0 -80 39 -80 81 0 72 84 106
135 54z m-3895 -90 c33 -35 31 -81 -4 -112 -34 -28 -65 -29 -100 -2 -35 28
-36 80 -1 114 32 33 74 33 105 0z m3705 19 c25 -10 47 -62 40 -95 -20 -91
-155 -69 -155 25 0 55 59 91 115 70z m-3534 -87 c31 -24 41 -55 29 -93 -6 -19
-20 -39 -30 -44 -68 -37 -149 34 -115 100 25 48 79 65 116 37z m3374 -12 c66
-65 -12 -169 -94 -125 -31 16 -46 65 -31 100 23 55 83 68 125 25z m-3191 -66
c55 -43 18 -139 -54 -139 -36 0 -80 38 -80 70 0 26 25 77 42 83 29 12 67 6 92
-14z m3015 -5 c30 -38 28 -87 -5 -113 -47 -37 -106 -20 -124 35 -27 81 77 144
129 78z m-2835 -55 c19 -15 26 -30 26 -54 0 -47 -8 -64 -41 -81 -84 -43 -157
71 -85 132 33 29 65 30 100 3z m2651 -4 c43 -42 31 -112 -24 -134 -51 -22
-111 25 -111 85 0 25 56 74 85 74 14 0 37 -11 50 -25z m-2464 -54 c19 -15 23
-28 23 -62 -2 -73 -70 -104 -128 -58 -53 42 -20 139 49 139 18 0 43 -9 56 -19z
m2269 9 c26 -14 44 -73 31 -99 -29 -53 -88 -65 -126 -26 -67 66 12 169 95 125z
m-2076 -59 c33 -36 24 -96 -16 -121 -43 -26 -61 -25 -94 4 -48 41 -29 129 30
138 33 5 63 -3 80 -21z m1904 -7 c57 -64 -9 -157 -88 -124 -42 17 -60 77 -36
115 33 50 83 53 124 9z m-1715 -31 c11 -11 17 -31 17 -60 0 -38 -4 -46 -32
-63 -37 -23 -72 -19 -102 10 -23 22 -25 82 -5 106 30 36 86 39 122 7z m1530
-5 c19 -22 22 -69 7 -98 -13 -24 -65 -41 -93 -31 -48 19 -69 76 -43 117 32 47
94 54 129 12z m-1345 -34 c30 -33 29 -78 -3 -109 -33 -34 -70 -32 -107 5 -25
26 -29 35 -23 63 17 77 81 97 133 41z m1123 26 c23 0 49 -42 49 -79 0 -92
-125 -111 -150 -23 -7 25 -6 43 3 61 13 28 55 53 75 46 8 -3 18 -5 23 -5z
m-934 -42 c46 -43 21 -122 -44 -134 -27 -5 -37 -1 -63 24 -25 26 -29 35 -24
64 4 18 14 41 22 51 22 25 80 22 109 -5z m773 2 c24 -24 26 -76 5 -107 -31
-44 -111 -37 -134 13 -16 36 -14 58 10 88 26 33 88 37 119 6z m-582 -10 c49
-46 16 -140 -49 -140 -44 0 -79 35 -79 80 0 68 79 105 128 60z m200 -16 c28
-31 28 -64 1 -98 -42 -54 -139 -24 -139 43 0 45 10 62 44 77 38 16 64 10 94
-22z m187 11 c50 -49 15 -135 -55 -135 -41 0 -80 39 -80 80 0 41 39 80 80 80
19 0 40 -9 55 -25z"/>
<path d="M6000 9920 c-13 -28 -29 -50 -37 -50 -7 0 -31 7 -53 16 -23 9 -43 14
-45 12 -5 -5 108 -96 129 -104 9 -4 16 20 25 82 7 47 10 88 8 90 -2 2 -14 -19
-27 -46z"/>
<path d="M6054 9945 c2 -16 8 -58 12 -92 3 -35 10 -63 14 -63 3 0 40 25 80 55
40 30 71 55 68 55 -3 0 -30 -9 -62 -19 l-56 -20 -31 57 c-23 45 -29 51 -25 27z"/>
<path d="M5840 9873 c0 -6 7 -27 15 -46 23 -56 19 -65 -37 -91 -42 -19 -48
-25 -28 -25 28 -1 152 18 158 24 2 2 -17 32 -44 67 -61 81 -64 84 -64 71z"/>
<path d="M6181 9812 c-28 -38 -51 -72 -51 -74 0 -7 170 -31 176 -25 2 2 -19
14 -48 27 -29 12 -54 23 -56 25 -1 1 7 26 18 55 11 29 19 54 17 57 -3 2 -28
-27 -56 -65z"/>
<path d="M5770 9686 c0 -3 25 -17 55 -31 l55 -24 -20 -53 c-11 -29 -20 -57
-20 -62 0 -5 25 23 55 64 30 40 52 76 50 80 -3 4 -33 10 -67 14 -35 4 -73 10
-85 13 -13 3 -23 2 -23 -1z"/>
<path d="M6202 9676 c-35 -6 -64 -15 -64 -20 -2 -10 94 -147 99 -142 2 2 -6
29 -18 60 -11 32 -19 58 -17 59 1 1 28 14 58 29 62 30 49 33 -58 14z"/>
<path d="M4567 9590 c25 -44 47 -80 48 -80 5 0 95 149 95 156 0 3 -22 -12 -48
-35 l-49 -40 -38 39 c-22 22 -42 40 -46 40 -4 0 13 -36 38 -80z"/>
<path d="M7406 9593 c25 -43 47 -79 49 -81 3 -3 95 145 95 154 0 3 -22 -12
-48 -35 l-49 -40 -38 39 c-22 22 -43 40 -47 40 -4 0 13 -35 38 -77z"/>
<path d="M4500 9633 c0 -17 -3 -44 -6 -61 -6 -29 -9 -31 -68 -38 l-61 -7 89
-24 c49 -13 91 -22 93 -19 4 4 -36 168 -43 175 -2 2 -4 -9 -4 -26z"/>
<path d="M7338 9604 l-3 -59 -63 -10 -64 -10 88 -22 c48 -13 89 -22 90 -20 4
4 -35 169 -41 175 -2 2 -5 -22 -7 -54z"/>
<path d="M4703 9565 c-11 -47 -19 -85 -16 -85 2 0 43 10 91 23 l87 22 -62 3
-63 3 0 59 c0 33 -4 60 -8 60 -4 0 -17 -38 -29 -85z"/>
<path d="M7543 9565 c-11 -47 -19 -85 -17 -85 12 0 168 40 172 45 3 3 -22 5
-56 5 l-62 0 0 60 c0 33 -4 60 -8 60 -4 0 -17 -38 -29 -85z"/>
<path d="M5926 9559 c-37 -28 -66 -53 -63 -55 2 -3 25 5 51 16 26 11 49 20 52
20 2 0 17 -26 33 -57 18 -34 30 -50 30 -38 0 26 -24 154 -31 160 -3 3 -35 -18
-72 -46z"/>
<path d="M6061 9524 c-7 -48 -10 -88 -8 -90 2 -3 14 20 27 51 12 30 26 55 30
55 5 0 30 -9 56 -20 26 -11 49 -18 51 -16 5 5 -127 106 -138 106 -3 0 -11 -39
-18 -86z"/>
<path d="M4399 9461 l44 -52 -44 -46 -44 -46 61 34 c120 67 117 59 33 108 -41
24 -78 46 -84 49 -5 4 10 -18 34 -47z"/>
<path d="M4792 9465 c-41 -24 -76 -45 -78 -48 -4 -3 65 -47 150 -95 15 -8 -29
50 -53 72 l-22 20 43 43 c23 23 40 44 37 47 -2 2 -37 -15 -77 -39z"/>
<path d="M7215 9489 c11 -13 31 -36 44 -52 l25 -27 -45 -46 -44 -47 61 34 c33
19 71 41 84 50 l24 16 -74 43 c-41 23 -79 45 -85 48 -5 3 -1 -5 10 -19z"/>
<path d="M7630 9463 c-41 -25 -76 -46 -78 -48 -2 -2 90 -58 151 -93 17 -9 -12
34 -42 62 l-31 30 42 43 c23 23 40 45 37 47 -2 3 -38 -16 -79 -41z"/>
<path d="M4445 9327 l-80 -22 62 -3 62 -3 5 -42 c3 -23 7 -53 9 -67 1 -15 10
7 21 55 10 44 21 85 23 92 7 17 -6 15 -102 -10z"/>
<path d="M4683 9334 c4 -10 14 -53 24 -94 l18 -75 5 60 5 60 64 10 65 10 -80
19 c-43 10 -85 21 -93 24 -9 3 -12 -1 -8 -14z"/>
<path d="M7285 9327 l-80 -22 61 -3 62 -3 9 -67 9 -67 18 80 c10 44 21 85 23
92 7 17 -6 15 -102 -10z"/>
<path d="M7520 9345 c0 -3 10 -45 23 -93 l22 -87 3 61 3 62 37 6 c20 3 51 6
67 7 21 1 9 6 -40 19 -109 29 -115 31 -115 25z"/>
<path d="M4570 9248 c-58 -99 -57 -97 -19 -62 70 63 65 62 116 13 25 -24 44
-39 41 -34 -12 25 -91 155 -93 155 -1 0 -22 -33 -45 -72z"/>
<path d="M7410 9248 c-24 -40 -45 -77 -48 -83 -3 -5 16 10 41 34 51 49 46 50
116 -13 19 -17 32 -26 29 -21 -13 26 -91 155 -93 155 -1 0 -22 -33 -45 -72z"/>
<path d="M4500 9067 c-233 -79 -376 -310 -342 -549 10 -71 58 -198 79 -211 5
-3 1 20 -10 51 -29 82 -35 250 -12 328 47 163 164 275 332 319 245 64 487 -86
543 -336 12 -53 10 -185 -4 -239 -3 -14 6 -1 20 29 91 185 -19 476 -217 576
-78 40 -142 55 -239 55 -61 0 -103 -7 -150 -23z"/>
<path d="M7437 9076 c-179 -52 -311 -187 -346 -354 -28 -133 5 -283 87 -389
13 -18 28 -33 33 -33 5 0 0 15 -10 33 -29 50 -51 135 -51 199 l0 58 53 0 c48
0 55 3 65 25 17 36 17 35 -35 35 -71 0 -79 8 -63 63 40 146 221 297 342 285
l33 -3 -1 -102 0 -103 30 0 c17 0 36 4 42 8 6 4 14 43 17 86 4 43 12 85 18 92
32 39 151 -7 235 -90 68 -68 128 -187 128 -255 l1 -46 -52 -3 c-52 -3 -63 -12
-45 -38 4 -6 25 -15 46 -20 21 -5 44 -17 49 -26 17 -26 -9 -118 -54 -193 -23
-37 -39 -69 -36 -71 10 -10 77 84 108 150 121 258 -4 571 -271 677 -70 28
-249 36 -323 15z"/>
<path d="M3110 5995 l0 -2915 1445 0 1445 0 -2 2913 -3 2912 -442 3 c-254 1
-443 -2 -443 -7 0 -26 40 -28 450 -15 234 7 426 11 428 10 3 -4 -40 -5770 -44
-5774 -5 -7 -2814 -36 -2820 -29 -5 5 69 5324 79 5647 l2 75 180 6 c99 4 305
10 458 14 l278 8 14 28 c8 15 15 30 15 34 0 3 -234 5 -520 5 l-520 0 0 -2915z"/>
<path d="M6080 5995 l0 -2915 1430 0 1430 0 -2 2913 -3 2912 -453 3 c-344 2
-452 -1 -446 -9 5 -9 117 -11 451 -6 l443 6 0 -22 c-2 -373 -91 -5701 -95
-5705 -3 -4 -119 -10 -258 -14 -1711 -49 -2480 -69 -2484 -64 -9 8 33 5756 42
5764 4 4 223 9 488 12 265 3 488 9 495 13 6 5 12 12 12 18 0 5 -204 9 -525 9
l-525 0 0 -2915z"/>
<path d="M4600 8801 c-163 -50 -259 -213 -291 -492 -7 -61 -30 -167 -56 -257
-25 -85 -42 -156 -39 -159 8 -9 81 153 105 233 11 38 28 118 36 177 43 298
138 438 307 454 179 16 295 -81 304 -254 l3 -68 -8 55 c-22 150 -96 188 -257
131 -49 -18 -114 -39 -144 -48 -30 -9 -59 -20 -65 -26 -14 -13 59 0 197 35
117 30 118 30 155 11 57 -28 77 -63 81 -141 7 -121 -28 -245 -99 -352 -22 -33
-54 -69 -71 -81 -37 -27 -95 -28 -132 -4 -36 24 -45 12 -9 -13 66 -46 119 -40
188 20 88 77 139 182 155 316 l7 67 2 -75 c2 -116 25 -204 81 -312 28 -54 53
-118 57 -143 9 -67 27 -56 20 13 -3 35 -22 96 -49 162 -25 58 -48 113 -51 122
-3 10 -11 86 -17 170 -23 309 -56 391 -180 447 -47 21 -177 28 -230 12z"/>
<path d="M7482 8760 c-99 -15 -173 -89 -210 -210 -22 -73 -22 -263 0 -435 17
-137 26 -170 58 -215 l20 -28 -23 -6 c-12 -3 -41 -6 -64 -6 -163 0 -247 -78
-259 -237 l-5 -68 28 75 c54 143 81 168 210 186 116 17 147 28 173 62 33 41
25 57 -14 27 l-34 -26 -17 43 c-21 51 -38 254 -39 448 0 116 3 143 22 191 52
132 119 181 250 183 65 1 86 -3 134 -27 137 -67 182 -222 143 -492 -17 -115
-19 -295 -5 -344 5 -19 8 -36 6 -38 -9 -9 -55 41 -81 89 -28 50 -30 60 -30
165 0 62 -2 113 -5 112 -3 0 -19 -30 -37 -67 -40 -85 -91 -144 -145 -171 l-43
-21 36 0 c24 0 49 10 77 31 49 36 49 34 22 -80 -11 -46 -19 -86 -16 -88 2 -2
19 37 36 87 18 50 36 93 40 95 4 3 11 -11 15 -31 8 -44 76 -120 135 -152 l42
-22 -7 22 c-15 49 -17 202 -4 330 37 359 -3 526 -146 601 -45 23 -171 32 -263
17z"/>
<path d="M7530 8709 c0 -36 31 -80 94 -134 64 -56 92 -106 102 -185 l8 -55 8
40 c5 22 6 51 3 63 -8 31 15 25 34 -10 13 -23 12 -28 -7 -56 -24 -34 -27 -42
-12 -42 6 0 19 14 29 31 15 24 20 27 25 14 19 -50 -1 -126 -38 -143 l-21 -11
22 0 c66 -2 83 120 31 222 -33 65 -59 96 -115 136 -66 48 -112 89 -140 125
-23 28 -23 29 -23 5z"/>
<path d="M7479 8674 c-13 -15 -43 -35 -67 -45 -31 -14 -47 -28 -57 -54 -21
-48 -18 -64 6 -35 11 13 41 38 67 55 42 27 91 89 80 100 -3 3 -15 -7 -29 -21z"/>
<path d="M8534 8639 l-29 -30 -3 -190 -4 -189 36 0 36 0 0 220 c0 121 -1 220
-3 220 -2 0 -16 -14 -33 -31z"/>
<path d="M4546 8498 c-35 -54 -66 -195 -66 -302 0 -50 -29 -165 -65 -255 -13
-36 -23 -66 -21 -68 10 -10 71 96 92 158 28 84 41 152 54 299 6 63 15 130 21
148 14 41 6 52 -15 20z"/>
<path d="M7392 8485 c38 -21 48 -44 49 -112 l0 -58 16 47 c25 74 4 114 -67
132 -24 7 -24 6 2 -9z"/>
<path d="M7571 8481 c-49 -13 -30 -26 39 -26 72 0 85 6 51 25 -22 11 -53 12
-90 1z"/>
<path d="M7345 8441 c-5 -10 20 -41 34 -41 17 0 44 28 37 38 -9 14 -62 16 -71
3z"/>
<path d="M4583 8433 c-30 -12 -8 -22 55 -25 37 -2 75 -8 85 -12 30 -14 19 12
-13 29 -28 14 -101 19 -127 8z"/>
<path d="M7550 8432 c0 -16 36 -42 57 -42 11 0 28 8 37 19 15 17 15 19 1 25
-24 9 -95 7 -95 -2z"/>
<path d="M5575 8405 c62 -150 60 -225 -9 -373 -44 -96 -69 -181 -49 -169 6 4
13 19 16 35 3 15 22 53 43 83 66 97 88 156 88 234 0 58 -5 79 -28 122 -31 56
-78 108 -61 68z"/>
<path d="M4812 8388 c-32 -36 -55 -108 -33 -108 5 0 11 14 15 30 8 43 48 80
86 80 18 0 29 4 25 10 -12 19 -71 11 -93 -12z"/>
<path d="M4610 8376 c0 -29 70 -50 86 -25 9 16 -6 26 -48 34 -31 6 -38 4 -38
-9z"/>
<path d="M7321 8368 c-11 -22 -11 -34 0 -69 18 -54 46 -69 34 -18 -4 19 -11
52 -14 74 l-7 40 -13 -27z"/>
<path d="M4841 8347 c-14 -17 -5 -27 24 -27 24 0 49 22 38 33 -11 12 -50 8
-62 -6z"/>
<path d="M5501 8314 c-78 -65 -93 -165 -42 -281 16 -38 31 -77 34 -88 3 -11 5
-1 6 22 0 23 -6 72 -15 110 -23 98 -15 163 25 214 40 49 35 60 -8 23z"/>
<path d="M7681 8254 c-41 -53 -47 -72 -19 -61 14 5 73 105 66 112 -2 2 -23
-21 -47 -51z"/>
<path d="M7490 8285 c-25 -14 -25 -14 13 -15 26 0 37 4 35 12 -6 18 -20 19
-48 3z"/>
<path d="M7514 8247 c10 -7 36 -27 58 -45 43 -35 74 -34 37 2 -37 35 -73 56
-94 55 -19 0 -19 -1 -1 -12z"/>
<path d="M5705 8223 c4 -10 10 -39 13 -66 7 -70 -18 -124 -99 -214 -79 -86
-106 -132 -115 -195 l-6 -43 26 54 c17 34 55 81 106 131 90 88 120 141 120
215 0 46 -30 135 -46 135 -3 0 -3 -8 1 -17z"/>
<path d="M7342 8170 c10 -81 42 -174 69 -201 11 -11 31 -19 45 -19 l26 0 -30
25 c-38 32 -58 75 -84 180 -11 47 -24 85 -27 85 -4 0 -4 -32 1 -70z"/>
<path d="M4697 8223 c-15 -14 -5 -23 26 -23 30 1 31 1 13 15 -22 17 -29 18
-39 8z"/>
<path d="M8375 8211 c-61 -26 -86 -98 -92 -271 -4 -104 0 -168 16 -280 29
-204 41 -396 41 -682 0 -137 4 -248 9 -248 13 0 19 37 32 197 14 162 5 395
-31 783 -30 318 -16 426 57 457 19 7 91 18 161 23 169 12 167 12 87 20 -97 10
-256 10 -280 1z"/>
<path d="M8752 8207 c-39 -47 -62 -300 -60 -657 1 -225 -14 -395 -53 -598 -26
-133 -55 -214 -135 -369 -65 -128 -99 -219 -91 -251 2 -10 37 50 85 149 142
291 186 415 219 616 14 90 17 179 18 548 1 362 4 451 17 505 17 70 17 78 0 57z"/>
<path d="M7430 8185 c-14 -8 -23 -15 -20 -15 3 0 41 -2 84 -4 l79 -3 -34 18
c-41 22 -76 23 -109 4z"/>
<path d="M5382 8143 c-31 -58 -21 -120 34 -208 16 -26 39 -63 51 -83 l23 -37
0 31 c0 44 -18 91 -56 147 -36 52 -50 102 -40 142 7 29 1 33 -12 8z"/>
<path d="M7440 8143 c0 -32 67 -45 90 -18 11 13 7 15 -23 15 -19 0 -42 3 -51
6 -9 3 -16 2 -16 -3z"/>
<path d="M4641 8131 c-9 -6 8 -11 50 -16 35 -3 73 -9 84 -11 18 -5 18 -3 -4
15 -25 22 -103 29 -130 12z"/>
<path d="M6535 8037 c-19 -45 -32 -207 -16 -207 10 0 16 22 11 45 -4 20 34
165 43 165 6 0 8 -28 5 -70 -3 -38 -2 -70 3 -70 4 0 13 25 19 55 6 30 13 55
16 55 2 0 3 -35 2 -77 -1 -43 1 -87 6 -98 7 -19 3 -20 -51 -17 -51 3 -63 0
-95 -25 -21 -15 -40 -35 -43 -44 -9 -27 40 -164 84 -238 38 -63 42 -75 51
-177 13 -141 35 -248 72 -354 26 -75 72 -170 82 -170 2 0 -9 33 -24 73 -35 90
-73 260 -99 440 -18 127 -23 144 -61 208 -41 69 -80 166 -80 199 0 44 96 85
134 57 15 -11 19 -27 20 -76 0 -36 5 -60 11 -57 6 2 9 34 8 77 -2 50 1 68 7
54 5 -11 9 -33 10 -50 1 -28 2 -29 15 -11 8 10 20 43 26 72 12 51 42 95 56 80
4 -3 -2 -23 -11 -44 -12 -24 -21 -74 -26 -142 -4 -58 -12 -116 -19 -128 -6
-12 -7 -22 -2 -22 22 0 51 87 51 153 0 41 8 91 20 128 22 64 20 79 -10 79 -44
0 -79 -40 -81 -92 -1 -19 -3 -17 -16 12 -11 26 -14 54 -10 109 6 77 -3 111
-29 111 -8 0 -17 7 -20 15 -11 27 -44 17 -59 -18z"/>
<path d="M8499 7956 l3 -79 -53 6 -54 5 0 -29 c0 -28 1 -29 53 -29 l53 0 -3
-237 -3 -238 25 -1 25 -1 -3 240 -3 240 54 -6 53 -5 -4 27 c-4 27 -5 28 -54
23 l-51 -5 5 84 4 84 -25 0 -26 0 4 -79z"/>
<path d="M5777 7985 c-9 -63 -33 -102 -93 -151 -101 -82 -145 -128 -170 -180
-30 -61 -30 -112 0 -55 26 49 92 117 164 168 92 66 136 158 114 238 -8 29 -9
28 -15 -20z"/>
<path d="M5329 7965 c-7 -63 11 -112 66 -180 18 -22 42 -58 53 -80 l21 -40 0
40 c1 47 -15 80 -65 138 -21 24 -46 66 -55 93 -11 30 -18 41 -20 29z"/>
<path d="M4740 7929 c-16 -29 5 -76 42 -95 16 -8 52 -17 81 -20 l52 -4 -46 13
c-25 7 -59 23 -76 35 -30 21 -49 64 -38 82 4 6 4 10 1 10 -3 0 -10 -9 -16 -21z"/>
<path d="M5801 7829 c-14 -46 -90 -127 -181 -195 -59 -43 -125 -131 -135 -180
l-6 -29 18 25 c37 51 110 124 163 163 113 82 153 134 166 216 9 54 -9 54 -25
0z"/>
<path d="M5315 7827 c-21 -48 11 -125 95 -232 22 -27 41 -58 43 -70 2 -11 5 0
6 25 1 50 -16 85 -82 164 -27 32 -43 62 -47 90 -5 31 -9 37 -15 23z"/>
<path d="M4975 7813 c-11 -3 -56 -21 -100 -41 -80 -37 -80 -37 -220 -37 -129
0 -149 3 -254 33 -137 40 -222 45 -272 16 -44 -26 -79 -79 -79 -119 0 -20 -6
-35 -15 -39 -21 -8 -47 -71 -44 -105 2 -14 -7 -42 -19 -61 -27 -43 -28 -77 -2
-110 l20 -25 -6 42 c-6 38 -3 45 27 75 27 27 32 39 30 71 -2 31 3 43 28 66 17
16 31 39 31 50 0 39 28 89 59 105 43 23 75 20 174 -13 259 -88 383 -80 581 36
65 37 90 47 128 47 26 0 45 3 42 8 -5 8 -75 9 -109 1z"/>
<path d="M7355 7788 c17 -6 44 -24 62 -41 25 -23 44 -31 84 -35 37 -3 50 -2
45 7 -4 6 -13 11 -19 11 -7 0 -37 16 -67 35 -40 26 -65 35 -95 34 l-40 -1 30
-10z"/>
<path d="M8001 7772 c73 -47 134 -129 161 -217 5 -16 13 -88 18 -160 36 -496
37 -506 69 -603 17 -51 38 -144 46 -208 15 -113 68 -301 101 -354 17 -29 17
-27 -20 101 -14 51 -29 138 -35 210 -10 121 -28 203 -69 304 -14 37 -21 86
-26 195 -4 80 -12 172 -17 205 -6 33 -14 124 -19 202 -9 159 -24 206 -83 265
-34 34 -131 88 -158 88 -7 0 7 -13 32 -28z"/>
<path d="M7660 7767 c-62 -33 -71 -39 -67 -43 2 -2 23 3 47 11 23 8 70 15 104
16 33 1 72 4 86 8 24 7 24 7 -9 14 -54 11 -134 8 -161 -6z"/>
<path d="M6500 7760 c-13 -8 -13 -10 0 -14 8 -3 24 -6 35 -8 14 -2 25 -17 35
-50 18 -55 30 -71 30 -37 0 51 -21 100 -46 109 -31 12 -35 12 -54 0z"/>
<path d="M6490 7694 c1 -20 77 -97 89 -90 8 6 5 15 -14 31 -14 13 -25 31 -25
40 0 9 -5 13 -10 10 -6 -4 -17 -1 -25 5 -8 7 -15 9 -15 4z"/>
<path d="M5287 7664 c-7 -40 9 -93 40 -133 77 -96 103 -134 104 -154 l0 -22
11 22 c19 40 0 86 -67 168 -52 62 -65 85 -65 111 0 40 -16 45 -23 8z"/>
<path d="M5820 7681 c0 -18 -102 -121 -164 -165 -73 -52 -127 -109 -156 -165
-34 -67 -23 -67 29 0 28 35 65 74 83 87 125 86 151 108 178 147 28 41 50 105
36 105 -3 0 -6 -4 -6 -9z"/>
<path d="M2490 7587 l0 -67 -67 -1 c-55 0 -63 -2 -44 -10 38 -15 151 -42 156
-37 5 5 -33 169 -40 177 -3 2 -5 -26 -5 -62z"/>
<path d="M2557 7573 c25 -43 46 -79 48 -81 2 -2 63 97 92 151 10 17 -10 4 -51
-33 l-43 -39 -38 39 c-22 22 -42 40 -47 40 -4 0 14 -35 39 -77z"/>
<path d="M9411 7593 c48 -84 53 -93 60 -93 3 0 27 34 52 75 26 41 44 75 41 75
-4 0 -24 -16 -45 -35 -22 -19 -43 -35 -47 -35 -4 0 -23 16 -42 35 -49 51 -56
43 -19 -22z"/>
<path d="M2696 7565 c-10 -44 -21 -85 -23 -91 -3 -7 28 -4 87 9 95 22 103 37
18 37 -47 0 -48 1 -49 33 -1 17 -4 45 -8 62 -5 26 -9 19 -25 -50z"/>
<path d="M5177 7603 c-18 -105 -181 -362 -314 -496 -79 -80 -140 -111 -210
-105 -67 6 -116 39 -191 128 -85 101 -159 178 -204 210 -68 49 -63 34 12 -37
39 -36 107 -117 151 -180 86 -122 143 -173 217 -194 115 -32 223 39 353 234
110 164 204 380 197 450 -3 30 -3 30 -11 -10z"/>
<path d="M9361 7583 l-1 -63 -67 0 c-40 0 -63 -4 -57 -9 10 -10 163 -46 168
-40 2 2 -7 42 -20 89 l-22 85 -1 -62z"/>
<path d="M9563 7558 c-13 -48 -23 -89 -23 -91 0 -3 38 5 84 16 93 23 102 37
26 37 -55 0 -57 3 -62 85 -3 36 -5 32 -25 -47z"/>
<path d="M4968 7549 c-82 -84 -171 -143 -256 -169 -124 -38 -202 -20 -348 83
-72 50 -194 115 -194 102 0 -2 28 -23 63 -47 34 -23 99 -77 145 -120 104 -98
148 -122 227 -123 88 0 176 46 275 144 73 73 167 188 159 195 -2 2 -34 -28
-71 -65z"/>
<path d="M5817 7510 c-21 -45 -87 -106 -197 -183 -74 -51 -140 -130 -140 -166
1 -13 3 -13 16 4 39 53 115 120 171 151 102 58 162 125 176 202 9 44 -4 40
-26 -8z"/>
<path d="M5275 7521 c-9 -15 2 -77 20 -111 8 -15 34 -49 59 -77 26 -28 53 -66
61 -85 l14 -33 1 41 c0 42 -27 91 -90 165 -18 20 -37 53 -44 74 -8 23 -16 33
-21 26z"/>
<path d="M2350 7494 c0 -3 18 -27 40 -52 l41 -46 -41 -41 c-22 -22 -40 -44
-40 -47 0 -4 36 14 79 40 44 25 78 49 75 53 -7 11 -154 100 -154 93z"/>
<path d="M2772 7443 l-73 -46 43 -27 c106 -64 118 -71 118 -64 0 5 -19 28 -42
51 l-42 43 44 45 c24 25 40 45 35 44 -6 0 -43 -21 -83 -46z"/>
<path d="M6691 7461 c-2 -75 21 -158 64 -237 37 -65 44 -74 45 -51 0 15 -8 42
-17 60 -9 18 -33 84 -54 147 -28 87 -38 107 -38 81z"/>
<path d="M9236 7468 c10 -13 29 -34 41 -49 l23 -25 -40 -39 c-22 -21 -40 -43
-40 -47 0 -6 144 73 158 87 4 3 -146 95 -155 95 -3 0 2 -10 13 -22z"/>
<path d="M9648 7447 c-37 -24 -70 -45 -73 -49 -4 -4 64 -48 150 -96 6 -4 -9
17 -33 46 l-43 51 42 46 c23 25 38 45 33 45 -5 0 -39 -20 -76 -43z"/>
<path d="M6981 7448 c-11 -30 -38 -86 -56 -119 -8 -14 -19 -71 -25 -125 -6
-54 -18 -137 -26 -184 -19 -103 -31 -567 -17 -620 8 -29 11 -7 18 118 4 84 11
154 15 157 5 3 6 14 3 25 -3 10 0 96 6 191 11 151 43 344 95 562 6 25 -3 21
-13 -5z"/>
<path d="M5206 7418 c10 -18 19 -65 22 -104 5 -87 -7 -115 -92 -203 l-61 -64
44 24 c24 13 63 41 86 61 l43 38 11 -31 c6 -18 35 -64 65 -103 30 -39 62 -87
71 -106 l16 -35 -5 47 c-6 54 -40 122 -91 186 -33 41 -47 94 -27 106 9 5 90
-90 115 -136 16 -31 17 -31 17 -8 0 35 -40 115 -89 180 -23 30 -47 75 -53 99
-8 33 -13 40 -18 27 -5 -15 -10 -13 -30 18 -31 45 -46 47 -24 4z"/>
<path d="M7110 7422 c0 -12 51 -82 76 -104 26 -23 88 -48 118 -48 14 0 37 5
53 12 l28 11 -45 8 c-59 11 -136 50 -188 94 -23 20 -42 32 -42 27z"/>
<path d="M5812 7338 c-39 -55 -82 -95 -160 -147 -87 -58 -131 -99 -164 -150
-43 -68 -34 -79 18 -22 25 27 91 81 146 118 104 70 164 135 187 202 16 49 7
49 -27 -1z"/>
<path d="M7126 7327 c-5 -16 -5 -59 0 -95 4 -37 8 -92 9 -122 1 -30 18 -140
39 -245 56 -284 56 -285 51 -170 -4 88 -23 223 -40 276 -5 14 -2 17 9 13 21
-8 20 -1 -4 46 -11 22 -20 52 -19 67 0 27 1 27 11 7 12 -27 52 -49 68 -39 8 5
-1 19 -28 44 -42 39 -71 107 -82 196 -6 46 -7 48 -14 22z"/>
<path d="M7454 7331 c-42 -25 -55 -46 -23 -35 13 5 58 8 99 7 72 -2 74 -1 43
12 -18 8 -33 19 -33 25 0 17 -53 11 -86 -9z"/>
<path d="M7937 7307 l-59 -42 -110 0 -110 0 58 -18 c33 -10 84 -20 114 -23 73
-7 132 23 167 84 32 54 17 54 -60 -1z"/>
<path d="M2435 7307 l-80 -22 57 -5 c31 -3 59 -8 63 -12 3 -3 9 -32 12 -64 l6
-58 23 84 c13 47 24 88 24 93 0 10 -14 8 -105 -16z"/>
<path d="M2670 7323 c0 -5 11 -46 24 -93 l25 -85 0 62 1 62 33 5 c17 3 48 7
67 8 29 3 20 7 -52 26 -98 25 -98 25 -98 15z"/>
<path d="M4020 7325 c0 -2 21 -19 48 -36 116 -79 166 -139 290 -349 170 -289
282 -347 448 -235 49 34 123 118 176 201 53 82 178 351 178 382 0 4 -35 -54
-78 -128 -144 -251 -240 -368 -337 -411 -53 -24 -88 -20 -152 17 -54 31 -116
102 -255 293 -74 102 -129 166 -159 188 -43 31 -159 88 -159 78z"/>
<path d="M9308 7311 c-88 -22 -94 -31 -20 -31 l62 0 0 -60 c0 -33 4 -60 8 -60
4 0 17 38 29 85 23 98 29 93 -79 66z"/>
<path d="M9540 7318 c0 -19 38 -159 44 -166 3 -3 6 22 6 56 l0 62 54 0 c30 0
57 4 60 9 3 5 -25 16 -62 25 -37 9 -75 19 -84 22 -11 3 -18 0 -18 -8z"/>
<path d="M2559 7228 c-23 -40 -44 -77 -47 -83 -3 -5 15 9 39 33 25 23 49 42
55 42 5 0 27 -18 49 -40 21 -22 40 -38 42 -36 5 4 -76 144 -87 151 -5 3 -28
-27 -51 -67z"/>
<path d="M9423 7226 c-24 -40 -43 -77 -43 -82 0 -4 20 11 44 35 l45 44 53 -44
53 -44 -21 35 c-53 90 -79 130 -84 130 -3 0 -24 -33 -47 -74z"/>
<path d="M4040 7233 c0 -62 -54 -409 -79 -513 -16 -69 -39 -183 -51 -255 -49
-305 -86 -414 -181 -527 -50 -60 -61 -89 -58 -163 1 -33 -6 -89 -15 -123 -18
-68 -12 -92 24 -92 25 0 37 18 64 96 29 87 68 164 94 187 20 18 21 18 32 -3
10 -18 8 -30 -14 -72 -14 -27 -26 -63 -26 -79 0 -23 -7 -32 -40 -49 -22 -11
-40 -27 -40 -35 0 -19 0 -19 50 9 23 13 50 22 60 19 10 -3 23 3 31 15 8 11 17
19 22 19 4 0 33 5 65 12 31 6 68 13 82 15 14 3 -12 3 -57 1 -46 -2 -83 -1 -83
1 0 3 18 40 40 85 40 79 41 80 39 187 l-2 107 58 135 c74 173 99 246 129 383
28 126 57 357 55 444 -1 46 -7 21 -29 -117 -52 -328 -92 -483 -170 -667 -57
-133 -70 -190 -68 -303 2 -84 2 -86 -51 -192 -49 -99 -71 -124 -71 -80 0 9 12
40 25 67 28 57 31 93 11 120 -12 16 -19 18 -42 10 -36 -13 -77 -79 -119 -192
-32 -83 -55 -116 -55 -76 0 10 11 53 25 96 30 92 31 128 4 72 l-20 -40 6 40
c8 50 23 79 83 157 59 79 99 168 117 261 8 40 28 146 45 237 17 91 42 208 55
260 14 52 31 138 39 190 16 105 32 370 22 370 -3 0 -6 -8 -6 -17z"/>
<path d="M7980 7216 c0 -27 -40 -80 -74 -98 -11 -6 -37 -15 -56 -20 -26 -5
-19 -6 27 -4 35 2 65 0 68 -4 8 -13 -45 -50 -71 -50 -13 0 -24 -4 -24 -10 0
-5 20 -10 45 -10 51 0 58 -12 18 -34 -28 -15 -28 -16 -5 -22 27 -8 28 -32 2
-81 -16 -30 -20 -57 -20 -135 0 -53 6 -121 12 -150 l13 -53 6 125 c5 104 12
141 40 224 l33 100 14 -35 c8 -19 18 -70 23 -114 28 -253 83 -412 223 -638 30
-49 56 -100 58 -115 2 -15 -5 -49 -15 -75 -19 -52 -42 -187 -57 -332 l-9 -90
4 125 3 125 -24 -54 c-13 -29 -24 -57 -24 -62 0 -4 -4 -10 -9 -13 -4 -3 -7 5
-5 17 20 122 64 461 60 464 -6 7 -12 -16 -45 -182 -40 -202 -65 -475 -43 -475
5 0 14 24 21 53 20 91 28 86 36 -24 6 -100 32 -289 39 -297 5 -4 13 93 26 328
5 102 15 234 22 295 l12 110 12 -47 c6 -26 26 -70 43 -98 17 -28 31 -56 31
-64 0 -30 23 -76 41 -81 56 -18 65 62 18 151 -17 32 -35 64 -41 69 -16 17 3
-46 28 -95 26 -49 31 -90 11 -90 -21 0 -37 22 -37 51 0 14 -9 38 -20 52 -33
41 -50 104 -50 182 0 71 -1 75 -86 239 -123 239 -163 356 -184 536 -7 52 -25
149 -41 215 -16 66 -29 138 -29 162 0 23 -4 45 -10 48 -6 3 -10 -5 -10 -19z"/>
<path d="M5817 7185 c-22 -42 -88 -103 -180 -165 -83 -57 -137 -111 -168 -172
-28 -54 -23 -66 9 -26 38 48 106 106 190 162 81 54 127 102 154 163 23 51 19
82 -5 38z"/>
<path d="M7091 7058 c-20 -57 -63 -145 -112 -227 -44 -73 -77 -136 -74 -139 7
-7 55 40 107 104 23 29 44 52 46 50 2 -2 8 -37 13 -78 10 -78 62 -199 99 -233
20 -18 20 -16 -4 31 -14 27 -39 101 -56 164 -17 63 -35 119 -39 123 -5 5 2 39
15 75 20 60 48 211 40 219 -2 2 -18 -38 -35 -89z"/>
<path d="M6828 7120 c-38 -29 -57 -89 -73 -225 -8 -68 -26 -196 -41 -285 -14
-89 -23 -164 -21 -166 8 -8 95 362 111 471 19 125 31 166 57 199 25 32 5 36
-33 6z"/>
<path d="M7507 7109 c18 -11 57 -58 87 -104 60 -91 104 -131 157 -142 34 -6
34 -6 -41 77 -157 173 -175 190 -206 190 l-29 0 32 -21z"/>
<path d="M5247 7077 c-20 -52 11 -139 80 -228 31 -39 62 -88 69 -108 l13 -36
0 40 c1 47 -30 114 -93 202 -25 35 -48 81 -53 105 -7 32 -11 38 -16 25z"/>
<path d="M7354 7070 c-45 -17 -94 -102 -94 -164 0 -30 15 -7 29 44 9 30 27 58
54 83 42 39 46 50 11 37z"/>
<path d="M7466 6982 c-17 -61 -20 -207 -6 -252 6 -18 8 -6 9 43 1 37 6 111 12
163 6 53 8 98 6 100 -2 3 -12 -22 -21 -54z"/>
<path d="M5781 6979 c-24 -28 -79 -75 -122 -106 -93 -64 -150 -127 -190 -205
-41 -81 -36 -92 10 -22 46 71 75 98 166 157 107 68 153 121 176 199 4 15 7 28
6 28 -1 -1 -22 -24 -46 -51z"/>
<path d="M4277 6958 c-13 -50 -57 -312 -81 -473 -69 -466 -106 -892 -127
-1445 -16 -420 2 -847 55 -1355 18 -169 18 -140 5 435 -21 910 10 1529 126
2555 31 276 36 343 22 283z"/>
<path d="M5121 6968 c-1 -4 12 -88 28 -185 16 -98 32 -214 36 -258 10 -111 28
-193 69 -310 39 -111 44 -171 21 -249 -30 -99 -15 -176 49 -247 19 -21 42 -52
51 -68 33 -65 92 -24 67 47 -8 23 -63 104 -89 132 -13 14 22 -60 43 -92 18
-25 24 -46 22 -70 l-3 -33 -21 40 c-12 22 -32 49 -44 60 -56 49 -75 154 -45
251 20 65 19 96 -6 184 -11 41 -49 219 -84 395 -55 273 -92 431 -94 403z"/>
<path d="M8551 6923 c-7 -21 -42 -96 -76 -168 -61 -126 -106 -263 -104 -322 0
-18 9 0 24 50 12 43 45 122 73 175 50 97 83 182 101 261 11 51 -1 54 -18 4z"/>
<path d="M5066 6913 c-48 -155 -72 -622 -42 -848 8 -66 29 -199 46 -295 51
-298 103 -740 135 -1165 20 -254 30 -838 17 -970 -5 -55 -8 -102 -6 -104 7 -8
62 125 73 179 68 317 0 1165 -174 2185 -28 166 -48 324 -56 435 -12 183 -7
485 10 555 10 40 8 62 -3 28z"/>
<path d="M5246 6912 c-11 -18 3 -109 23 -157 10 -23 35 -64 55 -92 20 -28 44
-73 53 -99 21 -61 28 -44 14 32 -7 35 -27 84 -51 123 -44 74 -70 131 -79 176
-5 20 -9 26 -15 17z"/>
<path d="M5781 6831 c-18 -25 -67 -73 -108 -106 -100 -80 -177 -166 -213 -238
-42 -84 -37 -101 8 -31 48 74 76 102 180 188 91 75 145 139 162 192 7 20 10
37 8 38 -1 2 -18 -17 -37 -43z"/>
<path d="M4337 6738 c-44 -279 -89 -711 -119 -1143 -9 -128 -12 -402 -10 -950
2 -799 -1 -894 -39 -1023 -32 -107 -32 -110 1 -49 17 32 42 99 55 150 51 195
57 325 37 897 -13 389 -5 752 28 1270 20 310 54 765 66 888 10 97 -2 73 -19
-40z"/>
<path d="M4416 6743 c-9 -31 -35 -249 -61 -522 -26 -270 -32 -600 -16 -801 6
-79 7 -71 14 105 25 599 57 1147 72 1213 6 26 -1 30 -9 5z"/>
<path d="M5108 6605 c4 -88 6 -248 6 -355 l-2 -195 20 65 c28 95 33 240 14
400 -9 74 -22 160 -30 190 -14 52 -14 45 -8 -105z"/>
<path d="M7011 6695 c-1 -80 57 -268 109 -354 33 -53 33 -30 0 43 -17 38 -47
129 -66 204 -43 169 -42 168 -43 107z"/>
<path d="M5762 6674 c-18 -29 -75 -98 -125 -151 -102 -108 -145 -166 -182
-245 -43 -92 -27 -95 26 -6 31 52 94 132 158 201 108 116 165 201 159 236 -2
14 -12 5 -36 -35z"/>
<path d="M5253 6654 c3 -49 13 -82 60 -180 31 -66 57 -125 57 -131 0 -7 5 -15
10 -18 8 -5 9 10 4 47 -9 70 -28 122 -65 180 -17 26 -39 74 -50 105 l-19 58 3
-61z"/>
<path d="M6946 6676 c-22 -87 -37 -606 -17 -606 17 0 22 57 28 325 6 277 4
335 -11 281z"/>
<path d="M7490 6646 c0 -8 -10 -22 -22 -31 l-23 -16 30 3 c24 2 31 8 33 31 2
15 -1 27 -7 27 -6 0 -11 -6 -11 -14z"/>
<path d="M5727 6494 c-24 -68 -101 -184 -181 -274 -37 -41 -78 -97 -91 -125
-34 -69 -49 -174 -37 -255 l10 -65 1 62 c3 140 33 215 139 342 38 46 84 107
102 137 39 65 82 179 78 208 -2 13 -9 3 -21 -30z"/>
<path d="M7980 6468 c0 -102 -71 -220 -202 -342 -91 -85 -195 -159 -255 -181
-23 -8 -30 -14 -18 -14 61 -2 278 141 378 249 84 90 127 174 127 245 0 29 -6
59 -15 71 -13 18 -14 15 -15 -28z"/>
<path d="M5265 6488 c-13 -33 14 -141 60 -233 25 -51 45 -100 45 -111 0 -10 5
-26 11 -34 7 -11 8 0 4 40 -10 83 -23 128 -58 189 -17 31 -37 81 -43 111 -8
39 -14 50 -19 38z"/>
<path d="M7235 6462 c14 -110 79 -174 206 -202 109 -24 228 11 347 104 90 70
121 109 41 53 -36 -26 -97 -61 -135 -79 -62 -30 -78 -33 -159 -33 -71 1 -101
6 -141 24 -57 25 -111 76 -143 136 l-22 40 6 -43z"/>
<path d="M8493 6428 c-6 -7 -24 -40 -40 -73 -28 -56 -31 -69 -36 -216 -6 -131
-4 -159 8 -169 8 -7 20 -30 27 -51 6 -22 14 -39 18 -39 6 0 42 551 36 557 -2
2 -8 -2 -13 -9z"/>
<path d="M7186 6365 c17 -158 109 -260 255 -280 52 -8 146 9 175 30 16 11 13
12 -28 3 -117 -27 -303 64 -360 176 -11 22 -27 58 -34 80 l-14 41 6 -50z"/>
<path d="M6738 6373 c18 -8 44 -30 58 -46 32 -38 28 -82 -11 -133 -14 -19 -22
-34 -17 -34 14 0 70 64 81 93 17 44 -8 93 -61 117 -54 24 -99 27 -50 3z"/>
<path d="M8027 6306 c6 -40 -10 -94 -39 -131 -11 -14 -59 -55 -107 -90 -95
-70 -203 -177 -245 -243 -31 -49 -61 -122 -70 -172 -5 -28 1 -20 34 40 58 109
134 205 199 253 163 120 192 144 221 183 37 52 47 99 30 148 -15 47 -30 55
-23 12z"/>
<path d="M6718 6265 c-18 -167 -11 -186 82 -210 89 -24 104 -55 45 -99 -34
-26 -72 -83 -62 -93 3 -3 13 7 22 21 9 14 39 39 66 56 43 26 49 34 49 63 0 20
-8 42 -20 55 -20 22 -31 25 -101 37 -55 8 -63 25 -69 139 l-5 101 -7 -70z"/>
<path d="M7150 6250 c-8 -19 -11 -56 -8 -100 7 -93 52 -186 125 -257 55 -54
89 -71 59 -30 -40 56 -131 216 -149 261 -14 37 -18 65 -14 104 3 28 4 52 2 52
-1 0 -8 -14 -15 -30z"/>
<path d="M2280 6195 l-22 -54 -55 20 c-30 12 -56 19 -59 17 -2 -3 29 -28 68
-56 l73 -52 7 25 c9 36 21 155 15 155 -2 0 -15 -25 -27 -55z"/>
<path d="M2335 6220 c2 -19 7 -59 11 -88 4 -29 10 -54 13 -56 4 -3 40 20 81
50 41 30 70 54 65 54 -6 0 -35 -9 -65 -21 -30 -11 -56 -17 -57 -12 -2 4 -14
31 -28 58 -24 48 -25 49 -20 15z"/>
<path d="M9717 6191 l-26 -60 -52 20 c-28 11 -53 18 -56 16 -2 -3 27 -27 64
-55 37 -28 69 -49 71 -47 5 5 32 178 28 182 -2 2 -15 -23 -29 -56z"/>
<path d="M9777 6158 c7 -46 15 -86 16 -90 1 -4 36 17 77 47 78 58 80 65 9 40
-24 -9 -48 -14 -55 -11 -6 2 -20 25 -30 50 -11 25 -22 46 -25 46 -3 0 0 -37 8
-82z"/>
<path d="M2120 6167 c0 -3 9 -29 20 -57 11 -28 20 -53 20 -55 0 -3 -25 -17
-55 -31 -31 -15 -54 -28 -53 -30 6 -5 163 19 171 26 4 4 -13 36 -39 71 -52 72
-64 86 -64 76z"/>
<path d="M2466 6098 c-25 -35 -46 -67 -46 -73 -1 -10 159 -39 167 -31 2 2 -21
15 -51 29 l-56 26 20 52 c12 28 19 53 17 56 -3 2 -25 -24 -51 -59z"/>
<path d="M9560 6153 c0 -6 9 -32 20 -58 11 -26 20 -49 20 -51 0 -2 -25 -16
-57 -29 -31 -14 -54 -27 -51 -30 4 -5 168 22 174 28 2 2 -21 37 -51 77 -30 40
-55 69 -55 63z"/>
<path d="M9901 6089 c-29 -39 -49 -75 -44 -79 8 -8 165 -30 172 -24 2 2 -22
14 -53 28 -31 14 -56 26 -56 28 0 2 9 27 20 57 12 29 19 55 17 57 -1 2 -27
-28 -56 -67z"/>
<path d="M8045 6115 c-5 -26 -4 -74 5 -135 7 -52 15 -121 17 -152 5 -58 -4
-174 -14 -165 -2 3 -9 51 -13 106 -15 165 -29 158 -30 -14 0 -248 -27 -533
-69 -745 -11 -52 -22 -124 -26 -159 -9 -89 -38 -177 -75 -222 l-31 -39 25 0
c19 0 32 10 50 38 30 46 47 104 90 307 46 215 56 286 71 515 9 126 21 223 34
275 26 100 26 161 2 273 -11 48 -21 103 -23 122 l-4 35 -9 -40z"/>
<path d="M7105 6006 c-10 -34 -14 -68 -9 -90 14 -76 125 -226 218 -296 52 -39
214 -125 222 -118 2 3 -35 36 -82 73 -48 38 -128 110 -179 159 -111 110 -148
177 -148 267 0 32 -2 59 -3 59 -2 0 -11 -25 -19 -54z"/>
<path d="M8518 5973 c15 -45 11 -112 -13 -223 -3 -14 10 6 30 45 19 38 35 82
35 98 0 30 -30 96 -53 115 -12 10 -12 5 1 -35z"/>
<path d="M2102 5944 l56 -26 -19 -56 c-10 -30 -17 -57 -15 -59 2 -2 27 28 56
67 29 39 51 73 49 75 -6 6 -129 25 -159 25 -19 0 -11 -7 32 -26z"/>
<path d="M2475 5957 c-33 -5 -62 -11 -64 -13 -2 -2 20 -35 49 -74 29 -39 54
-69 56 -67 2 2 -6 27 -17 56 -11 30 -18 55 -16 57 2 2 28 15 58 28 47 22 50
25 24 24 -16 0 -57 -5 -90 -11z"/>
<path d="M9490 5961 c0 -3 25 -17 55 -29 l54 -24 -20 -49 c-30 -78 -23 -78 36
1 30 40 53 75 51 77 -7 7 -176 30 -176 24z"/>
<path d="M7895 5890 c-133 -81 -200 -143 -247 -230 -50 -91 -59 -128 -15 -65
58 84 125 152 210 214 67 49 184 154 167 150 -3 -1 -54 -31 -115 -69z"/>
<path d="M9898 5946 l-57 -11 55 -72 c30 -40 57 -73 59 -73 2 0 -5 25 -17 55
-11 31 -19 57 -17 59 2 2 27 15 54 29 l50 26 -35 -1 c-19 0 -61 -5 -92 -12z"/>
<path d="M5460 5918 c0 -3 9 -25 20 -49 36 -80 20 -180 -40 -253 l-40 -48 0
-163 c0 -152 -8 -201 -25 -157 -4 9 -9 98 -13 197 -3 99 -9 167 -12 150 l-7
-30 -11 28 c-8 19 -8 35 -1 53 12 32 5 42 -16 24 -25 -21 -16 -92 13 -105 22
-10 22 -12 15 -110 -12 -151 -9 -218 13 -254 22 -36 51 -41 59 -8 2 12 6 99 7
193 l3 171 42 54 c72 94 85 199 32 265 -37 46 -39 49 -39 42z"/>
<path d="M2212 5842 c-40 -30 -71 -56 -69 -58 2 -2 29 5 59 15 l56 19 27 -56
26 -57 -6 65 c-3 36 -9 79 -13 96 l-7 31 -73 -55z"/>
<path d="M2346 5828 c-4 -35 -10 -76 -12 -93 -4 -24 2 -18 26 28 17 31 31 57
33 57 1 0 26 -9 56 -20 29 -12 55 -19 57 -17 4 4 -117 94 -138 102 -12 5 -17
-7 -22 -57z"/>
<path d="M9650 5838 c-90 -68 -92 -72 -32 -49 29 12 58 21 65 21 7 0 23 -25
36 -55 13 -31 25 -54 27 -53 4 5 -20 176 -26 181 -3 3 -34 -18 -70 -45z"/>
<path d="M9780 5805 c-7 -48 -10 -88 -8 -91 3 -2 15 19 28 46 13 28 27 50 31
50 5 0 31 -9 59 -20 57 -22 65 -15 17 17 -17 11 -51 35 -73 52 l-42 31 -12
-85z"/>
<path d="M7046 5719 c-119 -281 -155 -412 -163 -594 -2 -71 -1 -148 4 -170 8
-35 10 -25 16 75 9 163 34 281 120 555 42 132 75 241 73 242 -2 2 -24 -47 -50
-108z"/>
<path d="M4730 5159 c0 -608 19 -1368 40 -1534 5 -42 6 58 2 245 -8 362 -8
492 -3 975 3 250 6 329 12 275 18 -172 58 -1059 60 -1349 1 -69 4 -137 8 -151
4 -14 10 216 14 510 7 591 0 784 -38 1035 -14 88 -39 264 -56 390 -17 127 -33
232 -35 234 -2 2 -4 -281 -4 -630z"/>
<path d="M8397 5643 c-4 -37 -36 -551 -73 -1141 -69 -1107 -69 -1122 -29
-1122 37 0 43 37 65 400 49 822 110 1789 116 1848 l6 62 -29 0 c-16 0 -34 5
-40 11 -7 7 -12 -10 -16 -58z"/>
<path d="M4010 5665 c-251 -61 -453 -282 -565 -618 -55 -165 -69 -265 -69
-482 0 -206 14 -313 59 -470 93 -321 326 -562 613 -636 107 -27 121 -22 27 10
-158 55 -271 126 -372 235 -80 85 -116 138 -168 249 -111 233 -147 498 -110
807 55 470 260 775 603 895 74 26 66 30 -18 10z"/>
<path d="M4032 5594 c-38 -27 -18 -84 30 -84 20 0 20 1 -2 18 -17 13 -21 24
-16 40 4 12 12 22 17 22 5 0 9 5 9 10 0 14 -12 12 -38 -6z"/>
<path d="M7283 5543 c-19 -21 -49 -63 -68 -93 -51 -84 -138 -267 -133 -281 2
-7 32 40 67 104 34 65 91 160 125 212 66 98 70 123 9 58z"/>
<path d="M3884 5550 c-12 -5 -24 -17 -27 -29 -6 -24 18 -61 39 -61 14 0 14 2
0 16 -22 21 -20 40 5 57 24 18 13 28 -17 17z"/>
<path d="M3568 5482 c-166 -173 -276 -402 -324 -672 -110 -627 193 -1255 660
-1365 33 -8 79 -14 101 -14 35 1 32 3 -26 15 -347 69 -613 411 -685 879 -23
149 -14 415 19 555 58 242 153 429 296 582 57 61 61 68 43 77 -17 9 -29 1 -84
-57z"/>
<path d="M7604 5495 c-26 -111 -2 -383 42 -479 l15 -31 -5 50 c-13 128 -27
290 -34 390 -7 99 -9 106 -18 70z"/>
<path d="M7430 5438 c-19 -34 -50 -89 -67 -122 -18 -34 -33 -59 -33 -55 0 3 9
45 20 95 11 49 19 100 19 114 -1 30 -8 9 -84 -252 -30 -103 -79 -242 -108
-310 -115 -262 -116 -319 -1 -92 61 120 88 186 109 269 24 91 35 118 68 158
40 49 120 218 115 243 -2 7 -19 -14 -38 -48z"/>
<path d="M3982 5470 c-134 -48 -252 -168 -340 -346 -87 -175 -115 -312 -115
-549 0 -295 75 -553 217 -742 80 -105 220 -195 326 -209 29 -4 26 -2 -18 15
-78 29 -134 64 -202 128 -379 351 -399 1168 -38 1559 50 55 129 109 204 139
69 29 43 33 -34 5z"/>
<path d="M3692 5418 c-27 -27 -8 -88 27 -88 12 0 12 3 3 12 -21 21 -14 56 16
72 l27 15 -30 1 c-17 0 -36 -5 -43 -12z"/>
<path d="M3970 5397 c-15 -7 -26 -22 -27 -37 -2 -14 16 -143 40 -287 41 -246
42 -262 25 -270 -25 -12 -7 -37 21 -28 18 5 21 14 21 58 0 67 -29 526 -36 555
-5 25 -10 26 -44 9z"/>
<path d="M3592 5244 c-36 -25 -24 -84 17 -84 12 0 12 3 3 12 -19 19 -15 59 8
65 11 3 17 9 14 14 -7 13 -16 11 -42 -7z"/>
<path d="M3736 5210 l-17 -31 111 -215 c75 -146 109 -222 105 -235 -4 -12 -1
-21 9 -25 21 -8 56 14 56 35 0 21 -230 501 -239 501 -4 0 -15 -14 -25 -30z"/>
<path d="M7696 5056 c-34 -163 -38 -196 -33 -273 5 -81 42 -231 53 -220 3 3 0
70 -6 150 -9 128 -8 165 10 322 12 97 20 184 18 192 -2 8 -21 -69 -42 -171z"/>
<path d="M3500 5020 c-24 -24 -25 -43 -4 -64 21 -22 37 -20 23 3 -15 23 -5 51
21 58 11 3 17 9 14 14 -9 15 -33 10 -54 -11z"/>
<path d="M3601 4884 c-6 -25 -9 -49 -6 -54 3 -5 61 -51 128 -101 143 -107 136
-102 117 -97 -9 2 -16 -6 -18 -19 -3 -18 1 -23 17 -23 12 0 21 7 21 15 0 9 6
12 15 8 21 -7 55 25 55 52 0 12 -12 33 -27 47 -33 30 -279 218 -286 218 -3 0
-10 -20 -16 -46z"/>
<path d="M6865 4856 c-5 -24 -3 -59 5 -93 6 -31 13 -148 15 -266 2 -125 12
-294 24 -412 35 -327 28 -421 -39 -520 -14 -22 -41 -66 -59 -98 -18 -32 -46
-70 -61 -85 -19 -18 -31 -41 -34 -67 -3 -22 -7 -48 -8 -59 -2 -10 6 -23 17
-30 11 -6 24 -17 28 -23 4 -7 21 -13 38 -13 75 0 159 66 203 159 26 53 36 63
82 85 28 14 59 35 68 48 18 25 23 128 6 128 -5 0 -10 -12 -10 -28 0 -44 -31
-88 -90 -129 -40 -28 -63 -53 -83 -93 -16 -30 -42 -69 -59 -86 -36 -38 -100
-69 -124 -60 -14 5 -10 12 20 46 20 22 36 43 36 46 0 6 -84 -58 -88 -69 -2 -4
-8 -5 -13 -1 -18 11 -8 33 26 54 19 12 35 26 35 32 0 6 -11 3 -25 -6 -35 -23
-42 -20 -11 5 21 16 24 24 15 30 -7 4 -17 5 -21 3 -22 -14 -4 16 25 42 53 47
146 214 162 292 19 89 19 282 -1 423 -11 79 -16 183 -16 338 1 196 -2 231 -18
280 -11 31 -23 81 -28 111 l-9 55 -8 -39z"/>
<path d="M6987 4826 c3 -18 0 -43 -7 -55 -15 -30 -5 -39 19 -17 37 33 34 106
-4 106 -10 0 -12 -9 -8 -34z"/>
<path d="M2510 4817 c0 -5 86 -156 95 -165 2 -2 57 89 93 151 9 17 -34 -12
-63 -42 l-29 -31 -48 47 c-26 26 -48 44 -48 40z"/>
<path d="M9525 4780 c-22 -22 -44 -40 -49 -40 -6 0 -27 17 -48 37 -21 20 -40
35 -42 32 -6 -5 76 -149 85 -149 7 0 101 152 96 156 -2 2 -21 -14 -42 -36z"/>
<path d="M2490 4752 c0 -69 0 -69 -90 -74 -44 -3 -43 -4 43 -27 49 -13 90 -21
93 -18 5 5 -34 168 -42 176 -2 2 -4 -23 -4 -57z"/>
<path d="M2693 4714 c-12 -49 -21 -90 -19 -91 1 -1 42 8 91 21 l90 23 -62 7
c-62 8 -63 8 -64 39 -1 18 -4 45 -8 61 -5 25 -9 16 -28 -60z"/>
<path d="M3446 4779 c-20 -29 -1 -79 31 -79 12 0 12 3 -1 16 -19 18 -19 20 -6
45 6 10 20 19 31 19 11 0 17 5 14 10 -11 18 -53 11 -69 -11z"/>
<path d="M9359 4745 l-4 -60 -65 -5 c-36 -3 -58 -9 -50 -13 17 -8 139 -37 156
-37 8 0 5 24 -7 76 -25 105 -26 107 -30 39z"/>
<path d="M9562 4720 c-12 -47 -22 -88 -22 -91 0 -9 162 31 175 42 5 5 -18 9
-53 9 -68 0 -69 0 -74 85 -3 37 -5 33 -26 -45z"/>
<path d="M3985 4698 c-34 -34 -45 -55 -54 -99 -13 -63 -3 -132 29 -185 18 -31
18 -32 -3 -26 -16 4 -19 2 -14 -11 3 -9 -34 -107 -89 -231 -52 -118 -94 -224
-94 -234 0 -19 26 -49 35 -40 15 15 205 473 201 485 -6 16 -5 16 28 3 25 -9
26 -8 26 32 0 23 -7 68 -16 100 -15 54 -15 62 0 116 19 68 21 132 5 132 -7 0
-31 -19 -54 -42z"/>
<path d="M7155 4725 c37 -171 38 -317 2 -485 -42 -201 -50 -289 -43 -466 5
-136 3 -164 -9 -174 -8 -7 -15 -18 -15 -24 0 -6 14 4 31 23 30 33 31 35 23 95
-5 34 -9 120 -8 191 0 119 4 144 43 295 51 199 61 305 37 400 -15 58 -72 193
-61 145z"/>
<path d="M2390 4604 l42 -46 -43 -44 c-24 -24 -39 -44 -35 -44 18 0 156 82
151 90 -6 9 -140 90 -151 90 -3 0 13 -21 36 -46z"/>
<path d="M2777 4604 c-43 -26 -76 -48 -75 -49 13 -13 158 -93 158 -88 0 4 -19
27 -42 50 l-42 43 44 45 c24 25 42 45 40 45 -3 0 -40 -21 -83 -46z"/>
<path d="M9259 4602 l40 -49 -39 -38 c-22 -21 -38 -41 -35 -43 2 -2 30 11 62
29 105 59 104 51 18 103 -42 25 -78 46 -81 46 -3 0 12 -22 35 -48z"/>
<path d="M9648 4607 c-36 -23 -69 -45 -73 -48 -4 -5 85 -63 150 -97 10 -6 -11
23 -53 70 l-24 26 42 46 c24 25 39 46 34 45 -5 0 -39 -19 -76 -42z"/>
<path d="M7636 4582 c-33 -64 -50 -176 -41 -261 4 -36 18 -119 31 -183 31
-148 32 -288 4 -368 -11 -30 -20 -66 -20 -80 0 -14 -7 -44 -15 -67 -8 -23 -12
-48 -10 -55 3 -7 32 -30 65 -52 52 -33 62 -45 77 -89 24 -68 67 -109 151 -142
98 -38 120 -24 113 69 -2 18 -22 53 -51 89 -27 33 -56 80 -65 106 -10 25 -26
62 -37 81 -42 73 -36 134 47 500 29 127 44 359 28 420 -8 29 -11 12 -21 -108
-7 -79 -28 -223 -46 -320 -73 -378 -73 -424 -4 -564 26 -51 62 -111 81 -133
64 -75 74 -119 17 -76 -36 26 -40 14 -5 -19 46 -43 27 -51 -55 -24 -60 20
-112 73 -136 141 -13 38 -28 56 -72 87 -54 38 -54 39 -47 80 13 82 23 133 40
206 20 89 16 224 -11 340 -24 104 -25 356 -1 420 22 61 14 62 -17 2z"/>
<path d="M3663 4573 l-93 -4 0 -39 0 -40 123 0 124 0 11 -39 c7 -21 12 -41 12
-43 0 -3 -46 -45 -102 -93 -57 -48 -107 -95 -112 -105 -10 -22 0 -73 14 -68
17 6 289 251 294 265 9 22 -12 53 -34 53 -11 0 -20 -6 -20 -12 0 -9 -4 -8 -10
2 -15 23 -12 34 13 45 14 6 23 21 25 39 6 48 9 48 -245 39z"/>
<path d="M3448 4549 c-21 -12 -24 -59 -6 -77 7 -7 21 -12 33 -12 18 1 18 1 3
11 -25 14 -22 55 4 73 21 15 21 16 3 16 -11 0 -28 -5 -37 -11z"/>
<path d="M2435 4467 l-80 -22 60 -5 c66 -6 71 -12 75 -95 1 -36 4 -32 26 45
13 47 24 88 24 93 0 10 -14 8 -105 -16z"/>
<path d="M2675 4460 c4 -17 15 -58 25 -93 l18 -62 1 61 c1 71 5 74 83 74 28 0
49 3 45 6 -5 6 -151 43 -170 44 -5 0 -6 -14 -2 -30z"/>
<path d="M9308 4471 c-89 -21 -95 -31 -20 -31 l62 0 0 -60 c0 -33 4 -60 8 -60
4 0 17 38 29 85 23 98 29 93 -79 66z"/>
<path d="M9540 4479 c0 -20 37 -160 44 -167 3 -3 6 22 6 56 l0 62 48 0 c77 0
82 15 10 33 -35 9 -73 20 -85 23 -16 4 -23 2 -23 -7z"/>
<path d="M2567 4403 c-19 -32 -40 -69 -47 -83 l-13 -25 29 25 c76 67 65 65
119 18 26 -23 46 -38 44 -33 -11 27 -82 145 -89 150 -5 3 -24 -21 -43 -52z"/>
<path d="M9423 4386 c-24 -40 -43 -77 -43 -82 0 -4 20 12 45 36 l45 44 32 -30
c18 -17 42 -37 53 -45 19 -14 19 -13 4 11 -9 14 -31 51 -50 83 -18 31 -36 57
-39 57 -3 0 -24 -33 -47 -74z"/>
<path d="M5166 4105 c-9 -376 -21 -551 -41 -581 -30 -46 -71 -58 -190 -58 -85
1 -145 8 -260 33 -202 44 -329 51 -421 23 -38 -12 -78 -28 -89 -37 -19 -16
-18 -16 17 -11 l36 4 -19 -33 c-15 -25 -18 -42 -13 -74 4 -22 10 -41 15 -41 5
0 9 4 9 9 0 5 12 24 26 41 32 38 24 53 -11 20 -21 -20 -25 -21 -25 -6 0 9 10
35 23 56 17 30 30 41 56 46 59 12 192 -3 351 -39 85 -19 175 -38 200 -41 43
-6 48 -11 90 -74 42 -62 52 -70 141 -116 l95 -48 40 19 c38 18 39 20 37 67 -1
46 -5 53 -63 108 -34 32 -63 58 -66 58 -15 0 31 -61 71 -94 48 -40 56 -60 11
-31 -15 10 -26 13 -26 7 0 -6 9 -16 20 -22 29 -15 43 -47 31 -68 -9 -15 -10
-15 -11 -1 0 18 -64 79 -82 79 -12 0 8 -28 35 -48 19 -14 23 -42 7 -42 -29 0
-169 90 -219 139 l-56 56 87 7 c100 7 168 33 195 74 16 26 18 60 21 413 2 213
-1 411 -6 441 -6 42 -10 -11 -16 -235z"/>
<path d="M3901 4356 c-9 -10 -8 -16 3 -25 12 -10 17 -8 25 7 16 30 -6 44 -28
18z"/>
<path d="M4005 4319 c-19 -20 -15 -30 18 -41 4 -2 1 -131 -7 -288 -14 -282
-14 -285 6 -302 11 -10 24 -18 29 -18 5 0 8 139 7 332 -3 287 -5 333 -18 335
-8 1 -24 -7 -35 -18z"/>
<path d="M3466 4314 c-30 -29 -9 -84 31 -84 14 0 14 2 0 18 -23 25 -21 48 5
66 l22 16 -21 0 c-12 0 -29 -7 -37 -16z"/>
<path d="M3535 4080 c-25 -27 -10 -73 24 -78 23 -4 23 -3 8 13 -23 23 -21 50
6 68 22 16 22 16 1 16 -11 1 -29 -8 -39 -19z"/>
<path d="M3645 3866 c-19 -29 -6 -66 22 -66 13 0 14 3 5 12 -17 17 -15 47 3
54 19 8 19 24 0 24 -8 0 -22 -11 -30 -24z"/>
<path d="M3786 3708 c-13 -19 -14 -25 -2 -43 7 -11 22 -22 31 -24 17 -3 18 -2
2 14 -22 22 -21 30 5 55 l22 20 -22 0 c-11 0 -28 -10 -36 -22z"/>
<path d="M7275 3663 c-96 -8 -102 -10 -97 -44 4 -26 8 -30 26 -25 11 4 96 9
188 13 l166 6 4 29 5 28 -126 -2 c-69 -1 -144 -3 -166 -5z"/>
<path d="M7860 3637 c0 -25 31 -57 56 -57 13 0 77 -11 141 -25 65 -14 130 -28
146 -32 24 -5 27 -3 27 20 0 23 -7 28 -57 43 -59 17 -278 64 -300 64 -7 0 -13
-6 -13 -13z"/>
<path d="M3970 3600 c-26 -26 -25 -45 2 -64 24 -17 39 -13 20 6 -19 19 -14 49
8 55 11 3 17 9 14 14 -8 14 -22 11 -44 -11z"/>
<path d="M6701 3540 c-130 -50 -215 -96 -310 -168 -64 -49 -151 -145 -151
-166 0 -5 33 23 74 61 41 38 110 88 157 114 82 45 235 111 292 125 23 5 57 46
57 69 0 9 -12 5 -119 -35z"/>
<path d="M5295 3530 c-4 -12 -5 -23 -3 -24 1 -2 50 -22 107 -45 140 -56 250
-123 333 -202 37 -36 68 -64 68 -62 0 2 -13 24 -29 47 -66 96 -196 192 -356
263 -103 46 -112 48 -120 23z"/>
<path d="M3548 3462 c-109 -59 -195 -126 -247 -192 -55 -70 -52 -82 7 -23 64
67 154 126 285 188 99 47 108 54 89 64 -32 17 -40 14 -134 -37z"/>
<path d="M8377 3503 c-19 -18 0 -37 68 -67 103 -48 209 -118 279 -184 76 -74
54 -30 -28 56 -94 98 -294 221 -319 195z"/>
<path d="M4433 3421 c-31 -64 -113 -161 -135 -161 -25 0 -22 27 7 62 40 47 29
56 -15 13 -23 -23 -40 -48 -40 -62 0 -23 26 -43 55 -43 26 0 105 87 132 145
31 70 28 111 -4 46z"/>
<path d="M4240 3363 c-31 -38 -36 -73 -12 -81 7 -2 12 6 12 20 0 13 11 39 25
58 28 38 29 40 16 40 -5 0 -24 -17 -41 -37z"/>
<path d="M5495 2878 c-2 -7 -5 -19 -7 -27 -3 -11 -32 -14 -139 -15 -125 -1
-137 -3 -184 -28 -57 -30 -110 -78 -132 -122 -25 -47 -29 -148 -9 -201 23 -58
100 -128 167 -150 73 -25 250 -18 299 11 19 11 36 28 38 38 4 17 2 17 -30 0
-18 -9 -65 -19 -104 -22 -96 -6 -160 16 -218 74 -115 115 -96 293 39 355 105
49 265 -6 265 -90 0 -58 18 -31 25 37 3 37 8 86 11 110 3 27 1 42 -6 42 -6 0
-12 -6 -15 -12z"/>
<path d="M6047 2863 l-5 -28 -134 0 c-120 0 -137 -2 -178 -24 -116 -61 -160
-127 -160 -241 0 -53 5 -74 29 -115 53 -93 137 -134 277 -135 102 0 188 21
204 50 15 29 13 29 -40 9 -185 -70 -379 46 -380 228 0 63 13 99 48 137 65 69
170 85 260 40 47 -23 54 -31 64 -70 7 -24 15 -44 19 -44 3 0 10 50 15 110 7
80 6 110 -2 110 -6 0 -14 -12 -17 -27z"/>
<path d="M4390 2820 c0 -5 9 -10 19 -10 50 0 50 -2 20 -148 -16 -75 -39 -175
-52 -222 -19 -72 -25 -85 -46 -90 -14 -3 -26 -10 -28 -15 -2 -6 35 -10 92 -10
59 0 94 4 92 10 -2 6 -16 11 -30 13 -25 3 -27 7 -27 50 1 44 44 320 52 328 2
2 33 -72 68 -164 35 -92 71 -184 81 -206 l17 -39 22 49 c12 27 51 120 87 207
36 87 67 156 69 154 7 -7 71 -367 66 -372 -3 -3 -20 -5 -39 -5 -20 0 -33 -5
-33 -12 0 -10 30 -13 115 -13 85 0 115 3 115 13 0 6 -11 12 -24 12 -14 0 -27
4 -31 10 -3 5 -25 105 -50 222 -45 219 -45 227 -2 228 9 0 17 5 17 10 0 6 -40
10 -100 10 -60 0 -100 -4 -100 -10 0 -5 9 -10 19 -10 11 0 22 -4 25 -9 8 -12
-125 -334 -134 -324 -15 16 -120 315 -115 324 4 5 15 9 26 9 10 0 19 5 19 10
0 6 -42 10 -105 10 -63 0 -105 -4 -105 -10z"/>
<path d="M6105 2820 c3 -5 15 -10 26 -10 13 0 46 -36 103 -112 l84 -113 -29
-40 c-67 -93 -156 -190 -177 -193 -12 -2 -22 -9 -22 -15 0 -8 28 -12 90 -12
67 -1 90 2 90 12 0 7 -11 13 -25 13 -14 0 -25 4 -25 8 0 10 96 171 111 186 5
6 23 -7 46 -35 91 -108 197 -209 220 -209 13 0 22 5 21 13 -2 9 19 12 85 10
63 -1 87 2 84 10 -2 7 -13 13 -25 15 -12 2 -22 9 -22 16 0 14 96 172 109 181
5 3 43 -34 84 -83 92 -108 151 -162 177 -162 11 0 20 3 20 6 0 3 -50 75 -111
160 l-111 155 48 57 c79 95 117 132 135 132 10 0 21 5 24 10 4 6 -27 10 -85
10 -58 0 -89 -4 -85 -10 3 -5 15 -10 26 -10 10 0 19 -3 19 -6 0 -13 -90 -144
-99 -144 -10 0 -86 106 -97 135 -5 11 1 15 20 15 14 0 26 5 26 10 0 6 -43 10
-110 10 -67 0 -110 -4 -110 -10 0 -5 10 -10 23 -10 18 0 41 -24 98 -102 41
-57 79 -109 83 -115 4 -8 -21 -50 -68 -111 -86 -112 -101 -127 -137 -135 -24
-6 -33 3 -117 122 -50 70 -94 135 -97 143 -9 24 131 188 167 195 56 11 26 23
-57 23 -50 0 -85 -4 -85 -10 0 -5 9 -10 20 -10 11 0 20 -4 20 -8 0 -9 -53 -95
-81 -130 l-18 -24 -52 79 c-49 76 -50 78 -27 81 12 2 27 8 33 13 5 5 -37 9
-109 9 -75 0 -115 -4 -111 -10z"/>
<path d="M7156 2821 c5 -5 23 -11 39 -13 l30 -3 0 -225 0 -225 -34 -5 c-19 -3
-36 -9 -38 -15 -2 -6 43 -10 122 -10 90 0 125 3 125 12 0 6 -14 13 -32 15 -25
2 -34 9 -39 28 -9 32 -11 357 -3 399 6 27 10 31 40 31 19 0 34 5 34 10 0 6
-49 10 -127 10 -78 0 -123 -4 -117 -9z"/>
<path d="M7465 2820 c3 -5 22 -10 41 -10 l34 0 -2 -227 -3 -228 -34 -5 c-19
-3 -36 -9 -38 -15 -2 -6 44 -10 124 -9 74 0 127 4 126 10 -1 5 -17 11 -35 14
l-33 5 -7 100 c-4 55 -4 157 -1 228 l6 127 33 0 c18 0 36 5 39 10 4 6 -40 10
-125 10 -85 0 -129 -4 -125 -10z"/>
<path d="M1972 9932 c-183 -196 -380 -446 -524 -666 -92 -140 -96 -151 -71
-178 29 -34 95 -78 105 -72 5 3 6 29 3 59 -8 59 11 110 76 212 48 72 181 233
194 233 7 0 32 -15 56 -32 90 -65 569 -459 589 -485 11 -14 20 -37 20 -50 0
-46 33 -22 61 45 14 34 38 75 52 90 31 32 33 42 12 42 -52 0 -136 50 -283 168
-345 277 -382 310 -382 341 0 32 54 109 142 204 l54 57 79 0 80 1 -62 59 c-99
94 -87 96 -201 -28z"/>
<path d="M10386 9501 c-19 -37 -87 -97 -239 -213 -153 -116 -446 -313 -492
-330 -29 -10 -34 -16 -29 -33 8 -26 32 -53 53 -60 9 -3 25 -20 35 -37 35 -61
126 -178 181 -232 61 -60 129 -90 235 -105 158 -21 300 36 424 170 128 138
173 330 123 521 -9 37 -40 80 -137 198 -68 82 -128 150 -132 150 -4 0 -14 -13
-22 -29z m138 -176 c33 -33 75 -124 87 -187 22 -121 -18 -241 -113 -336 -111
-112 -238 -172 -361 -172 -86 0 -137 22 -242 102 -80 62 -112 107 -96 137 13
24 584 424 644 451 51 24 61 24 81 5z"/>
<path d="M1065 8650 c-14 -27 -50 -75 -81 -106 -72 -71 -68 -97 7 -57 49 25
55 26 114 16 115 -20 479 -178 624 -270 30 -19 86 -61 124 -94 39 -32 74 -56
78 -53 5 3 9 19 9 35 0 45 24 93 59 118 17 12 31 26 31 30 0 5 -26 11 -57 14
-45 4 -126 36 -356 136 -322 142 -445 206 -478 252 -11 16 -27 29 -35 29 -7 0
-25 -22 -39 -50z"/>
<path d="M10985 8449 c-150 -114 -685 -338 -812 -339 -46 -1 -46 -16 2 -81 26
-35 51 -65 55 -67 5 -2 22 7 39 19 25 19 314 139 636 266 50 19 116 38 147 41
32 2 62 10 68 17 16 19 -51 169 -76 172 -10 2 -37 -11 -59 -28z"/>
<path d="M11165 7813 c-367 -168 -545 -234 -700 -259 -58 -10 -104 -20 -102
-23 2 -3 20 -41 40 -85 37 -77 38 -78 60 -62 12 9 54 32 92 50 75 36 732 282
777 291 24 5 26 8 18 33 -5 15 -14 46 -20 70 -8 30 -16 42 -28 41 -9 -1 -71
-26 -137 -56z"/>
<path d="M637 7763 c-2 -5 -22 -66 -43 -138 -32 -109 -39 -145 -39 -220 0
-108 22 -160 87 -202 35 -24 52 -28 107 -28 103 1 173 50 264 184 121 180 221
242 338 211 125 -34 200 -247 135 -385 -42 -91 -175 -185 -262 -185 -47 0 -65
-14 -37 -28 10 -5 53 -18 95 -27 90 -21 86 -24 160 75 62 81 123 206 138 285
25 122 -11 237 -103 330 -75 74 -134 92 -236 71 -143 -30 -217 -88 -305 -238
-72 -124 -134 -178 -206 -178 -40 0 -103 32 -123 64 -21 32 -22 125 -2 193 25
85 63 127 144 158 40 16 68 32 64 36 -5 5 -40 13 -78 19 -85 12 -93 12 -98 3z"/>
<path d="M11510 6744 c-37 -19 -105 -30 -372 -63 -362 -45 -442 -50 -469 -25
-31 28 -49 11 -49 -45 0 -50 18 -151 26 -151 3 0 18 10 35 22 21 16 48 23 92
26 77 5 94 -9 108 -97 24 -150 79 -238 182 -290 65 -33 73 -35 175 -35 94 -1
113 2 155 23 62 32 136 111 171 184 l29 58 -13 192 c-7 106 -16 199 -19 208
-5 14 -12 13 -51 -7z m28 -259 c4 -95 -7 -137 -48 -187 -63 -76 -245 -109
-336 -61 -83 44 -144 145 -144 238 0 59 9 63 195 79 94 7 206 13 250 12 l80
-1 3 -80z"/>
<path d="M1355 6513 c-45 -91 -100 -153 -200 -223 -95 -65 -139 -83 -181 -75
-30 5 -33 9 -40 53 -20 141 -125 215 -304 216 -101 0 -158 -21 -206 -76 -56
-64 -59 -85 -59 -403 0 -284 0 -290 20 -287 11 2 28 13 37 25 17 22 18 22 430
22 372 0 420 -2 480 -19 38 -10 74 -16 81 -13 18 7 13 213 -6 209 -6 -1 -40
-14 -75 -27 -55 -22 -77 -25 -195 -25 -72 0 -138 4 -146 9 -16 10 -27 105 -17
145 5 19 32 37 139 89 138 67 223 132 254 191 14 26 42 192 43 249 0 36 -20
14 -55 -60z m-608 -227 c39 -20 99 -87 118 -132 18 -43 21 -205 4 -236 -11
-20 -15 -21 -207 -14 -254 9 -252 8 -252 139 0 51 5 109 10 129 13 45 52 93
92 114 65 34 171 34 235 0z"/>
<path d="M10675 5790 c-16 -25 -17 -136 -2 -172 16 -37 34 -49 130 -87 44 -17
54 -51 33 -116 -18 -58 -32 -68 -90 -63 -47 5 -40 -17 11 -33 l48 -14 -2 -59
c-2 -69 -23 -106 -58 -106 -26 0 -135 48 -147 65 -10 13 -11 10 -34 -83 -29
-116 -42 -106 191 -132 189 -20 576 -114 702 -170 25 -11 49 -20 54 -20 12 0
31 104 24 133 -4 16 -1 34 9 49 20 31 46 199 46 300 0 110 -16 170 -63 241
-76 111 -162 136 -352 102 -94 -17 -294 -19 -348 -4 -60 16 -105 65 -119 127
-12 51 -21 62 -33 42z m729 -309 c86 -42 145 -136 146 -229 0 -118 -101 -278
-168 -267 -15 3 -81 14 -148 25 -188 31 -358 84 -370 115 -9 24 13 126 33 147
9 10 30 18 47 18 l30 0 -37 34 c-40 36 -42 43 -27 96 18 63 20 64 152 76 174
17 285 12 342 -15z"/>
<path d="M1420 5119 c-36 -10 -76 -18 -89 -18 -23 -1 -22 -2 12 -41 49 -53 72
-132 72 -242 0 -80 -2 -89 -30 -130 -39 -56 -117 -108 -160 -108 -51 0 -79 41
-105 155 -29 122 -25 228 8 255 40 33 28 43 -43 36 -36 -3 -94 -9 -130 -12
-36 -4 -65 -10 -65 -13 0 -3 20 -17 44 -30 32 -16 49 -34 59 -60 22 -54 62
-302 54 -333 -9 -34 -45 -42 -165 -36 -110 5 -198 43 -271 116 -81 81 -96 119
-95 237 0 114 15 155 65 180 31 17 37 47 9 52 -27 5 -113 -70 -139 -122 -23
-44 -26 -61 -26 -160 0 -104 2 -114 32 -176 47 -94 119 -159 246 -219 127 -60
197 -75 330 -67 176 9 318 68 412 168 92 100 116 213 79 381 -9 40 -17 102
-18 137 0 35 -5 65 -11 66 -5 1 -39 -6 -75 -16z"/>
<path d="M10387 4524 c-9 -13 -17 -37 -17 -55 0 -18 -15 -69 -34 -114 -43
-100 -86 -246 -86 -292 0 -19 7 -62 16 -96 47 -181 168 -298 360 -347 191 -49
380 1 523 139 l58 56 56 175 c30 96 58 185 61 197 6 20 4 21 -31 16 -80 -10
-556 167 -808 301 l-81 43 -17 -23z m399 -300 c181 -74 348 -146 371 -160 66
-38 69 -52 29 -132 -63 -125 -176 -201 -311 -210 -182 -12 -401 104 -474 250
-27 54 -31 71 -31 148 0 145 29 240 74 240 8 0 161 -61 342 -136z"/>
<path d="M1819 3970 c-29 -41 -468 -281 -640 -349 -93 -36 -185 -61 -230 -61
-63 0 -66 -10 -30 -97 58 -140 102 -187 117 -125 13 55 53 85 282 207 212 113
353 175 398 175 48 0 84 -21 134 -77 57 -65 73 -99 66 -137 -13 -63 -53 -104
-189 -192 -290 -189 -407 -305 -407 -405 0 -52 43 -112 112 -158 74 -50 93
-43 58 23 -22 40 -23 47 -11 87 25 87 91 177 165 228 23 16 86 52 141 81 132
70 173 99 228 160 55 61 71 104 65 176 -6 68 -59 150 -127 193 -54 35 -96 77
-84 84 4 2 25 10 45 16 61 20 63 32 14 83 -24 25 -46 59 -49 77 -8 36 -37 42
-58 11z"/>
<path d="M9960 3419 c-161 -27 -278 -139 -329 -315 -13 -44 -27 -83 -32 -88
-5 -6 -18 -1 -33 13 -16 15 -33 21 -51 19 -25 -3 -27 -7 -31 -53 l-4 -50 65
-45 c85 -59 368 -277 459 -352 39 -33 114 -102 167 -154 53 -52 101 -94 107
-94 16 0 134 138 128 149 -4 5 -23 15 -44 21 -153 49 -406 215 -591 385 l-63
59 4 81 c9 148 75 260 167 285 55 14 139 1 216 -34 29 -13 124 -68 211 -122
88 -54 184 -108 214 -121 61 -25 137 -30 191 -11 39 13 89 45 89 57 0 5 -22
11 -50 15 -27 4 -68 13 -92 22 -81 28 -231 119 -301 182 -84 75 -179 130 -256
148 -63 15 -64 15 -141 3z"/>
<path d="M2510 2886 c0 -13 -16 -56 -36 -96 -31 -61 -64 -100 -228 -264 -184
-186 -368 -339 -423 -352 -38 -10 -27 -39 33 -91 31 -26 71 -72 90 -100 19
-29 38 -53 44 -53 5 0 12 12 15 28 28 131 24 124 144 272 173 213 422 450 489
465 42 9 69 40 52 60 -7 8 -18 15 -25 15 -8 0 -36 32 -64 70 -54 74 -91 93
-91 46z"/>
<path d="M9290 2672 c-56 -25 -110 -98 -110 -147 0 -24 16 -55 60 -116 l59
-84 -35 -36 c-55 -56 -97 -76 -133 -62 -43 16 -57 3 -36 -36 16 -32 16 -33
-10 -67 -28 -37 -72 -64 -104 -64 -23 0 -59 51 -97 135 -12 27 -29 58 -36 69
-14 18 -15 18 -54 -2 -21 -11 -58 -23 -81 -27 -24 -4 -46 -12 -50 -18 -3 -6
10 -24 29 -41 35 -31 151 -163 284 -326 81 -100 213 -293 273 -400 60 -106 63
-109 106 -86 19 11 107 88 194 173 177 170 209 217 218 320 7 78 -12 202 -39
259 -33 70 -127 164 -237 238 -188 125 -249 234 -161 284 17 9 28 22 27 27 -4
12 -46 17 -67 7z m142 -442 c81 -59 146 -139 196 -239 33 -68 37 -83 37 -155
0 -110 -29 -169 -130 -265 -41 -39 -81 -71 -89 -71 -32 0 -50 17 -129 114 -44
55 -113 139 -153 186 -93 110 -124 157 -124 187 0 29 91 123 119 123 10 0 35
-11 56 -25 20 -15 40 -23 43 -20 3 3 0 28 -6 56 -9 37 -9 56 -1 72 20 38 72
87 93 87 12 0 51 -23 88 -50z"/>
<path d="M3030 2387 c0 -7 16 -21 35 -30 46 -22 75 -70 75 -125 0 -39 -4 -46
-62 -99 -169 -154 -255 -248 -285 -313 -62 -132 -75 -283 -34 -377 42 -94 171
-195 299 -234 39 -11 42 -15 37 -39 -5 -23 1 -29 70 -68 41 -24 79 -41 84 -38
4 3 13 38 20 78 16 97 60 204 156 373 115 203 227 367 285 416 50 42 65 67 33
55 -24 -9 -111 22 -127 46 -19 27 -46 17 -46 -17 0 -54 -318 -631 -385 -697
-51 -51 -112 -31 -218 71 -62 59 -85 97 -96 157 -26 136 50 282 227 434 63 54
95 90 115 129 56 112 23 216 -85 272 -43 22 -98 25 -98 6z"/>
<path d="M8211 1929 c-12 -17 -47 -46 -77 -65 -30 -19 -54 -39 -54 -43 0 -5
28 -47 62 -93 84 -113 210 -307 297 -457 149 -257 169 -314 121 -352 -67 -50
-218 -66 -297 -29 -92 41 -187 156 -276 335 -82 165 -121 312 -115 433 1 40 0
72 -3 72 -4 0 -26 -11 -50 -24 -24 -14 -74 -37 -111 -51 -38 -15 -68 -31 -68
-36 0 -5 17 -17 38 -28 20 -11 42 -28 49 -39 6 -10 32 -90 58 -178 96 -324
135 -406 241 -503 93 -86 206 -114 352 -87 122 22 252 88 367 189 l39 34 -50
59 c-89 104 -249 355 -335 525 -61 123 -149 325 -149 344 0 27 -17 24 -39 -6z"/>
<path d="M4220 1663 c0 -44 -11 -89 -47 -188 -62 -171 -274 -596 -325 -651
-54 -59 -48 -84 18 -84 31 0 57 -13 110 -57 23 -18 46 -33 53 -33 7 0 11 26
11 80 0 43 5 103 11 132 19 89 224 563 252 580 17 11 196 10 237 -2 39 -11
117 -81 131 -117 18 -49 9 -142 -30 -295 -21 -84 -41 -171 -45 -194 -8 -55 8
-145 38 -209 26 -58 110 -155 132 -155 21 0 17 24 -7 46 -49 44 -64 92 -63
204 0 92 6 128 51 300 64 248 66 257 52 320 -15 71 -76 137 -161 175 -54 24
-73 28 -152 26 -50 -1 -104 -3 -121 -4 -26 -2 -30 1 -28 21 2 12 15 40 29 61
14 22 23 45 19 50 -3 6 -23 11 -43 11 -21 0 -55 9 -77 20 -22 11 -41 20 -42
20 -2 0 -3 -26 -3 -57z"/>
<path d="M7035 1444 c-38 -19 -77 -34 -87 -34 -15 0 -13 -9 16 -62 19 -35 54
-115 79 -178 45 -114 178 -541 222 -715 23 -88 24 -90 51 -88 47 4 165 43 170
57 3 7 -19 52 -47 101 -62 106 -138 271 -189 415 -44 121 -120 416 -120 463 0
38 -10 77 -19 76 -3 0 -37 -16 -76 -35z"/>
<path d="M5795 836 l-100 -95 40 -43 c22 -24 64 -69 94 -100 l54 -57 36 31
c20 17 66 59 103 92 l67 62 -97 102 -97 102 -100 -94z"/>
</g>
</svg>
