<?xml version="1.0" standalone="no"?>
<!DOCTYPE svg PUBLIC "-//W3C//DTD SVG 20010904//EN"
 "http://www.w3.org/TR/2001/REC-SVG-20010904/DTD/svg10.dtd">
<svg version="1.0" xmlns="http://www.w3.org/2000/svg"
 width="286.000000pt" height="273.000000pt" viewBox="0 0 286.000000 273.000000"
 preserveAspectRatio="xMidYMid meet">

<g transform="translate(0.000000,273.000000) scale(0.100000,-0.100000)"
fill="#000000" stroke="none">
<path d="M1441 2661 c-38 -38 -27 -68 37 -100 32 -16 42 -27 42 -46 0 -18 -7
-26 -27 -31 -22 -6 -31 -2 -55 27 l-28 33 0 -31 c0 -30 3 -32 44 -38 52 -8 83
6 92 40 8 31 -7 50 -58 76 -29 15 -38 26 -38 44 0 21 5 25 30 25 22 0 33 -7
44 -27 l15 -28 1 31 c0 18 -5 31 -12 31 -7 0 -25 4 -40 8 -20 5 -31 2 -47 -14z"/>
<path d="M1210 2654 c-92 -21 -97 -23 -81 -33 10 -7 7 -25 -14 -92 -14 -46
-31 -90 -38 -98 -10 -12 -8 -13 13 -8 14 4 30 7 35 7 6 0 4 4 -4 9 -22 14 -4
70 27 82 14 5 31 8 39 5 17 -7 17 -58 1 -75 -11 -11 -9 -12 7 -8 11 3 48 11
83 18 59 11 62 13 62 40 0 35 -16 38 -24 5 -4 -17 -15 -26 -37 -31 -36 -8 -44
-2 -54 43 -6 29 -5 32 18 32 14 0 27 -6 30 -12 8 -24 15 -3 10 30 -5 31 -23
46 -23 18 0 -14 -37 -29 -44 -18 -2 4 -7 21 -10 39 -7 29 -5 32 24 38 23 5 37
2 52 -12 21 -17 21 -17 15 0 -4 10 -7 23 -7 28 0 11 1 11 -80 -7z m-27 -80 c5
-29 3 -32 -21 -37 -15 -3 -28 -4 -29 -3 -2 2 4 24 13 51 18 50 26 47 37 -11z"/>
<path d="M1576 2646 c-7 -27 3 -36 15 -13 10 17 44 23 53 9 10 -16 -24 -157
-41 -169 -15 -12 -14 -13 8 -13 13 0 35 -3 49 -6 23 -6 23 -5 8 7 -16 13 -16
22 -7 89 7 41 15 79 19 83 11 12 39 -3 45 -24 8 -23 25 -15 25 12 0 10 -1 19
-2 19 -2 0 -40 6 -85 14 -79 13 -82 12 -87 -8z"/>
<path d="M1777 2608 c2 -13 7 -63 11 -113 l7 -89 64 77 c38 46 71 77 82 77 26
0 24 -10 -16 -90 -23 -46 -41 -70 -53 -70 -37 -1 75 -49 116 -50 76 0 121 69
88 136 -13 27 -32 42 -88 69 -77 37 -109 45 -90 22 8 -10 1 -26 -31 -64 -22
-29 -45 -49 -49 -47 -4 3 -8 34 -8 70 0 54 3 64 17 64 24 0 5 17 -28 25 -24 6
-26 4 -22 -17z m257 -93 c28 -26 32 -48 16 -89 -22 -58 -74 -82 -114 -53 -17
12 -15 18 20 90 21 42 41 77 45 77 3 0 18 -11 33 -25z"/>
<path d="M968 2587 c-32 -12 -37 -27 -9 -27 13 0 24 -15 37 -47 11 -27 21 -52
23 -57 2 -4 -32 11 -75 35 -67 36 -84 41 -109 34 -28 -8 -29 -9 -6 -13 17 -3
30 -19 52 -68 52 -114 33 -125 -81 -48 -45 31 -84 53 -87 50 -3 -2 4 -47 15
-98 15 -66 18 -96 10 -105 -17 -21 7 -16 33 7 19 16 21 19 7 20 -9 0 -20 10
-23 21 -5 16 0 27 21 44 26 21 30 21 52 7 13 -8 21 -21 18 -28 -3 -7 21 1 54
19 45 25 54 33 41 39 -17 6 -67 105 -58 115 3 2 42 -17 87 -42 44 -26 83 -46
85 -44 2 3 -12 40 -32 84 -27 63 -32 84 -24 97 12 20 8 21 -31 5z m-189 -233
c-14 -17 -39 -18 -39 -1 0 6 -3 23 -7 36 l-6 25 32 -23 c25 -18 29 -26 20 -37z"/>
<path d="M2130 2471 c0 -6 4 -13 10 -16 5 -3 -11 -37 -37 -76 -36 -54 -50 -68
-65 -63 -29 9 -21 -1 22 -30 36 -24 54 -24 31 0 -12 12 74 139 94 138 8 -1 15
1 15 5 0 10 -70 52 -70 42z"/>
<path d="M561 2332 l-63 -57 22 -20 21 -19 -6 25 c-4 17 -1 30 10 39 14 12 23
6 71 -46 33 -36 52 -66 50 -76 -6 -26 7 -22 40 14 23 25 25 30 9 24 -16 -6
-31 5 -77 56 -51 56 -56 64 -41 75 9 7 27 10 42 6 26 -6 26 -6 7 16 -11 11
-20 21 -20 21 -1 0 -30 -26 -65 -58z"/>
<path d="M1646 2287 l-19 -88 22 -21 c19 -17 25 -18 32 -7 11 18 11 33 -1 45
-5 5 -10 43 -12 84 l-3 75 -19 -88z"/>
<path d="M2187 2350 c-58 -46 -56 -135 4 -165 45 -24 77 -19 115 19 67 67 34
166 -54 166 -24 0 -49 -8 -65 -20z m131 -44 c4 -33 -32 -90 -66 -105 -37 -17
-60 -13 -78 14 -14 21 -14 30 -4 54 14 35 58 77 85 83 29 7 60 -15 63 -46z"/>
<path d="M451 2219 c-19 -25 -20 -30 -6 -27 9 2 43 -19 75 -47 45 -38 57 -55
53 -70 -6 -20 -6 -20 17 0 12 11 26 27 31 36 7 14 5 16 -10 12 -23 -6 -134 94
-127 113 9 25 -10 15 -33 -17z"/>
<path d="M2410 2233 c0 -25 -116 -117 -136 -109 -11 4 -12 1 -5 -13 6 -10 17
-23 25 -31 13 -10 16 -10 16 2 0 18 47 64 57 55 3 -4 1 -31 -6 -61 -10 -44
-10 -60 0 -78 12 -22 14 -20 20 26 11 71 14 76 46 70 21 -4 33 0 47 14 22 26
16 48 -30 103 -26 31 -34 36 -34 22z m50 -78 c0 -33 -53 -48 -78 -23 -10 10
-6 18 20 40 36 29 58 23 58 -17z"/>
<path d="M379 2134 c-16 -27 -16 -28 28 -86 25 -33 43 -61 41 -64 -3 -2 -36 2
-74 10 -68 15 -69 15 -86 -7 -23 -28 -22 -36 1 -30 24 6 141 -67 141 -88 0
-20 -17 -34 -52 -43 -14 -3 -33 -8 -41 -12 -10 -3 -17 3 -21 21 -9 34 -49 53
-72 34 -16 -13 -34 -48 -48 -96 -6 -18 -4 -22 9 -17 15 6 128 -30 152 -49 7
-5 10 -13 7 -18 -3 -5 -1 -9 3 -9 5 0 14 15 21 33 14 39 15 58 3 38 -7 -11
-17 -12 -42 -5 -61 17 -44 37 51 58 24 5 28 13 69 109 2 5 -5 3 -16 -3 -16
-10 -28 -7 -76 24 -31 20 -57 38 -57 40 0 2 38 -4 85 -14 47 -10 85 -15 85
-13 0 3 -23 36 -50 74 -28 38 -48 69 -45 69 3 0 32 -17 65 -37 45 -29 58 -42
54 -55 -9 -28 3 -21 25 16 24 38 27 53 8 38 -18 -15 -144 60 -149 89 -3 18 -4
18 -19 -7z m-79 -313 c10 -20 4 -51 -10 -51 -17 0 -70 23 -70 30 0 42 60 57
80 21z"/>
<path d="M1924 2134 c3 -9 6 -20 6 -25 0 -5 11 -9 25 -9 42 0 83 -28 105 -70
26 -52 25 -60 -9 -60 -24 0 -31 6 -45 44 -9 24 -26 52 -36 61 -20 18 -21 17
-45 -5 -14 -13 -25 -33 -25 -45 0 -11 -9 -38 -20 -60 -11 -22 -20 -41 -20 -42
0 -2 14 -3 30 -3 26 0 31 -5 37 -30 3 -17 15 -37 26 -45 28 -20 15 -29 -46
-32 -51 -2 -190 -40 -153 -42 11 -1 43 6 71 15 60 19 120 13 134 -15 6 -10 13
-51 17 -93 7 -83 -3 -131 -37 -167 -20 -22 -22 -22 -41 -4 -19 17 -20 17 -16
-12 2 -25 8 -31 33 -33 23 -3 35 3 52 25 l23 28 -11 -35 c-6 -19 -18 -40 -25
-46 -9 -7 -12 -22 -8 -41 4 -20 1 -33 -10 -42 -9 -8 -16 -24 -16 -37 0 -13 -9
-38 -20 -56 -28 -47 -25 -64 20 -124 45 -60 48 -74 20 -99 -22 -20 -26 -50 -9
-60 5 -4 35 9 65 30 58 38 80 41 98 13 13 -22 3 -33 -20 -20 -20 11 -54 4 -54
-12 0 -6 17 -20 38 -31 25 -14 38 -28 40 -45 3 -24 3 -24 -28 8 -25 27 -33 32
-45 22 -8 -6 -19 -9 -25 -5 -6 3 -26 -3 -45 -15 -31 -19 -35 -20 -35 -5 0 27
-27 0 -40 -40 -12 -38 -28 -44 -132 -54 l-68 -7 0 93 0 92 49 46 c46 43 101
131 116 185 3 14 -8 -2 -25 -35 -42 -81 -120 -159 -200 -198 -61 -30 -70 -32
-180 -32 -112 0 -117 1 -178 34 -82 45 -153 116 -191 192 -37 74 -42 61 -6
-16 50 -105 152 -194 264 -230 75 -24 219 -17 278 13 23 12 45 22 48 22 3 0 5
-36 5 -81 l0 -81 -62 8 c-35 4 -75 7 -91 7 -32 -1 -88 -36 -147 -92 -41 -39
-42 -42 -38 -90 5 -51 23 -85 39 -75 5 3 9 17 9 31 0 39 31 82 75 103 32 15
62 20 128 20 48 0 87 4 87 9 0 12 -33 20 -115 27 -66 6 -72 4 -115 -24 -54
-37 -68 -32 -23 8 47 42 105 57 151 40 21 -8 76 -14 127 -15 53 0 90 -4 90
-10 -2 -35 -57 -123 -93 -150 -44 -32 -52 -54 -27 -75 8 -7 15 -21 15 -31 0
-10 5 -21 10 -24 6 -4 22 -24 35 -44 23 -38 60 -58 71 -40 3 5 -2 9 -10 9 -8
0 -24 10 -35 22 -18 19 -19 23 -5 32 13 10 13 15 -1 43 -12 24 -13 37 -6 52 9
15 7 20 -9 24 -22 6 -27 32 -9 43 6 3 15 0 21 -7 7 -11 12 -9 26 11 9 13 24
32 33 41 9 9 28 41 41 71 40 86 98 119 161 90 l39 -17 -84 -57 c-107 -73 -156
-124 -163 -168 l-5 -35 10 31 c18 56 50 76 140 85 79 8 170 45 170 69 0 14
-13 12 -29 -3 -11 -10 -12 -8 -7 13 4 14 10 45 13 68 l6 44 22 -28 22 -28 31
49 c18 28 33 54 35 60 2 6 14 5 31 -3 54 -24 118 -10 160 37 24 27 12 27 -21
1 -25 -19 -83 -28 -83 -12 0 4 9 31 21 61 58 153 96 413 83 574 -8 101 1 109
61 56 40 -35 45 -31 14 12 -51 73 -142 77 -203 10 -22 -24 -36 -27 -36 -7 0
16 -37 46 -57 46 -7 0 -11 -11 -10 -27 3 -40 -28 -42 -48 -4 -19 38 -48 43
-39 7 11 -46 -44 -46 -64 0 -17 36 -15 91 3 98 10 3 15 19 15 45 0 37 -2 40
-32 43 -28 3 -32 7 -33 33 0 17 -6 33 -15 36 -11 4 -5 11 19 24 33 17 35 17
48 -1 7 -10 13 -21 13 -26 0 -17 18 -7 23 13 5 19 11 21 43 16 36 -6 36 -6 30
25 -11 54 -55 118 -104 149 -51 32 -98 39 -88 13z m232 -654 c-14 -39 -29 -96
-32 -126 -4 -29 -10 -54 -14 -54 -9 0 -40 74 -40 95 0 8 -9 20 -20 27 -15 10
-20 24 -20 60 0 37 -4 50 -20 58 -33 18 -14 35 34 32 37 -3 47 0 62 20 l18 24
29 -32 28 -33 -25 -71z m-48 -288 l3 -34 -44 26 c-24 14 -52 26 -63 27 -15 1
-14 3 6 9 14 5 41 8 60 7 32 -2 35 -5 38 -35z m-1 -75 c6 -6 15 -25 19 -42 l7
-30 -32 28 c-19 16 -45 27 -62 27 -30 0 -41 23 -16 34 18 8 70 -3 84 -17z m67
-178 c-8 -14 -24 8 -24 36 0 18 1 18 16 -3 8 -12 12 -27 8 -33z"/>
<path d="M726 2121 c-3 -5 -3 -16 0 -25 5 -13 1 -15 -25 -10 -26 5 -30 4 -25
-9 3 -8 1 -18 -4 -21 -16 -9 -2 -45 22 -58 19 -10 20 -10 7 6 -8 9 -11 19 -8
23 9 8 38 -17 32 -27 -9 -14 23 -32 45 -25 27 9 26 33 -3 44 -13 5 -29 16 -36
24 -11 14 -8 14 29 0 61 -24 82 -83 29 -83 -20 0 -21 -3 -15 -55 6 -51 4 -56
-19 -71 -14 -9 -32 -32 -40 -51 -8 -19 -30 -53 -50 -77 -39 -47 -45 -88 -19
-117 10 -11 14 -25 10 -35 -6 -16 -10 -15 -33 9 -40 39 -35 80 20 159 47 69
65 127 48 156 -8 14 -10 10 -11 -19 0 -51 -57 -133 -94 -137 -35 -4 -74 21
-82 53 -10 39 -23 29 -14 -11 10 -44 36 -74 65 -74 19 0 22 -5 21 -52 0 -29 5
-97 11 -152 9 -75 17 -104 32 -120 17 -18 21 -35 21 -93 0 -92 22 -127 107
-168 36 -17 76 -46 94 -68 29 -35 29 -37 9 -37 -12 0 -38 -13 -58 -29 -24 -19
-51 -31 -77 -33 l-40 -3 3 -52 c2 -28 -1 -60 -7 -71 -11 -21 -4 -92 10 -92 5
0 9 13 9 29 0 17 5 33 10 36 14 9 45 86 42 103 -3 15 3 15 28 2 22 -12 100 13
113 35 11 20 57 20 57 0 0 -9 -17 -19 -45 -26 -62 -16 -66 -29 -7 -22 l49 5
-1 -68 c-1 -63 2 -74 38 -132 40 -64 40 -67 33 -172 -2 -20 3 -26 23 -28 14
-2 32 -9 40 -16 20 -17 122 -38 143 -30 31 12 6 26 -35 19 -37 -7 -40 -6 -33
14 4 14 1 23 -9 27 -11 4 -14 14 -10 29 7 28 -23 49 -47 34 -25 -15 -49 -10
-49 11 0 13 5 18 15 14 21 -9 19 28 -5 80 -11 24 -22 62 -26 85 -7 43 -18 52
-28 25 -11 -28 -26 -4 -26 42 0 40 5 51 40 85 44 44 47 51 26 68 -8 7 -12 21
-9 31 3 13 -3 26 -17 38 -16 13 -21 26 -18 54 l3 37 40 -33 40 -34 -2 -158
c-1 -139 0 -148 7 -69 4 50 11 126 14 170 l8 80 -55 65 c-31 36 -69 74 -86 85
-17 11 -36 32 -42 47 -6 14 -24 41 -40 59 -40 45 -43 59 -24 144 15 65 20 76
41 81 34 9 36 3 14 -39 -33 -61 -22 -75 13 -17 41 70 74 84 118 51 l31 -23 15
24 c35 52 127 131 184 158 123 58 247 60 363 7 84 -39 174 -139 212 -236 13
-32 14 -33 9 -6 -8 41 -42 110 -71 145 l-24 28 23 6 c36 9 72 7 85 -6 7 -7 12
-30 12 -53 0 -65 45 -90 69 -39 25 55 26 214 1 214 -4 0 -6 -18 -3 -40 5 -33
3 -40 -11 -40 -9 0 -27 17 -39 37 -16 28 -23 33 -25 20 -2 -9 -10 -17 -18 -17
-8 0 -41 -9 -74 -21 -87 -30 -90 -26 -90 127 0 76 -4 124 -10 124 -6 0 -10
-45 -10 -115 0 -63 -3 -115 -7 -115 -29 1 -32 17 -22 105 6 50 11 99 11 110
-1 27 16 45 45 45 22 0 24 2 13 15 -9 11 -9 15 -1 15 7 0 9 5 6 10 -3 6 -1 10
6 10 8 0 8 4 -2 16 -11 13 -9 14 16 8 21 -5 27 -4 23 7 -3 8 -21 15 -45 17
-40 3 -40 3 -61 -50 -12 -29 -26 -75 -32 -101 -6 -27 -17 -65 -25 -84 -8 -20
-15 -45 -15 -58 0 -22 -2 -22 -98 -17 -158 7 -262 -36 -346 -144 -46 -60 -57
-59 -109 2 -35 41 -47 43 -47 6 0 -31 -32 -68 -49 -57 -6 3 -10 20 -8 37 3 42
-20 48 -30 7 -18 -68 -65 -61 -77 11 -4 24 -15 45 -28 54 -33 24 -42 19 -23
-10 23 -36 15 -102 -18 -145 -35 -46 -43 -84 -24 -112 10 -15 12 -29 6 -38 -7
-12 -12 -10 -30 8 -34 34 -29 89 15 159 41 68 45 97 15 117 -17 13 -19 19 -10
36 15 27 62 51 101 51 23 0 33 5 37 20 4 16 14 20 49 20 45 0 59 14 24 23 -20
5 -29 47 -10 47 5 0 7 14 3 33 -6 29 -5 31 10 18 9 -7 25 -10 34 -6 17 6 17 7
0 19 -24 18 -7 66 24 66 11 0 19 5 17 11 -6 18 -89 48 -133 48 -23 1 -45 5
-50 9 -27 24 -84 52 -89 43z m-29 -478 c17 -48 -5 -73 -27 -33 -11 21 -5 60
10 60 4 0 12 -12 17 -27z m101 -125 c18 -18 15 -64 -8 -108 -11 -22 -20 -47
-20 -55 0 -9 -6 -15 -12 -13 -22 7 -20 47 2 84 16 26 21 45 17 70 -6 35 1 42
21 22z m-43 -53 c0 -26 -21 -30 -28 -6 -2 11 -2 22 1 26 11 10 27 -2 27 -20z
m136 -250 c22 -7 63 -90 53 -107 -3 -5 -17 1 -31 14 -19 16 -27 19 -30 10 -4
-10 -8 -10 -19 -1 -8 6 -14 8 -14 3 0 -9 -37 47 -65 101 -9 17 -33 41 -53 55
l-37 25 40 3 c36 3 44 0 73 -34 34 -40 44 -35 12 6 -11 14 -19 34 -19 45 0 11
15 -9 34 -47 21 -40 43 -69 56 -73z"/>
<path d="M2510 2105 c0 -11 -25 -51 -55 -89 -30 -38 -55 -73 -55 -78 0 -5 15
-6 33 -3 106 17 161 24 169 19 22 -14 -1 -38 -56 -60 -67 -27 -92 -30 -99 -11
-4 7 -6 8 -6 1 -1 -7 6 -27 14 -45 11 -26 14 -29 15 -13 0 16 15 27 63 48 34
14 65 26 69 26 4 0 -21 -27 -57 -60 -35 -33 -61 -61 -57 -64 4 -2 42 -3 84 -2
43 0 78 -1 78 -4 0 -3 -28 -16 -62 -29 -47 -18 -65 -21 -79 -13 -16 10 -16 9
-1 -31 10 -23 18 -34 20 -26 4 22 153 80 170 67 15 -13 15 -6 0 27 -11 24 -16
25 -87 25 l-76 1 54 50 c59 55 60 65 18 136 -19 33 -22 35 -25 16 -3 -18 -13
-23 -66 -32 -34 -6 -66 -11 -70 -11 -4 0 12 25 36 55 29 36 49 53 60 51 19 -4
15 9 -16 49 l-15 20 -1 -20z"/>
<path d="M1747 2053 c-10 -9 -9 -23 2 -23 5 0 11 7 15 15 5 15 -5 20 -17 8z"/>
<path d="M2076 1928 c-15 -49 -13 -78 9 -126 13 -29 29 -52 36 -52 9 0 9 3 0
14 -18 21 -3 63 25 70 33 9 30 19 -9 38 -24 12 -34 23 -33 39 1 24 -22 39 -28
17z"/>
<path d="M970 1870 c0 -5 5 -10 10 -10 6 0 10 5 10 10 0 6 -4 10 -10 10 -5 0
-10 -4 -10 -10z"/>
<path d="M586 1844 c-20 -20 -20 -43 0 -72 21 -31 36 -28 23 5 -5 14 -7 39 -4
55 7 32 3 35 -19 12z"/>
<path d="M907 1759 c13 -13 85 -41 90 -35 2 2 -20 13 -49 25 -29 12 -47 16
-41 10z"/>
<path d="M1394 1679 c-22 -18 -65 -58 -97 -87 l-58 -55 -57 6 -57 6 30 -24
c17 -13 41 -34 53 -47 l24 -23 31 36 c18 20 48 42 67 48 19 6 47 26 62 44 l27
32 -14 -40 c-26 -74 -23 -80 45 -83 69 -3 68 -6 45 103 -10 46 -23 78 -39 93
l-23 24 -39 -33z m75 -28 c7 -16 16 -54 20 -84 6 -46 5 -57 -7 -62 -23 -9 -29
4 -35 70 -3 33 -8 70 -12 83 -11 34 20 28 34 -7z m-90 -62 c-6 -11 -31 -30
-56 -41 -26 -11 -56 -31 -69 -45 -13 -14 -28 -22 -33 -18 -16 9 -13 25 4 25 9
0 34 17 56 38 66 61 122 84 98 41z"/>
<path d="M204 1681 c-59 -25 -72 -105 -25 -152 39 -39 106 -41 148 -5 38 33
39 95 2 132 -28 28 -89 40 -125 25z m94 -41 c38 -17 42 -23 42 -54 0 -40 -20
-56 -70 -56 -72 0 -120 42 -105 91 13 40 68 48 133 19z"/>
<path d="M2720 1617 c0 -7 -38 -34 -85 -58 -47 -24 -85 -47 -85 -51 0 -7 28
-16 125 -39 58 -14 78 -29 69 -52 -5 -14 -20 -17 -80 -17 -64 0 -75 3 -88 22
-16 22 -16 21 -16 -22 1 -36 3 -41 11 -27 8 13 24 17 74 17 36 0 65 -3 65 -7
0 -5 -35 -33 -77 -63 -72 -50 -76 -55 -53 -61 14 -4 55 -7 93 -8 52 -1 67 -4
67 -16 0 -8 5 -15 10 -15 6 0 10 19 10 43 -1 37 -2 40 -14 25 -10 -14 -28 -18
-77 -18 l-64 0 77 53 c77 52 77 52 77 97 0 45 -17 106 -18 68 -1 -10 -7 -18
-13 -18 -18 0 -119 28 -125 34 -3 2 23 19 57 36 50 25 65 29 71 18 6 -8 9 0 9
24 0 20 -4 40 -10 43 -5 3 -10 0 -10 -8z"/>
<path d="M1713 1548 c-34 -9 -54 -28 -29 -28 8 0 18 5 21 10 4 6 10 8 14 6 8
-5 38 11 31 17 -3 2 -19 0 -37 -5z"/>
<path d="M1700 1508 c-12 -22 -12 -22 6 -6 10 10 15 20 12 24 -4 3 -12 -5 -18
-18z"/>
<path d="M1635 1488 c4 -18 7 -59 6 -91 -1 -34 5 -70 14 -87 15 -29 15 -30
-11 -36 -14 -4 -45 -1 -67 7 -23 7 -50 12 -61 11 -16 -2 -17 0 -6 13 7 8 18
15 24 15 26 1 37 16 27 41 -7 17 -10 19 -10 7 -2 -34 -21 -18 -21 17 0 33 1
34 26 25 34 -13 39 -13 24 5 -7 8 -17 15 -23 15 -6 0 -20 9 -32 20 -12 11 -42
23 -67 26 -39 5 -52 3 -79 -17 -19 -13 -49 -29 -68 -34 -19 -6 -36 -15 -38
-22 -3 -9 5 -9 31 -1 42 13 51 8 42 -27 -7 -29 -22 -33 -29 -7 -4 16 -5 16 -6
0 -1 -19 -21 -26 -21 -8 0 18 -20 11 -21 -7 0 -16 -1 -16 -8 1 -6 15 -9 17
-16 6 -5 -8 -1 -18 10 -27 18 -12 18 -13 -2 -13 -26 0 -93 -73 -93 -100 0 -24
58 -52 155 -77 80 -20 99 -33 115 -83 11 -32 16 -38 22 -25 13 22 18 114 6
121 -5 3 -9 0 -7 -7 1 -8 1 -25 0 -39 l-1 -25 -13 23 c-10 21 -111 71 -142 72
-16 1 -62 40 -47 40 7 0 10 5 7 10 -4 6 5 10 20 10 14 0 41 6 60 14 22 10 37
11 41 5 3 -6 11 -8 17 -6 7 2 20 0 30 -5 14 -7 25 -4 44 14 17 15 27 19 30 11
6 -16 155 -73 191 -73 30 0 52 16 52 37 0 10 -6 10 -25 -3 -24 -16 -24 -16
-24 18 1 18 -4 55 -10 81 -6 27 -9 64 -5 82 3 19 2 40 -3 47 -4 7 -8 22 -8 33
0 11 -8 21 -19 23 -16 4 -18 0 -11 -30z m-185 -38 c0 -5 -6 -10 -14 -10 -8 0
-16 -7 -20 -15 -3 -8 -10 -15 -16 -15 -5 0 0 11 12 25 23 26 38 32 38 15z m48
-37 c-2 -10 -16 -24 -31 -31 -16 -8 -27 -21 -27 -33 0 -26 25 -24 46 4 16 22
16 22 10 -12 -10 -57 -64 -99 -62 -49 1 17 -5 22 -23 23 -13 0 -26 6 -29 14
-3 10 2 13 22 9 36 -7 37 29 1 38 -14 3 -25 10 -25 15 0 5 11 9 25 9 14 0 25
4 25 9 0 5 12 12 28 14 15 2 31 5 35 6 5 0 7 -7 5 -16z m-133 -93 c7 -12 -2
-12 -30 0 -19 8 -19 9 2 9 12 1 25 -3 28 -9z m-15 -35 c0 -19 -13 -24 -76 -33
-38 -6 -51 -13 -61 -32 -11 -21 -13 -22 -13 -5 0 10 14 34 32 52 26 27 39 33
75 33 32 0 43 -4 43 -15z m48 -21 c-4 -3 -12 5 -18 18 -12 22 -12 22 6 6 10
-10 15 -20 12 -24z"/>
<path d="M130 1446 c0 -38 1 -38 19 -22 14 13 33 16 77 14 l59 -3 -77 -54
c-68 -48 -78 -59 -78 -85 0 -27 1 -28 13 -12 10 14 26 16 92 14 112 -4 112
-21 4 -85 -46 -27 -84 -53 -86 -59 -2 -5 36 -18 84 -28 49 -10 97 -25 107 -34
18 -16 19 -16 13 8 -4 14 -7 31 -7 39 0 11 -3 10 -13 -3 -17 -23 -57 -13 -57
14 0 10 -3 25 -6 34 -9 23 43 46 58 25 7 -10 8 -8 4 11 -3 14 -6 49 -6 79 0
47 -2 52 -13 37 -10 -14 -25 -16 -77 -14 l-65 3 78 54 c42 29 77 57 77 62 0 5
-39 9 -86 9 -71 0 -89 3 -100 18 -12 15 -13 13 -14 -22z m139 -298 c1 -10 -41
-10 -64 -1 -14 5 -11 9 16 24 32 16 34 16 41 1 4 -10 7 -20 7 -24z"/>
<path d="M1702 1385 c0 -11 6 -42 13 -70 7 -27 13 -41 13 -30 0 11 -6 43 -13
70 -7 28 -13 41 -13 30z"/>
<path d="M1581 1359 c-1 -8 15 -30 34 -49 19 -19 35 -29 35 -23 0 6 -13 22
-29 35 -15 13 -31 31 -34 39 -4 11 -6 11 -6 -2z"/>
<path d="M2547 1191 c-9 -45 -9 -59 2 -42 8 12 22 12 90 1 56 -9 81 -17 81
-26 0 -8 5 -14 10 -14 6 0 10 11 10 24 0 13 3 33 7 43 6 16 5 16 -10 4 -24
-19 -174 4 -179 28 -2 9 -7 1 -11 -18z"/>
<path d="M1364 1181 c7 -11 46 -35 46 -28 0 3 -12 12 -26 22 -15 9 -23 12 -20
6z"/>
<path d="M2718 1079 c-2 -6 -45 -14 -101 -18 -53 -4 -99 -10 -102 -13 -3 -3
31 -33 75 -67 44 -34 80 -70 81 -79 0 -9 6 -1 13 18 14 36 11 55 -4 30 -7 -11
-15 -9 -47 13 -63 45 -77 57 -72 61 2 2 34 6 72 9 57 4 67 2 67 -11 0 -25 17
-1 25 36 6 30 1 46 -7 21z"/>
<path d="M190 1065 c-7 -9 -13 -28 -12 -43 1 -31 30 -116 31 -91 1 19 151 66
172 54 15 -10 3 45 -13 60 -8 7 -9 6 -4 -2 7 -14 -23 -33 -51 -33 -10 1 -27
15 -38 33 -23 36 -64 47 -85 22z m84 -37 c14 -24 -3 -39 -45 -41 -39 -2 -50
21 -23 47 20 21 53 17 68 -6z"/>
<path d="M2454 888 c-32 -67 -33 -74 -17 -85 25 -19 35 -16 22 5 -12 19 -7 54
9 80 8 11 16 11 46 -2 20 -8 36 -19 36 -23 0 -16 -15 -31 -35 -35 -17 -3 -16
-6 12 -21 37 -20 52 -22 35 -5 -14 14 -16 45 -2 53 9 5 70 -20 70 -30 0 -19
-27 -55 -42 -55 -22 0 -24 -16 -2 -24 21 -8 21 -8 27 7 3 6 17 38 31 70 22 48
23 55 8 46 -14 -9 -32 -4 -91 25 -51 26 -71 41 -67 52 3 8 3 14 0 14 -2 0 -20
-33 -40 -72z"/>
<path d="M412 889 c2 -7 -28 -32 -66 -55 -53 -33 -73 -41 -83 -33 -17 15 -17
4 2 -25 15 -23 17 -23 90 -11 41 6 75 10 75 7 0 -2 -17 -25 -38 -51 -21 -25
-42 -51 -46 -58 -8 -14 13 -55 50 -98 21 -25 25 -26 19 -9 -5 19 1 24 57 43
34 12 65 21 70 21 4 0 -8 -26 -27 -57 -20 -34 -40 -57 -49 -57 -21 2 -20 -5 5
-32 l20 -22 50 95 c28 53 48 97 47 99 -2 2 -46 -10 -98 -26 -84 -26 -97 -28
-110 -15 -18 19 -8 29 70 73 43 24 59 28 74 20 10 -6 17 -6 14 -2 -31 67 -45
81 -44 43 1 -15 -16 -30 -64 -57 l-65 -37 25 31 c14 18 40 50 58 73 33 40 33
41 10 41 -12 0 -50 -4 -82 -10 -33 -5 -61 -8 -63 -6 -2 2 24 20 58 40 51 30
64 34 77 24 13 -11 13 -8 -1 19 -18 33 -40 54 -35 32z"/>
<path d="M2392 770 c-26 -35 -27 -41 -7 -34 17 7 65 -21 65 -36 0 -6 -25 -10
-56 -10 -42 0 -60 -4 -70 -17 -19 -26 -17 -35 5 -23 11 5 38 10 60 10 36 0 41
-3 41 -23 0 -32 33 -61 59 -52 12 3 34 26 51 50 31 46 37 61 19 50 -16 -10
-149 84 -142 101 8 23 -2 16 -25 -16z m135 -118 c3 -8 -1 -21 -10 -30 -13 -13
-21 -13 -42 -4 -25 11 -31 34 -19 66 5 14 9 14 36 -2 17 -9 33 -23 35 -30z"/>
<path d="M1072 720 c0 -24 25 -115 27 -95 0 6 -6 35 -14 65 -7 30 -13 44 -13
30z"/>
<path d="M1405 630 c-16 -47 -16 -53 -1 -75 21 -32 62 -33 107 -2 40 27 54 77
21 77 -11 0 -25 -7 -32 -15 -7 -9 -23 -15 -34 -13 -16 2 -22 11 -24 41 -4 51
-17 46 -37 -13z"/>
<path d="M2257 596 c-42 -39 -48 -73 -17 -101 20 -18 22 -18 75 0 44 15 57 16
70 5 19 -16 19 -25 -2 -45 -12 -12 -25 -15 -52 -10 l-36 6 22 -22 22 -22 35
27 c39 30 47 64 20 90 -20 20 -42 20 -89 1 -40 -18 -65 -8 -65 25 0 29 26 43
66 37 l37 -6 -23 24 c-13 14 -24 25 -25 25 -1 0 -18 -15 -38 -34z"/>
<path d="M604 569 l-19 -22 29 7 c29 7 76 -14 76 -35 0 -6 -25 -37 -56 -69
-37 -39 -61 -57 -72 -53 -10 2 -3 -8 13 -23 28 -25 30 -26 33 -8 5 26 104 125
119 119 27 -10 11 13 -41 58 -30 26 -57 47 -59 47 -2 0 -12 -10 -23 -21z"/>
<path d="M1772 525 c0 -16 2 -22 5 -12 2 9 2 23 0 30 -3 6 -5 -1 -5 -18z"/>
<path d="M2158 505 c-30 -26 -36 -37 -14 -29 18 7 120 -111 112 -131 -8 -21 5
-18 37 10 32 28 34 35 9 28 -27 -7 -127 113 -111 133 19 23 -4 15 -33 -11z"/>
<path d="M734 449 c-19 -22 -19 -22 6 -14 14 4 27 7 30 7 15 0 27 -4 43 -16
17 -13 15 -18 -28 -86 -35 -54 -50 -70 -63 -66 -9 3 -3 -5 13 -19 34 -28 47
-32 39 -10 -8 19 72 143 93 147 16 3 -86 78 -105 78 -5 0 -17 -10 -28 -21z"/>
<path d="M2021 407 c-37 -25 -57 -43 -48 -45 8 -2 17 -14 19 -26 4 -19 -2 -27
-28 -39 -30 -15 -33 -14 -48 2 -10 11 -14 25 -9 37 5 16 4 17 -8 8 -8 -7 -45
-23 -84 -37 -38 -14 -60 -26 -48 -26 17 -1 26 -14 47 -77 14 -42 23 -81 20
-85 -9 -14 -36 -10 -57 8 -19 17 -19 17 -12 -7 4 -14 9 -27 11 -29 3 -4 137
38 154 49 7 4 7 15 1 31 l-9 24 -7 -27 c-7 -27 -33 -45 -45 -31 -9 10 -50 132
-50 149 0 6 10 14 21 17 17 4 38 -10 95 -64 40 -38 75 -69 79 -69 3 0 2 45 -1
100 -7 100 0 130 30 130 6 0 31 -32 55 -71 35 -57 41 -73 30 -80 -8 -5 -20 -7
-26 -4 -7 3 -20 8 -29 12 -14 5 -15 3 -5 -15 7 -12 16 -22 22 -22 13 0 139 80
139 89 0 4 -7 16 -15 27 -14 18 -14 18 -15 -7 0 -23 -25 -58 -34 -48 -1 2 -22
33 -46 68 -36 54 -41 67 -31 83 16 26 4 22 -68 -25z m-21 -154 l0 -38 -27 28
c-24 23 -26 29 -13 37 29 19 40 11 40 -27z"/>
<path d="M909 366 c10 -11 5 -29 -23 -84 -20 -40 -43 -72 -53 -74 -13 -3 -7
-9 21 -21 48 -21 49 -21 35 1 -9 14 -5 30 21 81 19 39 39 65 52 69 19 4 17 7
-13 23 -41 22 -55 24 -40 5z"/>
<path d="M991 290 c-5 -16 -16 -30 -23 -30 -15 -1 49 -30 65 -30 6 0 3 6 -7
13 -14 10 -15 18 -7 40 13 32 29 34 65 6 33 -26 35 -73 3 -120 -40 -59 -117
-47 -117 19 -1 20 -3 23 -9 12 -25 -45 -22 -54 24 -74 73 -29 138 1 151 71 13
67 -35 123 -105 123 -23 0 -31 -6 -40 -30z"/>
<path d="M1180 270 c0 -5 5 -10 11 -12 18 -6 -21 -168 -40 -169 -9 -1 2 -7 24
-14 41 -13 60 -10 36 5 -12 7 -12 19 -2 72 17 89 20 96 39 100 9 2 -2 9 -25
15 -24 6 -43 7 -43 3z"/>
<path d="M1665 265 c-22 -7 -32 -13 -23 -14 11 -1 19 -16 26 -48 22 -105 24
-123 13 -123 -6 0 -11 -4 -11 -9 0 -5 19 -4 43 2 24 6 35 13 25 15 -10 2 -18
5 -18 7 0 1 -7 38 -16 80 -13 64 -14 79 -3 86 24 14 5 17 -36 4z"/>
<path d="M1285 234 c-27 -28 -15 -65 33 -97 44 -30 55 -62 26 -74 -21 -8 -46
7 -61 38 -9 17 -13 19 -13 7 0 -9 -3 -23 -6 -31 -4 -12 5 -17 41 -23 40 -5 50
-3 67 14 30 30 17 67 -31 91 -58 30 -61 81 -4 81 15 0 30 -11 42 -31 l19 -30
4 29 c4 27 1 31 -25 36 -49 10 -75 7 -92 -10z"/>
<path d="M1493 224 c-15 -23 -15 -29 -2 -52 8 -15 31 -31 56 -39 44 -15 60
-37 42 -59 -18 -22 -46 -16 -68 13 l-20 28 -1 -31 c0 -29 2 -31 42 -32 101 -4
106 89 5 113 -27 7 -46 43 -32 64 12 20 56 11 80 -15 18 -19 25 -23 25 -11 0
38 -12 47 -61 47 -41 0 -51 -4 -66 -26z"/>
</g>
</svg>
